<mxfile host="app.diagrams.net" modified="2021-03-29T12:02:36.137Z" agent="5.0 (Windows NT 10.0; Win64; x64) AppleWebKit/537.36 (KHTML, like Gecko) Chrome/89.0.4389.90 Safari/537.36 Edg/89.0.774.63" etag="z96sGopzNJ0v_R3GbhKp" version="14.4.4" type="github">
  <diagram id="pVgKw5YaA2YAjwCexgZq" name="第 1 页">
    <mxGraphModel dx="7122" dy="4795" grid="1" gridSize="10" guides="1" tooltips="1" connect="1" arrows="1" fold="1" page="1" pageScale="1" pageWidth="827" pageHeight="1169" math="0" shadow="0">
      <root>
        <mxCell id="0" />
        <mxCell id="1" parent="0" />
        <mxCell id="sy4TEDoWgvyvnTtcRax9-1" value="" style="rounded=0;whiteSpace=wrap;html=1;labelBackgroundColor=none;fontFamily=Courier New;fontSize=13;align=right;dashed=1;dashPattern=1 2;fillColor=#E6F5E9;strokeColor=#666666;fontColor=#333333;labelBorderColor=none;" vertex="1" parent="1">
          <mxGeometry x="-4012.5" y="-2752" width="1193" height="398" as="geometry" />
        </mxCell>
        <mxCell id="sy4TEDoWgvyvnTtcRax9-2" value="" style="rounded=0;whiteSpace=wrap;html=1;labelBackgroundColor=#ffffff;fontFamily=Courier New;fontSize=13;align=right;dashed=1;dashPattern=1 2;fillColor=#E6F5E9;strokeColor=#666666;fontColor=#333333;" vertex="1" parent="1">
          <mxGeometry x="-4831.5" y="-2757" width="739" height="398" as="geometry" />
        </mxCell>
        <object label="" id="sy4TEDoWgvyvnTtcRax9-3">
          <mxCell style="rounded=0;whiteSpace=wrap;html=1;labelBackgroundColor=#ffffff;fontFamily=Courier New;fontSize=13;align=right;dashed=1;dashPattern=1 2;fillColor=#eeeeee;strokeColor=none;" vertex="1" parent="1">
            <mxGeometry x="-3262.5" y="-2301" width="443" height="350" as="geometry" />
          </mxCell>
        </object>
        <mxCell id="sy4TEDoWgvyvnTtcRax9-4" value="" style="rounded=0;whiteSpace=wrap;html=1;labelBackgroundColor=#ffffff;fontFamily=Courier New;fontSize=13;align=right;dashed=1;dashPattern=1 2;fillColor=#eeeeee;strokeColor=none;" vertex="1" parent="1">
          <mxGeometry x="-4012.5" y="-2301" width="735" height="350" as="geometry" />
        </mxCell>
        <mxCell id="sy4TEDoWgvyvnTtcRax9-5" value="" style="rounded=0;whiteSpace=wrap;html=1;labelBackgroundColor=#ffffff;fontFamily=Courier New;fontSize=13;align=right;dashed=1;dashPattern=1 2;fillColor=#eeeeee;strokeColor=none;" vertex="1" parent="1">
          <mxGeometry x="-4450.5" y="-2300" width="358" height="350" as="geometry" />
        </mxCell>
        <mxCell id="sy4TEDoWgvyvnTtcRax9-6" value="" style="rounded=0;whiteSpace=wrap;html=1;labelBackgroundColor=#ffffff;fontFamily=Courier New;fontSize=13;align=right;dashed=1;dashPattern=1 2;fillColor=#eeeeee;strokeColor=none;" vertex="1" parent="1">
          <mxGeometry x="-4831.5" y="-2300" width="360" height="350" as="geometry" />
        </mxCell>
        <mxCell id="sy4TEDoWgvyvnTtcRax9-7" value="" style="rounded=1;whiteSpace=wrap;html=1;labelBackgroundColor=#ffffff;fillColor=#f5f5f5;fontFamily=Courier New;fontSize=13;align=right;dashed=1;dashPattern=1 2;gradientColor=#b3b3b3;strokeColor=none;" vertex="1" parent="1">
          <mxGeometry x="-4012.5" y="-3264" width="1188" height="316" as="geometry" />
        </mxCell>
        <mxCell id="sy4TEDoWgvyvnTtcRax9-8" value="" style="rounded=1;whiteSpace=wrap;html=1;labelBackgroundColor=#ffffff;fillColor=#f5f5f5;fontFamily=Courier New;fontSize=13;align=right;dashed=1;dashPattern=1 2;gradientColor=#b3b3b3;strokeColor=none;glass=0;" vertex="1" parent="1">
          <mxGeometry x="-4831.5" y="-3264" width="739" height="315" as="geometry" />
        </mxCell>
        <mxCell id="sy4TEDoWgvyvnTtcRax9-9" value="" style="rounded=0;whiteSpace=wrap;html=1;labelBackgroundColor=#ffffff;fontFamily=Courier New;fontSize=13;align=right;dashed=1;dashPattern=1 2;fillColor=#f5f5f5;strokeColor=#666666;fontColor=#333333;" vertex="1" parent="1">
          <mxGeometry x="-4012.5" y="-2909" width="1190" height="125" as="geometry" />
        </mxCell>
        <mxCell id="sy4TEDoWgvyvnTtcRax9-10" value="" style="rounded=0;whiteSpace=wrap;html=1;labelBackgroundColor=#ffffff;fillColor=#f5f5f5;fontFamily=Courier New;fontSize=13;align=right;dashed=1;dashPattern=1 2;strokeColor=#666666;fontColor=#333333;" vertex="1" parent="1">
          <mxGeometry x="-4831.5" y="-2909" width="739" height="125" as="geometry" />
        </mxCell>
        <mxCell id="sy4TEDoWgvyvnTtcRax9-11" value="" style="rounded=0;whiteSpace=wrap;html=1;" vertex="1" parent="1">
          <mxGeometry x="-4644.5" y="-3246" width="23" height="19" as="geometry" />
        </mxCell>
        <mxCell id="sy4TEDoWgvyvnTtcRax9-12" value="Nginx" style="rounded=0;whiteSpace=wrap;html=1;" vertex="1" parent="1">
          <mxGeometry x="-4644.5" y="-3165" width="167" height="24" as="geometry" />
        </mxCell>
        <mxCell id="sy4TEDoWgvyvnTtcRax9-13" value="spring" style="rounded=0;whiteSpace=wrap;html=1;fillColor=#fa6800;strokeColor=#C73500;fontColor=#ffffff;" vertex="1" parent="1">
          <mxGeometry x="-4641.5" y="-3063" width="37" height="24" as="geometry" />
        </mxCell>
        <mxCell id="sy4TEDoWgvyvnTtcRax9-14" value="spring" style="rounded=0;whiteSpace=wrap;html=1;fillColor=#fa6800;strokeColor=#C73500;fontColor=#ffffff;" vertex="1" parent="1">
          <mxGeometry x="-4579.5" y="-3063" width="37" height="24" as="geometry" />
        </mxCell>
        <mxCell id="sy4TEDoWgvyvnTtcRax9-15" value="spring" style="rounded=0;whiteSpace=wrap;html=1;fillColor=#fa6800;strokeColor=#C73500;fontColor=#ffffff;" vertex="1" parent="1">
          <mxGeometry x="-4514.5" y="-3063" width="37" height="24" as="geometry" />
        </mxCell>
        <mxCell id="sy4TEDoWgvyvnTtcRax9-16" value="" style="rounded=0;whiteSpace=wrap;html=1;" vertex="1" parent="1">
          <mxGeometry x="-4596.5" y="-3246" width="23" height="19" as="geometry" />
        </mxCell>
        <mxCell id="sy4TEDoWgvyvnTtcRax9-17" value="" style="rounded=0;whiteSpace=wrap;html=1;" vertex="1" parent="1">
          <mxGeometry x="-4548.5" y="-3246" width="23" height="19" as="geometry" />
        </mxCell>
        <mxCell id="sy4TEDoWgvyvnTtcRax9-18" value="" style="rounded=0;whiteSpace=wrap;html=1;" vertex="1" parent="1">
          <mxGeometry x="-4500.5" y="-3246" width="23" height="19" as="geometry" />
        </mxCell>
        <mxCell id="sy4TEDoWgvyvnTtcRax9-19" value="&lt;font style=&quot;font-size: 13px;&quot;&gt;用户行为日志&lt;/font&gt;" style="text;html=1;align=center;verticalAlign=middle;resizable=0;points=[];autosize=1;fontFamily=Courier New;labelBackgroundColor=#ffffff;fontStyle=1;fontSize=13;" vertex="1" parent="1">
          <mxGeometry x="-4590.5" y="-3298" width="88" height="20" as="geometry" />
        </mxCell>
        <mxCell id="sy4TEDoWgvyvnTtcRax9-20" value="用户app/web" style="text;html=1;align=right;verticalAlign=middle;resizable=0;points=[];autosize=1;fontSize=10;" vertex="1" parent="1">
          <mxGeometry x="-4731.5" y="-3244.5" width="68" height="16" as="geometry" />
        </mxCell>
        <mxCell id="sy4TEDoWgvyvnTtcRax9-21" value="负载均衡，高吞吐量" style="text;html=1;align=left;verticalAlign=middle;resizable=0;points=[];autosize=1;fontSize=10;" vertex="1" parent="1">
          <mxGeometry x="-4464.5" y="-3163" width="100" height="16" as="geometry" />
        </mxCell>
        <mxCell id="sy4TEDoWgvyvnTtcRax9-22" value="此处使用Mock.jar包模拟" style="text;html=1;align=left;verticalAlign=middle;resizable=0;points=[];autosize=1;fontSize=10;" vertex="1" parent="1">
          <mxGeometry x="-4464.5" y="-3244" width="118" height="16" as="geometry" />
        </mxCell>
        <mxCell id="sy4TEDoWgvyvnTtcRax9-23" value="用户行为日志服务器" style="text;html=1;strokeColor=none;fillColor=none;align=right;verticalAlign=middle;whiteSpace=wrap;rounded=0;fontSize=10;" vertex="1" parent="1">
          <mxGeometry x="-4784.5" y="-3063" width="121" height="20" as="geometry" />
        </mxCell>
        <mxCell id="sy4TEDoWgvyvnTtcRax9-24" value="用户行为日志ods层数据" style="text;html=1;strokeColor=none;fillColor=none;align=right;verticalAlign=middle;whiteSpace=wrap;rounded=0;fontSize=10;" vertex="1" parent="1">
          <mxGeometry x="-4784.5" y="-2856" width="121" height="20" as="geometry" />
        </mxCell>
        <mxCell id="sy4TEDoWgvyvnTtcRax9-25" value="用户行为日志dwd层APP" style="text;html=1;strokeColor=none;fillColor=none;align=right;verticalAlign=middle;whiteSpace=wrap;rounded=0;fontSize=10;" vertex="1" parent="1">
          <mxGeometry x="-4784.5" y="-2686" width="121" height="20" as="geometry" />
        </mxCell>
        <mxCell id="sy4TEDoWgvyvnTtcRax9-26" value="用户行为日志dwd层数据" style="text;html=1;strokeColor=none;fillColor=none;align=right;verticalAlign=middle;whiteSpace=wrap;rounded=0;fontSize=10;" vertex="1" parent="1">
          <mxGeometry x="-4784.5" y="-2550" width="121" height="20" as="geometry" />
        </mxCell>
        <mxCell id="sy4TEDoWgvyvnTtcRax9-27" value="Nginx反向代理" style="text;html=1;strokeColor=none;fillColor=none;align=right;verticalAlign=middle;whiteSpace=wrap;rounded=0;fontSize=10;" vertex="1" parent="1">
          <mxGeometry x="-4758.5" y="-3165" width="95" height="20" as="geometry" />
        </mxCell>
        <mxCell id="sy4TEDoWgvyvnTtcRax9-28" value="&lt;div&gt;启动日志数据&amp;nbsp; &amp;nbsp; ------------&amp;gt;&amp;gt;&amp;nbsp; &amp;nbsp; &amp;nbsp; dwd_start_log&lt;/div&gt;&lt;div&gt;页面日志数据&amp;nbsp; &amp;nbsp; ------------&amp;gt;&amp;gt;&amp;nbsp; &amp;nbsp; &amp;nbsp; dwd_page_log&lt;/div&gt;&lt;div&gt;曝光日志数据&amp;nbsp; &amp;nbsp; ------------&amp;gt;&amp;gt;&amp;nbsp; &amp;nbsp; &amp;nbsp; dwd_display_log&lt;/div&gt;" style="text;html=1;align=left;verticalAlign=middle;resizable=0;points=[];autosize=1;fontSize=10;" vertex="1" parent="1">
          <mxGeometry x="-4459.5" y="-2564" width="224" height="40" as="geometry" />
        </mxCell>
        <mxCell id="sy4TEDoWgvyvnTtcRax9-29" value="" style="rounded=0;whiteSpace=wrap;html=1;" vertex="1" parent="1">
          <mxGeometry x="-3797.5" y="-3246" width="23" height="19" as="geometry" />
        </mxCell>
        <mxCell id="sy4TEDoWgvyvnTtcRax9-30" value="Nginx" style="rounded=0;whiteSpace=wrap;html=1;" vertex="1" parent="1">
          <mxGeometry x="-3797.5" y="-3165" width="167" height="24" as="geometry" />
        </mxCell>
        <mxCell id="sy4TEDoWgvyvnTtcRax9-31" value="业务服务器" style="rounded=0;whiteSpace=wrap;html=1;" vertex="1" parent="1">
          <mxGeometry x="-3797.5" y="-3063" width="167" height="24" as="geometry" />
        </mxCell>
        <mxCell id="sy4TEDoWgvyvnTtcRax9-32" value="Mysql" style="rounded=0;whiteSpace=wrap;html=1;fillColor=#d5e8d4;strokeColor=#82b366;" vertex="1" parent="1">
          <mxGeometry x="-3797.5" y="-3008" width="167" height="24" as="geometry" />
        </mxCell>
        <mxCell id="sy4TEDoWgvyvnTtcRax9-33" value="FlinkCDCApp" style="rounded=0;whiteSpace=wrap;html=1;fillColor=#fa6800;strokeColor=#C73500;fontColor=#ffffff;" vertex="1" parent="1">
          <mxGeometry x="-3797.5" y="-2877.75" width="167" height="24" as="geometry" />
        </mxCell>
        <mxCell id="sy4TEDoWgvyvnTtcRax9-34" value="BaseDBApp" style="rounded=0;whiteSpace=wrap;html=1;fillColor=#fa6800;strokeColor=#C73500;fontColor=#ffffff;" vertex="1" parent="1">
          <mxGeometry x="-3792.5" y="-2716" width="167" height="24" as="geometry" />
        </mxCell>
        <mxCell id="sy4TEDoWgvyvnTtcRax9-35" value="DwdKafkaSink" style="rounded=0;whiteSpace=wrap;html=1;fillColor=#fa6800;strokeColor=#C73500;fontColor=#ffffff;" vertex="1" parent="1">
          <mxGeometry x="-3882.5" y="-2651" width="104" height="14" as="geometry" />
        </mxCell>
        <mxCell id="sy4TEDoWgvyvnTtcRax9-36" value="DimSink" style="rounded=0;whiteSpace=wrap;html=1;fillColor=#fa6800;strokeColor=#C73500;fontColor=#ffffff;" vertex="1" parent="1">
          <mxGeometry x="-3634.5" y="-2656" width="71" height="14" as="geometry" />
        </mxCell>
        <mxCell id="sy4TEDoWgvyvnTtcRax9-37" value="UniqueVisitorApp" style="rounded=0;whiteSpace=wrap;html=1;fillColor=#fa6800;strokeColor=#C73500;fontColor=#ffffff;" vertex="1" parent="1">
          <mxGeometry x="-4697" y="-2136" width="167" height="24" as="geometry" />
        </mxCell>
        <mxCell id="sy4TEDoWgvyvnTtcRax9-38" value="" style="rounded=0;whiteSpace=wrap;html=1;" vertex="1" parent="1">
          <mxGeometry x="-3749.5" y="-3246" width="23" height="19" as="geometry" />
        </mxCell>
        <mxCell id="sy4TEDoWgvyvnTtcRax9-39" value="" style="rounded=0;whiteSpace=wrap;html=1;" vertex="1" parent="1">
          <mxGeometry x="-3701.5" y="-3246" width="23" height="19" as="geometry" />
        </mxCell>
        <mxCell id="sy4TEDoWgvyvnTtcRax9-40" value="" style="rounded=0;whiteSpace=wrap;html=1;" vertex="1" parent="1">
          <mxGeometry x="-3653.5" y="-3246" width="23" height="19" as="geometry" />
        </mxCell>
        <mxCell id="sy4TEDoWgvyvnTtcRax9-41" value="&lt;font style=&quot;font-size: 13px;&quot;&gt;用户业务日志&lt;/font&gt;" style="text;html=1;align=center;verticalAlign=middle;resizable=0;points=[];autosize=1;fontStyle=1;fontSize=13;" vertex="1" parent="1">
          <mxGeometry x="-3743.5" y="-3298" width="88" height="20" as="geometry" />
        </mxCell>
        <mxCell id="sy4TEDoWgvyvnTtcRax9-42" value="用户app/web" style="text;html=1;align=right;verticalAlign=middle;resizable=0;points=[];autosize=1;fontSize=10;" vertex="1" parent="1">
          <mxGeometry x="-3884.5" y="-3244.5" width="68" height="16" as="geometry" />
        </mxCell>
        <mxCell id="sy4TEDoWgvyvnTtcRax9-43" value="用户业务数据和业务服务器之间的&lt;br&gt;通信也是通过 Ngnix 反向代理的&lt;br&gt;主要是利用了 Ngnix 高吞吐量 来做负载均衡" style="text;html=1;align=left;verticalAlign=middle;resizable=0;points=[];autosize=1;fontSize=10;" vertex="1" parent="1">
          <mxGeometry x="-3617.5" y="-3175" width="204" height="40" as="geometry" />
        </mxCell>
        <mxCell id="sy4TEDoWgvyvnTtcRax9-44" value="业务服务器" style="text;html=1;strokeColor=none;fillColor=none;align=right;verticalAlign=middle;whiteSpace=wrap;rounded=0;fontSize=10;" vertex="1" parent="1">
          <mxGeometry x="-3937.5" y="-3063" width="121" height="20" as="geometry" />
        </mxCell>
        <mxCell id="sy4TEDoWgvyvnTtcRax9-45" value="业务原始数据" style="text;html=1;strokeColor=none;fillColor=none;align=right;verticalAlign=middle;whiteSpace=wrap;rounded=0;fontSize=10;" vertex="1" parent="1">
          <mxGeometry x="-3937.5" y="-3008" width="121" height="20" as="geometry" />
        </mxCell>
        <mxCell id="sy4TEDoWgvyvnTtcRax9-46" value="业务数据ods层APP" style="text;html=1;strokeColor=none;fillColor=none;align=right;verticalAlign=middle;whiteSpace=wrap;rounded=0;fontSize=10;" vertex="1" parent="1">
          <mxGeometry x="-3937.5" y="-2873.75" width="121" height="20" as="geometry" />
        </mxCell>
        <mxCell id="sy4TEDoWgvyvnTtcRax9-47" value="业务数据ods层数据" style="text;html=1;strokeColor=none;fillColor=none;align=right;verticalAlign=middle;whiteSpace=wrap;rounded=0;fontSize=10;" vertex="1" parent="1">
          <mxGeometry x="-3937.5" y="-2825" width="121" height="20" as="geometry" />
        </mxCell>
        <mxCell id="sy4TEDoWgvyvnTtcRax9-48" value="业务数据dwd层APP" style="text;html=1;strokeColor=none;fillColor=none;align=right;verticalAlign=middle;whiteSpace=wrap;rounded=0;fontSize=10;" vertex="1" parent="1">
          <mxGeometry x="-3932.5" y="-2712" width="121" height="20" as="geometry" />
        </mxCell>
        <mxCell id="sy4TEDoWgvyvnTtcRax9-49" value="dwm层UV相关APP" style="text;html=1;strokeColor=none;fillColor=none;align=right;verticalAlign=middle;whiteSpace=wrap;rounded=0;fontSize=10;" vertex="1" parent="1">
          <mxGeometry x="-4836.5" y="-2134" width="121" height="20" as="geometry" />
        </mxCell>
        <mxCell id="sy4TEDoWgvyvnTtcRax9-50" value="源数据" style="text;html=1;strokeColor=none;fillColor=none;align=right;verticalAlign=middle;whiteSpace=wrap;rounded=0;fontSize=10;" vertex="1" parent="1">
          <mxGeometry x="-4710.5" y="-2251" width="121" height="20" as="geometry" />
        </mxCell>
        <mxCell id="sy4TEDoWgvyvnTtcRax9-51" value="dwm层UV相关数据" style="text;html=1;strokeColor=none;fillColor=none;align=right;verticalAlign=middle;whiteSpace=wrap;rounded=0;fontSize=10;" vertex="1" parent="1">
          <mxGeometry x="-4838" y="-2037" width="121" height="20" as="geometry" />
        </mxCell>
        <mxCell id="sy4TEDoWgvyvnTtcRax9-52" value="Nginx反向代理" style="text;html=1;strokeColor=none;fillColor=none;align=right;verticalAlign=middle;whiteSpace=wrap;rounded=0;fontSize=10;" vertex="1" parent="1">
          <mxGeometry x="-3882.5" y="-3165" width="66" height="20" as="geometry" />
        </mxCell>
        <mxCell id="sy4TEDoWgvyvnTtcRax9-53" value="&lt;font style=&quot;font-size: 10px&quot;&gt;业务服务 的数据主要是存在MySQL中&lt;br&gt;&lt;/font&gt;" style="text;html=1;align=left;verticalAlign=middle;resizable=0;points=[];autosize=1;fontSize=10;" vertex="1" parent="1">
          <mxGeometry x="-3615.5" y="-3055.5" width="176" height="16" as="geometry" />
        </mxCell>
        <mxCell id="sy4TEDoWgvyvnTtcRax9-54" value="kafka&amp;nbsp; &amp;nbsp;ods_base_log" style="rounded=0;whiteSpace=wrap;html=1;fillColor=#dae8fc;strokeColor=#6c8ebf;" vertex="1" parent="1">
          <mxGeometry x="-4644.5" y="-2858" width="167" height="24" as="geometry" />
        </mxCell>
        <mxCell id="sy4TEDoWgvyvnTtcRax9-55" value="BaseLogApp" style="rounded=0;whiteSpace=wrap;html=1;fillColor=#fa6800;strokeColor=#C73500;fontColor=#ffffff;" vertex="1" parent="1">
          <mxGeometry x="-4646.5" y="-2688" width="167" height="24" as="geometry" />
        </mxCell>
        <mxCell id="sy4TEDoWgvyvnTtcRax9-56" value="kafka&amp;nbsp; &amp;nbsp;dwd_start_log" style="rounded=0;whiteSpace=wrap;html=1;fillColor=#dae8fc;strokeColor=#6c8ebf;" vertex="1" parent="1">
          <mxGeometry x="-4646.5" y="-2584" width="167" height="24" as="geometry" />
        </mxCell>
        <mxCell id="sy4TEDoWgvyvnTtcRax9-57" value="kafka&amp;nbsp; &amp;nbsp;dwd_display_log" style="rounded=0;whiteSpace=wrap;html=1;fillColor=#dae8fc;strokeColor=#6c8ebf;" vertex="1" parent="1">
          <mxGeometry x="-4646.5" y="-2520" width="167" height="24" as="geometry" />
        </mxCell>
        <mxCell id="sy4TEDoWgvyvnTtcRax9-58" value="kafka&amp;nbsp; &amp;nbsp;dwd_page_id_log" style="rounded=0;whiteSpace=wrap;html=1;fillColor=#dae8fc;strokeColor=#6c8ebf;" vertex="1" parent="1">
          <mxGeometry x="-4550.5" y="-2254" width="167" height="24" as="geometry" />
        </mxCell>
        <mxCell id="sy4TEDoWgvyvnTtcRax9-59" value="kafka&amp;nbsp; &amp;nbsp;dwm_unique_visit" style="rounded=0;whiteSpace=wrap;html=1;fillColor=#dae8fc;strokeColor=#6c8ebf;" vertex="1" parent="1">
          <mxGeometry x="-4696.5" y="-2039" width="167" height="24" as="geometry" />
        </mxCell>
        <mxCell id="sy4TEDoWgvyvnTtcRax9-60" value="kafka&amp;nbsp; &amp;nbsp;dwd_page_log" style="rounded=0;whiteSpace=wrap;html=1;fillColor=#dae8fc;strokeColor=#6c8ebf;" vertex="1" parent="1">
          <mxGeometry x="-4646.5" y="-2552" width="167" height="24" as="geometry" />
        </mxCell>
        <UserObject label="&lt;font style=&quot;white-space: nowrap ; font-size: 10px&quot;&gt;&lt;span style=&quot;color: rgb(51 , 51 , 51) ; font-size: 10px ; white-space: pre-wrap&quot;&gt;用户业务数据采集就是一个Flink程序，&lt;br style=&quot;font-size: 10px&quot;&gt;&lt;/span&gt;&lt;/font&gt;&lt;font style=&quot;white-space: nowrap ; font-size: 10px&quot;&gt;&lt;span style=&quot;color: rgb(51 , 51 , 51) ; font-size: 10px ; white-space: pre-wrap&quot;&gt;里面用了Flink-CDC工具，&lt;br style=&quot;font-size: 10px&quot;&gt;&lt;/span&gt;&lt;/font&gt;&lt;font style=&quot;white-space: nowrap ; font-size: 10px&quot;&gt;&lt;span style=&quot;color: rgb(51 , 51 , 51) ; font-size: 10px ; white-space: pre-wrap&quot;&gt;它通过BinLog日志从MySQL中读取数据&lt;br/&gt;读取到Struct结构日志，通过自定义的反序列化器转换为JSON格式&lt;br&gt;再写入kafka的“ods-base_db”主题中。&lt;/span&gt;&lt;/font&gt;" id="sy4TEDoWgvyvnTtcRax9-61">
          <mxCell style="text;html=1;strokeColor=none;fillColor=none;align=left;verticalAlign=middle;whiteSpace=wrap;rounded=0;dashed=1;dashPattern=1 2;labelBackgroundColor=none;fontFamily=Helvetica;fontSize=10;" vertex="1" parent="1">
            <mxGeometry x="-3615.5" y="-2901" width="327" height="74.5" as="geometry" />
          </mxCell>
        </UserObject>
        <UserObject label="&lt;font style=&quot;white-space: nowrap ; font-size: 10px&quot;&gt;&lt;span style=&quot;color: rgb(51 , 51 , 51) ; font-size: 10px ; white-space: pre-wrap&quot;&gt;将来自ods层的业务数据进行分流，&lt;br/&gt;业务数据分为事实数据和维度数据&lt;br/&gt;事实数据去kafa对应的主题名&lt;br/&gt;维度数据去Hbase对应的表名&lt;br/&gt;&lt;/span&gt;&lt;/font&gt;" id="sy4TEDoWgvyvnTtcRax9-62">
          <mxCell style="text;html=1;strokeColor=none;fillColor=none;align=left;verticalAlign=middle;whiteSpace=wrap;rounded=0;dashed=1;dashPattern=1 2;labelBackgroundColor=none;fontFamily=Helvetica;fontSize=10;" vertex="1" parent="1">
            <mxGeometry x="-3610.5" y="-2741.25" width="327" height="74.5" as="geometry" />
          </mxCell>
        </UserObject>
        <mxCell id="sy4TEDoWgvyvnTtcRax9-63" value="&lt;span style=&quot;white-space: nowrap&quot;&gt;这是一个Flink程序，运行在Flink集群上，&lt;/span&gt;&lt;br style=&quot;white-space: nowrap&quot;&gt;&lt;span style=&quot;white-space: nowrap&quot;&gt;从kafka ods_base_log层消费用户行为日志，实现3个功能&lt;/span&gt;&lt;br style=&quot;white-space: nowrap&quot;&gt;&lt;div style=&quot;white-space: nowrap&quot;&gt;&amp;nbsp; &amp;nbsp;1. 利用 RichMapFunction 实现新老用户识别&lt;/div&gt;&lt;div style=&quot;white-space: nowrap&quot;&gt;&amp;nbsp; &amp;nbsp;2. 利用 ProcessFunction &amp;amp; 侧输出流 实现将不同类型的数据分流&lt;/div&gt;&lt;div style=&quot;white-space: nowrap&quot;&gt;&amp;nbsp; &amp;nbsp;3. 将 不同类型的数据流 写入不同的topic中&amp;nbsp;&lt;/div&gt;" style="text;html=1;strokeColor=none;fillColor=none;align=left;verticalAlign=middle;whiteSpace=wrap;rounded=0;dashed=1;dashPattern=1 2;labelBackgroundColor=none;fontFamily=Helvetica;fontSize=10;" vertex="1" parent="1">
          <mxGeometry x="-4464.5" y="-2703.5" width="323" height="83" as="geometry" />
        </mxCell>
        <mxCell id="sy4TEDoWgvyvnTtcRax9-64" value="&lt;font style=&quot;white-space: nowrap&quot;&gt;3个SpringBoot程序，&lt;br&gt;&lt;/font&gt;&lt;div style=&quot;white-space: nowrap&quot;&gt;分别运行在 hadoop102 103 104 上&lt;/div&gt;&lt;div style=&quot;white-space: nowrap&quot;&gt;每收到一条JSON日志信息就发送到 kafka的 ods_base_log 主题&lt;/div&gt;&lt;div style=&quot;white-space: nowrap&quot;&gt;glogger.sh脚本控制群起群关&lt;/div&gt;" style="text;html=1;strokeColor=none;fillColor=none;align=left;verticalAlign=middle;whiteSpace=wrap;rounded=0;dashed=1;dashPattern=1 2;labelBackgroundColor=none;fontFamily=Helvetica;fontSize=10;" vertex="1" parent="1">
          <mxGeometry x="-4464.5" y="-3085" width="229" height="73" as="geometry" />
        </mxCell>
        <mxCell id="sy4TEDoWgvyvnTtcRax9-65" value="kafka&amp;nbsp; &amp;nbsp; ods_base_db" style="rounded=0;whiteSpace=wrap;html=1;fillColor=#dae8fc;strokeColor=#6c8ebf;" vertex="1" parent="1">
          <mxGeometry x="-3797.5" y="-2827" width="167" height="24" as="geometry" />
        </mxCell>
        <UserObject label="kafka&amp;nbsp; &amp;nbsp; dwm_order_wide" link="https://gitee.com/hualianhou/typora/raw/master/img/20210325163447.png" id="sy4TEDoWgvyvnTtcRax9-66">
          <mxCell style="rounded=0;whiteSpace=wrap;html=1;fillColor=#dae8fc;strokeColor=#6c8ebf;" vertex="1" parent="1">
            <mxGeometry x="-3839.5" y="-2047" width="167" height="24" as="geometry" />
          </mxCell>
        </UserObject>
        <UserObject label="kafka&amp;nbsp; &amp;nbsp; dwm_payment_wide" link="https://gitee.com/hualianhou/typora/raw/master/img/20210325165131.png" id="sy4TEDoWgvyvnTtcRax9-67">
          <mxCell style="rounded=0;whiteSpace=wrap;html=1;fillColor=#dae8fc;strokeColor=#6c8ebf;" vertex="1" parent="1">
            <mxGeometry x="-3236" y="-2019.5" width="167" height="24" as="geometry" />
          </mxCell>
        </UserObject>
        <mxCell id="sy4TEDoWgvyvnTtcRax9-68" value="&lt;font face=&quot;Helvetica&quot; style=&quot;font-size: 10px; white-space: nowrap;&quot;&gt;这部分用mock.jar包&lt;/font&gt;&lt;span style=&quot;font-size: 10px; white-space: nowrap;&quot;&gt;来模拟&lt;br style=&quot;font-size: 10px;&quot;&gt;&lt;/span&gt;&lt;font face=&quot;Helvetica&quot; style=&quot;font-size: 10px; white-space: nowrap;&quot;&gt;产生数据，直接将数据写入MySQL&lt;br style=&quot;font-size: 10px;&quot;&gt;&lt;/font&gt;" style="text;html=1;strokeColor=none;fillColor=none;align=left;verticalAlign=middle;whiteSpace=wrap;rounded=0;dashed=1;dashPattern=1 2;labelBackgroundColor=none;fontFamily=Helvetica;fontSize=10;" vertex="1" parent="1">
          <mxGeometry x="-3396.5" y="-3175" width="160" height="36.5" as="geometry" />
        </mxCell>
        <mxCell id="sy4TEDoWgvyvnTtcRax9-69" value="" style="endArrow=classic;html=1;exitX=0.25;exitY=1;exitDx=0;exitDy=0;entryX=0.5;entryY=0;entryDx=0;entryDy=0;fillColor=#dae8fc;strokeColor=#6c8ebf;comic=0;" edge="1" parent="1" source="sy4TEDoWgvyvnTtcRax9-34">
          <mxGeometry width="50" height="50" relative="1" as="geometry">
            <mxPoint x="-3854.5" y="-2611" as="sourcePoint" />
            <mxPoint x="-3834" y="-2597" as="targetPoint" />
          </mxGeometry>
        </mxCell>
        <mxCell id="sy4TEDoWgvyvnTtcRax9-70" value="" style="endArrow=classic;html=1;exitX=0.75;exitY=1;exitDx=0;exitDy=0;entryX=0.5;entryY=0;entryDx=0;entryDy=0;fillColor=#fff2cc;strokeColor=#d6b656;" edge="1" parent="1" source="sy4TEDoWgvyvnTtcRax9-34" target="sy4TEDoWgvyvnTtcRax9-73">
          <mxGeometry width="50" height="50" relative="1" as="geometry">
            <mxPoint x="-4232.5" y="-2463" as="sourcePoint" />
            <mxPoint x="-3563.5" y="-2597" as="targetPoint" />
          </mxGeometry>
        </mxCell>
        <mxCell id="sy4TEDoWgvyvnTtcRax9-71" value="业务数据dwd层数据" style="text;html=1;strokeColor=none;fillColor=none;align=right;verticalAlign=middle;whiteSpace=wrap;rounded=0;fontSize=10;" vertex="1" parent="1">
          <mxGeometry x="-3979.5" y="-2621.5" width="121" height="20" as="geometry" />
        </mxCell>
        <mxCell id="sy4TEDoWgvyvnTtcRax9-72" value="业务数据dim层数据" style="text;html=1;strokeColor=none;fillColor=none;align=right;verticalAlign=middle;whiteSpace=wrap;rounded=0;fontSize=10;" vertex="1" parent="1">
          <mxGeometry x="-3748.5" y="-2638.14" width="121" height="20" as="geometry" />
        </mxCell>
        <mxCell id="sy4TEDoWgvyvnTtcRax9-73" value="" style="shape=image;verticalLabelPosition=bottom;labelBackgroundColor=#ffffff;verticalAlign=top;aspect=fixed;imageAspect=0;image=data:image/png,iVBORw0KGgoAAAANSUhEUgAAATcAAAFlCAYAAACOZK/OAAAgAElEQVR4Ae1d3bXzIK49PUwpqWIKuG8pJiVMD6klpXx1+C4MG4SQZHCcHxM9nJUcBwshbW0EBvP39/e3+J/bwDHgGJgQA+7UCZ3qHZZ32o4BD2wnd8eAY2BSDLhjJ3Ws99yevf06BsbI7T//++/yf8v/Lf/9339+3XDeficPx8CbMLCTdz5Fbtfl/u/f8q/6eyyP+225XgSdrndWlt57X67ZyETu/VqB73J7JBm0vFBXlqX/dr2n+h+35WKVv1yX+wP1hnsey/12zfcUnWh72u+P2yW2pdsOl+X2iPXdJHtebssj2B76d8od0hcymR9ipryhn2XT8BtkV/iB3ah/dTz8/UEHWh7XIIt9wl5Zv8tyvT+iLZMuj3vxr48K9Bgasc0E5FaAlIMZINoD5n8aaOn1PcYnAfPvsYjksRGA92usd4gsNmT+q9r7t0A26qrAlOyZ7dxpX8isO6XiN1yPcgtRcB2yHJH4OnzSqe/fn+Ur6EfxgGttm9a2MXLLnRwnWVausj0w7Z9V8mHZ6JzkRkFwuSyX6z31gjppIDB4wETjJDA/7sv98W/JZdZM5bE81myGgrkjkDgIWWBlgqjKlaB6kEwtZAvX2325JXLjDrXbVuu6WRbZmUAgMShlG2/KJe3cLAsdqJ8z4Tzph6SHrQPwELOr2lcgMqqHdK22e/YZcPC4l9HG5Zoy5n9LXZcig9gyy/VrDemdn9zgVIBGCMoAgD4w35ZbGDomGes991sCHgXzOOhy/Tc2tIP+RMdRgGfZCvnRANguqwUqAl4eUm/LLTbrKYvsBrbg/9M27flu61Dael2nJajvJftI10p7qX5oR+5A4X+R0GUZVJ5/1200D7mhZ696+9LwXjCHLDAO1SJg79d+4OpAozLo96JfmcuRMyNd9hZx0zr6yooB+FTnMa5DGRrel+tV7xAsu1i/deMhkQ5Itvhpi/DqNkddNN+HstZvkiy/Zvk3/DYRudng6AZzIsn7mmEFANtytwy8/o5emWaE/8jwd+2999djt60Ogq6yichKQG+TYpfclKX0lkU5zMk12Q6ynh2fkC3LLJlbePCzkn3uNCU/4Zo851bqSOWyLOobyKCkSX/3712xRrDg5LYaQwBzmOxdyeh50DWBxMguOq3WYcSRjXziYC6nryzXZdsGfXJjgPaXRb3wxXEBbuvA2p/8FUkKOlESwrUtcmNyKz9BBpV7XHs5Dn7hfyc3gdywZEAH8wjoAFo63MQ1CmTpWl89dqDWMnrLxqFp0lkk431yQ1D16jBadiRgbR04CSXfrBmX5CfpWm2fqBuVw3/vlcHv8/81v09EbhyQtdPHwEzvfRJ0IAb+2D/93wxZrGUiVU9fdLTbVsoNkQUZmvbI7ykDEL6qLOT3fNo6CFha7RHIXsKDdK22e9TJKmf9Jsnya1t+nofcnprwFsCcieQ50CGIMG/UfJKnuyhL57q2HBh+x32FKHXgd5cFKT/wtJhmnq38brmv0jf7q9VNsqGtr4SHhAPx6Xk/RsSHNUF3Ym9zgfdgO6W2/8q185PbJa4BW1fOG1nPOJgRJP3AlUBTDe8qYEoBlK79C+ud6Ir1N65zyzqi3WkeSZwEh41eRLCDRCjZX7u2Bw+4J3ZQO6cU0AmHxdPYBeLr3Jo1aprfRq6fk9yUIV6T8WQgSRO9FJwS0SBwEeS0PH7b+rTkpqdwnJANnbXMDEGn/Y45xCZrXO2otwtyw32NbQMJGrrynQ8UlJCr6psJdow0aR3i9259Nb+Vzqdu3whGUFbA5EYHIraJ2Mp/r+NxAnI7cG+pCC6AUScBFVQpmERiIOTQ/L6xt5TXt0kW3UFdgyMPlTgBI6B2yt3UF/KPzty69dXIrZDtfnILNva9pRzDr/j/ZOTGgo8EwSuM4zLd3o6B82LAyc0J8iXzHU4K5yWFWXzn5DZEbnTORZgzoXOB4hDXAX9c4LgvjrPlnLh0cnNyO2nm5uTm5GaT8lvIzZ1gO8Ht4/ZxDHwNBr5GkZNmHW4/D2bHwJdiwB3zpY5xsh+aZnAcO44bDDQXPKg8qBwDjoEZMDBGbjsn9mYwlLfBA94x8CEM7OSdT5Gb9ITswB0KYSkH2cgeUnaspq9XpI+1H6k/Nk3n06M0p2/sUCg62ctR8s6H7pX52I2hbJLnm7s75Q7pC5nMD9GGG/pp9lyvS9gJJ3k9lvC2ZfgofqaywnIetKXeOpbKizozrKB9dNkQ+Z59ZraFyfSyzH/RPhOQWwnwBhgmkOh2Kgp8eh3BFOqg1/eAi9ahkEcAqaEzAgoBJu8VFexhyOTtgmzUVQV9kpPt3CkXMvv0LTbnOmQ5PSTSBDy1f7ERdMptWu9LZZ3cRNKoMNHYeU9svOaec5IbBZ2ffpWzS04GEghBEGpZZGcCgehvOCkZriqXBEG3DtTPOCNjdycjE1Y8M4N3XnLZYE9Z91ResFnjA95BELs0Zf23p8j1/OQGACCLUAAmgxI9RgGzn36FzIlnqsVG0vvGbPvCzvGzpyyG8Mio+P/jRKDr35K2XlbWPZVXsFfp6uT2FGFVtkTsK5/zkBt69qq3L0ElgxK/EzCv4AuBHYPcT79KNnqq84Cd46ftC5RNPgmZ2iGnXxEfs2BwcoPN5/qciNy0jKMnoCjw43c//ap+h9sWIW39Tnvc3rIoh3mxniEvraf+Tn1cgvgiEqdcNsiDTrUuqfxA5oY28c9abtGzbotf77GHk9vai9dgxhDIT7/CAcx2x6EHvRyEMkFIZVFv+xS7B9x1meRj8mQyEws9/V3AA5Uj6+7kRm30Ld+d3CQwpyFY7EURYHwOSgpG6Rrup09IcY3KlK5J8tprcsC15QLoestWQzXjIQOA3Ct3RIfRstBF/tTI7TNLQTCXKOsq+87LjtllInKrsy8OBDv4rHv3k86qA4hByhiqg5lRDyXBPmfabatldJclE9899/SUgU9eVRby5U/Bx2E94eoXbnOhbJqnk3VP5QeGpU5uNS5lnz1XZh5ye2rCWwdzeCX07cGXCvQbHcGQh0Cc5EhAoOwo8HFfz3xNd1mQ8jSnXyk+FnGj+zzaTyFD4ks1WEmnoZZJROq/98eZZKvzk5ufftU91AwA6Ca3TOppwavyFBqg6pc7osNYWegifyrkRtpJOwfMu9JTyPLDh2atnWduss2fI6dnZZ6T3Hj2k/5vMh70ymJ5Ot+lAT84R+/Ft41vyfXTryiZaLYcIU1NRrxu+IJkqXkNH64J2GlwhmVIQtmYsROsmZg84sHJZwnF9sF7dZuA3A7cWypmJ0+Q29YQRPt9Y28pB9AmAZgBRQKPD4dygPNhWALpTrmb+hI9Rspyu9T/G+T2h47m31IRruSHZh9qsEWS7eT2tgW6tW9l0jwZucmN6Gmol3HbOQZ+CwNObiRLcPD/Fvjd33P728ltiNy2hh/kbRPiEHduML2XLNwX77X3+bDr5Obk9lXzJP0B6+TWb6vzEdMRbXsLuR2hqMv4TYC6393vb8aAG/zNBj9pduU4cZycDgOnU9jJYWj47f51UvpZDPxsw50knSQdA3NjYIzcdk7sOYjmBpH71/37Ugzs5J1PkZv0hOzAHQphhTnb/IwV8vwglT3DFuxX9NOvyJIZsqp/3daEXQ/MD9He2C2i7JjoIYvLdbndH8uD1vu4L7dq50GqR1zOAwzel+slxEH6XygL7FS7Hnp09DKHkN4E5FYCpdnzh0AhQC5v56DbjgDYIIteRzDx62PkHgOT1mEEp6EzggRBU9pSbECvZXsYMuv2bmxUT3JG5Y7pW2yO9qIjyXJE4uvwSd5OJtur1KeRG3xI/efkBv982+c5yY32kn761cCbPjbIK2QMIACBQKoXWLLsAsRTCEInm82y0IH6GRlS1fnodUiBhsz5cb8ueYP82uaYzRXdJXK7Lvf11VeU2EL9Tm6Srb/h2vnJDUGG7EQIymBoO6AKQP30K2RONIO1g3jbvjUJ2b6IZTMR3eKByfz/8eApPq6IDfipPjm5wSac2Gy79LRzvB21Lf1+3R7zkJvRg24HHwH+SpIhsCOg/fSrBJ6nOo8agH1Bn3xy2OlXhKCq+bVat0gWlNzIfescGy9PsFMR5FaHyuX4/0cT9UTkBhDyjCOCxg4oCtD43U+/mu30q7/lDwS9zsGGB1H35X67LpeGtEBu9zQU/beEoawcfBQ7NUHZmKvLyrK9zDN2cXJbe9saoBgC+elXM51+lYiieUdbfLjwuKOtoRw6yvAbnqxKQ9JQtsYODUYnt8+Ss5ObQG7o4eMEM4AuZ4QUzPJ33E+DA9eoTOlaHzhGgqi3bCT4pDMm+NXsZWwI1qtDsOdIWdn+hg3Xh1G3nJ2VZUDwRTgZi2Z81F+Q6+Q2bHc2fH/V/RORmw6y7SCx7gXQJWAD4MYniEFcjkLf/Ip6KAkacglARgigu2wawoVlHz339JQBiF9VFvLHP2F7+Dj9T57W1tk89YuOnZF2jutMdfDvkv3mITfMpyjZhQ00HaBliALgjwEJ9dL1Z9V3oi/K5nVkhMAk5+Ea7itLGXQdu8uClKc5/Uq3SevjltxKGdohBZmcGEs90dbjnRX86p/FlntscX5y89OvujIrgKOb3HLQpgWvJIuBLPrZL3dsqDkil+rTfg8k9BAeIFyW6/2xxA4HHZhEbmQNIFtrh6yu76Ss5wK2bZfL02xyTnJThnhNxoNsTiwPIAdwvCpzs+TiUBLWsxs6a5nZJgEYMvkOBQoUyA2B39g2ZJVPytXaI+nQU5be135HhiXvTqjbqJAbmQMs83OU9FrZot06M/K2DU5kIzaZgNwO3FsqZicICkqGnSBLwa8CXPu9eaKXMg4lKEBCKgHsJKG8W+EfI2DosVPupr6QT8hEbRspuwl8ZPnrToNCRI+hvaXAAxueSj7bXE/XiaORNnrZvGTnZOTmYNgMYAd3Brfb6rfjxcnNycDJwDEwJQac3IaAnebQxDm8MsxZJ6fFIe5v96THZlLui2PtOR82ndyc3E7aazu5ObnZhPwWcnMn2E5w+7h9HANfg4GvUeSkWYfbz4PZMfClGHDHfKljnOyHphkcx47jBgPNBQ8qDyrHgGNgBgyMkdvOib0ZDOVt8IB3DHwIAzt551PkJj0hO3CHQljiQTayh5Qdq+mtbUp6ai/pG5aMGDonIGC/onlSVtdJTlvbpJStVSOAlFbnh5dAKjKsthV7s6U1bPlN3vVh7pJQ2iboG97nFk+zotiO+06rk7L4+QvYusf0+xf2sfIdCtCVYSziBzsf+G6Qy3K93ZdH3lWxY6eM4gcdt9QG5/0+AbmVIMiAhzMBJg689X8KEkpC9DoAF+qg13sdTuUWPeMm7fA/BzLk0vuUMnhrh9g2tjXItINCALDh1qchW94yZbft5eR2vVfH+hVftB1bJmFu42oNI21P6+MakwVP3Da53RXxlfJFzz04BK5+6/Oc5EbB9dWnXyXgU31Xsgi9cXwTRQ3+BD5GGFIZBN72SU4lc5PkPNd7l8Cmb8QIrwEK2cYtvOiRk2NH2+g9CHpOBrlMktfXNl3fy/W2vjGEy/33wPmkYYP8dbmlDKrUJ/v4ktvJyAidUoUJ6MXKrm9mwZtMQHS8jGBjbvMf/f/85AbHAUxVz1ccbwdJAeixp18Vuc0QDSAX9M263m4xy6gCIbTJkAt70M8hAig2y4FOZZHv0LME+va9uCeeUfFvMYfdZFrgCHJD3T36ovNo6oXfsk90X0QZbeYN2dCD/y/b3clNtouOuXnIbSPgAewGrGuwEoCuRBB6xwim506/InIJKayZzT0OYVp9KIjpd+pEXH+wk9JpGfL9JeRGdGgOWCF1s3bHzKfYd2u4b/ttJCsd0RdlpSyJ/6b5WHmlFcXb0MlevF7Nxn4dJDgRudnOt4OEAjR+P+b0qySXz9ms/4fhRjyTE85YP5EZpIxO1RuZapKln+RUCKDM29RzQy3B9gSIbe+qTSC43rah/EDmtt02WV9kTfF+kFkqm7Mzag8uh2KnlAvD3PVBhCiDPqjSOrkiK9qS18t/9/855pzcaE+agJgBvxLMM6CyyC0eF8eHqw2ZMUKoHNg89YuBUp/k9Cpyk4O60o+QVLg+1LZ0b3MPk2m/MJM+WJH1zb5eOwmQm1w2to3jwfAxna/jetM3HQtTE60deb1OZq2Naps4ua2gY2BOWVHMaJ4BFZObAV4eKNRLT1AXnafBNQRe7cDsYPUkp0JumOPJ92R9FJnm7516ZRkoP9a2XnLbbhvql+zIf0v/i1kXL6uRm7AUJNsi2nuzbVV5Xu8en/3WPRORm0YkPUCy7n0GVINykaWJw1iahVggFfT9hjm3nW3bJIDutsEulFxhR/wG4uP/o1z45L8JPg4ZdZouuBnzkZttc3Jrn7ZXNqF+ab/PQ26Yg1JSfBtIAkCzETmYWyPqmdCYXOiozR/VWZ6mh6BvNwFoMuXr0Hc7aypD0tG2oQ51XnCgbZDV6tvaDMPVpl6QdM7qFB9v4DFgBvo0dWTsUbu3Ouq4o/f97vfzkxvei7/RU9pAUgC6guwZUGlyL4u0DioGlJRZcDlBJ6x/ouCVTnJ61bA01Jv0Wg+QoTsS2nVu/W2j7ekggAFyK/rGhzl5vnOduwzzlcjcis3Wa8i+Bta5lQxPz7htTNZ2KPKIjiIJ8vt+9/9zkpsybGt6ZPSeYnkKEk4eFBAHkJtYf5r8z09MLR34sgLoFGVI2VBlC9MO7cr8oYzAkF0ykpG2Udv3k5tkg/Uaz+StHQo5Gws6GDauyhlta7K8wbb9we+Kn3nbnOyqYewE5Gbs0zQCr+qlkYFUoAUQAXJKhvht6zMBXyC35sSlpGtFShSs/HdkrHnPYSLL5iQnmoW8KEiap7Ypq4T+XHdcx6fx+2Z2k+7tJrdQ55a+0CvstLg/qu1azY4QEzuFnArRF8xsts3JrSKroU737285GbkVYIw21Mu77RwDv4UBJ7fcS/+W4z3Q3d+zY8DJbYjc9GFmMywSh7jfHFAzt+2b7e66vYpkndyc3NK8hpPbq4LM5X6GwN9Cbu7czzjX7e52dwwMY2D4hqeeeriD3N6OAcfAmzDghn6Tob1TGJo2cFw6Lp/GwNMCPGg9aB0DjoFvxMAYue2c2PvGhrtOHpCOgZNgYCfvfIrcpCd6B+5QCDsJ2JYWrCKvdzT0tl/SN+wSMHROwMHGbfM13H761bL1Pjdxx4ewQ+E7T7+Ke5Afj3jeRlxutI0dH5rG+JyA3MqWogbI5tYcup2KkhC9jq1XoQ56/Vlyg87SJvkgm+qjlMG+RWFrVwiCaruPaQc//SqvUWQdW+5guI2rNYzUV/Br+awxWfBU+Ye8IYR2rqVjLfKyrurJab3YnL/cOcmNgstPv6rPB03ZXBU8xt7N53r5Eth++tWt8oP01pfV1uiUKIZzZ1Z3oJdwXul6nip9HX3Y75rIjpHxc76cj+zOT24Y/yM7URyOXrAKetwLcD1ui59+1Q9y2LTOTuz7cY+fflUyZpBVvx1Tp1IRpG33XyS+eciNEFR+T1cmr61X5xCwrCQZetA4hPDTr7SgwRBLGTYT25fAwj3FvlvD/UyG0hmooY7urBR19+iLsnUmFdvBfyPYYW2OpCXVh4z3vlw3DpIptqN+IPezOuXy9N7f+T4RuXHQ1U60g4QCNH73069q+7VBY9u7LR9eNZROhErZte2TWP9mGWTsfF4s/V8ydVlfZE1xLgtklsqKmRGXQ7FTbHb86VdEdjrQ23zY5KR3tlceyUCKgcRBV8AQfreDpJabAb8GoS1XDOIMrCRXCbz23WCCnowQqvqap35xLsZPvyoT8IXcah/DjtnXq49AbnLZeA/Hg+HjQ0+/SmSfyVzKCGvMo42/+umZ20pEDMwJQDEwOJhHAMTkZtLz069komhta3dKe4alIDBaF/dx+n8kc2s6sKNPvyodX1hKVEibtsO/UyKfiNw0IokOt4PEupcDfwRAg3KRpTWBEjORPkAL+nbPS420DfV0ZhA722b7bQ+5SfqiLSA+/j+1C/9N8HHIqFcfSnUVWZtto53hHWvdbJk0uH/9+zzkhnT9yael7cMIDuYCzm3wCMAngL2trwhHQNGeuQyryrqmdoGxXL+g70vIrejb85QPgVy1h5L4Lr+NkJulb2szDFebDgUknbM6xccbeAy+g02aOjJGAtagWzjEu15uIvt/BJ9zlz0/ueEsgY2e0gaSAtAVZABXIaF+UGly/fSrYkPNRjHwbL+NkVtZHH2S06/WOdXQ0W0PcYs95yaskXaek9xoj0++NxkEek9SpmQOlKysADuA3MT6Y3ZWdLZ0wEEjGJJAJyXDW4/aIws/TTv0ZoRK0BiyS0Yy0ra6nl5yK35lNuEZ4YlOv0L2qLZt166Z2r4jZHG2shOQm7HXzgi8en2VFXwgEkqGvQBJcgVy89OviA2TnwrRl98OJ7eQjTdPmdlpXXlY+NnTr5zcCg72EOvJyO25xu4xkN/jNncMnBMDTm65lz6nAz3w3G+OARkDTm5D5KYPM5t5kfw0TTb89wFy5radxQeu55Fx4eTm5JZevujkdmRguazPE/VbyM0d/XlHuw/cB46BLgx0FfLXMQ9lhW5TDz7HwBdgwJ3wBU7wzsM7D8fA8RhwcnNycww4BqbEwFijdk7sea90fK/kNnWb/gwGdvLOp8hNeqJ34A6FsJOAbdfBCvl6R0Nv+yV9415B+bSlIjevTreWlPjpV/lNvM1SnLQrRNr1IO1QkP0xsEOB70J5CPtBsWOGYSxmgNgJgy12EQvhpZd3dvrV/XatzmvwDLLEDbXFBORW9hI2QAaYOPDW/+l2KkpC9DoAF+qg12VjUsPG71Ru0bMEYg3kcj+9TymDt1OIbfPTr2BjCRMPxWa8Y8sdDC9fdTjUV62P6/oLnsq+20RieLsuIb7SsbZy/S282zF4TnKj4PLTr+pe3E+/MoZdhYj4aV1rhnS7lnvRMdK36Qbbrq+pKoe75DeNUEyG1xnhft4polOqykOvugONp19dl8uFBHJ+UwjrwHy4XXyXbHF+coNTASbS85VMaOvdWQlcfvpVAxBqQ/4dmUWdnZBAhG/IJ+7x068KQSJD7LVjtqF2aA6xN/fZL/0/D7n56Vc6MSXi7w2evgDAEEsZNosBhntChkK/64S4GcjdbUN9PfqibJ1JRbvw30rHyF90GklLqo9kaqOnX+XMTZKr27HPp3PdPxG5cdDVjrKDhAI0fvfTr2r7tcFh27st76dfUZsAj5gb5HNwVtl/j/tyo0NVsSPZ8t/8vzu5rcCg5IYXQ+LJ6Y4gzmBDDy1MCIcXSt7bp14AfQY75mik4XbzXrJYT/M6agzZ+cR4+j/XlfXuAX5tMxqM2vehtiVdmnu4jt1tk/XFkDCSDDI1uWxsF8eD4WM6X8f1zpkrcKbbHDYAETq56bai2HNyW0HHwJwCJgY9B3OfYaORmdwMcD/9SiaK1rYIbJWAh4elIDBaF/dx+r+a9Ed5XlYjN2EpSPZ/lLXZNlZ+tZkPS/XpF2avichNI5IeIFn3cjAD5D2fg3KRpT2VYQn6dhNAT5tQBvV0zv3sbNsmAXS3zdIXv4H4+P9oc/jkvwk+DgS0+tC2zWbbWLDmrAS2lLJ57Z4fvD4PuSWQ87VKAIQNJAGgGQwczBToW9/H5ELHPPzgJNcFZkHfbgLYak/9O/TteVCBsqNtw33PZ27liXmrb2szDFebekEsOatTfLyBx4DLzbZlDNZ2/4MOXXhg92oyJ7x+fnLz069Imh5X1NfzR6MnRI0EAzKUsKyBzh+GYfd9uZGlCptPDjNZ1PVvEsAQcUPfM5x+dVlu9zi0rZ7C5mFpWUqCDtw/a+yck9x4RpP+b3pk9J5ieQxBgkGU3nftzdpevR9ECCb5gUIgoaKzpQMecmCYA5165BZyG82autpp2LhkPSNtqwHaS27dbTvN6VcbPg4PKybMtrow19nuCcjtwL2lYvYAkO0Bk05ufvoVITEj+zqc3EJgNE+Zv/P0qz+MStKuiEjgAe80SyZ27Az6Iwnkm2WdjNzckd8MJtfN8flNGHBy896OzNl5cH5TcLouz+HRyW2I3PRhZjPnIw5xn3PWa8E+c9u+2e6u26tw7eTm5JYyNye3VwWZy/0Mgb+F3Ny5n3Gu293t7hgYxsDwDT6vM5Qhun09KB0DH8KAG/5DhvdOwjsJx8BrMeDk5uTmGHAMTImBsUbtnNjzHuq1PZTb1+07NQZ28s6nyE16onfgDoWwTYttRsYK+WMPiDF0TgGHjdvmQSAfPf3qVb4g2OreSUDuccKamrBGsuUJyK3sryz7NBPYjX2PNVnRQKXbrLD1KtRBr/cGE5Vb9Cxr4rBXlMuj9yll8GYIcd8sOzzEtAPd38r1sP6nOrZt2++LVKehc9mzaunnv40QwYxlz0ludIGsn371odOvErkd7otASoU4t942MmNQepuO6ZjOT24YhqCnZ8NKAAXDS7nXL4F6u5eh6XrP/ZaOc3sic6MEAH2ReQn6Zl1vt2U9Y7O5v+hbvQ4Hsvlnsk2TTfFyQ/8bOjzli/Kes2P1PSZggCf//H57zkNu6O0bIohOyIRB3jFWAEoCdQ3MQGRxSHq/Ymh6JLmF967FoVxLtrQ++p2CCdcfy+162Z5jeTe5PeUL0jY/BGXbt0MdEsXQ/N8nIjcEhUxC3eSWAtNPv9oCP+kQmgB7xhf2vaVD2tLPf/91Wzm5rYFZByqyqvjk9JlgS3KVSX/pvVwNCRvD1/a9ZDEb/PzpV7bNmjZW5Fj74tcD1Nu/v5NychPI7S8N4+KQ0Q5UG3xaoM5w+pXWtgBG22Y2udn32vbeHwgudz7bTURuVrCVSep2jis41br3mWAblIssTcn0ZN05KAV9fc7N566q7JhjZs7/5yG3FMB8ES56ZDtbGCShbqCMyYWOZR0cWz8mPFlF+5xI6msAACAASURBVMrnF5DbU74oHZE/LZ2TdApWX9u+85Mb3jO/ZjvKgtfNY9TGSKjfOZrcy3IBAZDFwf0nRAUCS+/9r54ovvP0K6Fth/giAD7JXg/QoecFtKdq9fvitYHkenyffc9JbsqwrenpM4GwDGi9nz5VFQI1Z2dCJpR/23JoCVItGys6Wzp84+lXdttKu5KNun2xXb5veL7lG/99dkKegNyMfZrdAWURy2vI7fynX0nkdoQvCOn43lKfK+xOJAhu0j0nI7e2AbP3Pt4+97ljYB8GnNye6BkcdPtA53Zzu70DA05uQ+QmDcWk+bx/i/mqoqE63xUIM7ftXTb0et5BWr11OLkNEc3MBDBz25x0eglhpnJvIbeZDOZtcaJwDEyNgakb50+ohrJZx4KT3VQYmKoxTmZOZo4BxwAw4OTmvbVjwDEwJQbGGrVzYg9M6p/eqzoGHAPDGNjJO58iN+mJ3hGr4olctjm9bGan27V620/kVlvGDJ0TiPM75ZQ3C69Zw0dPv/pb8GoovrWs2X1B9opWZcP+WPVNwnGf7Pqa9WS79v132D2i7CnGW1Zgw9EdK6FehgfzdU49OypMHfYe1tOLx98qNwG5lXVm+/czUhKiJIbgCXXQ670goXKLniXAlaCsyEApg8CtSLPUUe2/fFVAbcgtOth2aPz2h720pT3ZZiCq1Amg8yl1Ed8k/bJ8U1/qX6ovtz8wQcvrRB/0rnQzdXByO3Kof05yowD3068+dPpVCehMHivhkBdxZj8lssj/RwKS3oyyghsE8LgvV7z1JGSpj0h2VX0g+SbDAkFyckp13x5LQzx56Ad9H+sBPVV94os4CxluntbFCTfXSUjZrw0PQSVSPD+5AQgICAHkoeFmD49M6XFb/PSrgSBTA5VnNyCLW03EOUOrCQhD8irjCX4GkVUkyeuC/nqdI3i4riRIs7S2PmCrJkHowT5Vm7FywLV/7ia6eciNEJR03B0A2ATMCh4SCCv4ApgjiP30KyPo1EDlBEDsy4K1fYcdv5fWL/8mkmHSrZ0zi/K68ZAItRAX1wH/1wQtZRLrNdVmtJ3+XbUfw49VbiJyA8hoL1tA0g3mRJJ++lWxnQogMVBHhqXSuazJj1V2Bl0UHwt62P7uz+RDR7mSZ9aH68D/h67KJ0i3Z650IJBVH/2wDCe31fl1ZoFMwE+/UgIUAdMdqMm+UkDTeTXBF3XQakRS+898opl0t8mPyUvZW8z6uQ6sLGyjfXbbbMP2mny/noexTm4rGBhAEwBlMI+AjsnNwCPZTTVHiMChQxxckzPSHPzrg5Xbck+T7tVwLLWnDK1G2mCUVQK1eynIP2kpSGpvzpRo/botquEt5uYq21I5Y5lbJstVJ64D/7+uJ/sHvn+VLyDfP2ckN41IItiGeuoKIIPgre61dBLkIiilDIcvKajqoQElyH1VQHXLFewQ1oSt7aREHtoh6J/bavxGdLF9vRMPq/ygK9cB//N2UJ+Q70TPhvhyO0l5v5bJatRe82RuCTRVxkKAYQNeCL58L8C7kTnl8hSYY3KhY17TxUnOyESK4wV9XxVQ3XIVOyg+w7RA8/AH5C9ldeS3uGTEJhvYuqlj9aOkb7Lr/ZaWpBQ8QFZXZtxtM4oj/17w3W+L85PbIScuSWCGEQWyEIkM5emnJneG06+0dW60/fiu2wFr1yqSAemFhdNb69yyL+CntPBXIsBcdnRYGtsBEoudTyG3odO6nNx2Z2KjBHdOcuMZTfq/6TlzkAgr3asdB1rwBVAjaCiYEbRbn0muom8IkqKzpQNfkAqdpHYJC11NO0hbjLbalX7vDlSjbSTjKkt4jPYZpEXJp9iVtMW0A/Wvpi/1Jy1fiF7KumXiVnzXlZ2TNhHCHg3+2ctPQG7GPs2nwRxAhEBjYO4CFQ2GGszNpPsWUfDfkbHiAQII/nFfbny/pmmHD5Mbllo0c4o9e0tZkIMo/ylDUtMO1L8auZWMT9yOd8DeUm1aZXYiekX7TkZuDMxdBOP3vAI4LtNx9e0YcHJzgnzbHMi3B4PrNxdhO7kNkZs+zGzmWoy5oe8MopnbNlfQfid+vs/GTm5Obilzc3Jz0vg+gnrGJ28ht2cU9HvnApz70/355RhwB325g3webSgjdzw7njMG8hcPIg8ix4BjYCYMOLl5T+cYcAxMiYGxRu2c2JupN/C2eHbjGHgzBnbyzqfITXqid+AOhbDKn21/KVt66Ar23vZL+oadCobOCQDYPP7PWlLy0dOvlLZpJ1qZuwPoNjRiW2HF/+N+K/tNg61MuZLPenY+kLYxPDy3Y4W07c2B/otZ5gTkVrY1NfsJu4FPwFztOcXWq1CHFChbYKVyi55lTZyyTQivTF+3VCll8lYjSe47Tlyy2zbmC4Hcrvf1cJZiK9JOSjjdPo6+yp0G3+9bdSK0bdz+wMQePGzhxX8/koTPSW4UiH76VX3oSsrmpM3aDeE8lT0kAqC+CAfxZLJhwZ+u9+lQyIWfJnW53pb77SoO8ZBlV22nbYRu9O2/4qlaaFvv6VdOSkeS0lGyzk9uAC+AS3t1/OanX63H2PURS2+gggD6TrTC8LFHB5BUT1kaCLhPIzdkbc3vyIIzUZe29Zx+RXXw7734eX25ecgNQ7kM0Np4NvALmGPmEbKOOPzw069qO5bgJTYjnUj4PZIIG851Z24Y9rH7WR1Fj6Kf7WPIZRnlKpf/RtqWiK8QLS9b6pd08mufs89E5GaDzgY+AbOffiUO+dogpTYrAA7DxkeYz+KdDDJrPteV/i/ZlOxHZF1xDk4iqPI6oiKr6JUfBHC9tsgNZJ3vk/Vr7UPr9u+fsI+T2wruOlBzIK1D3GfAnOQqAf24X+v5Mmn4jCGTNNxunibGSffwRLG8+HHriSJ7+NCRIUWgGm2jc1qQ101utS8QFNknqy33kJssN8rnPmZlkw8iafKyTlzw0bd9OrkJ5Ib5oefBzIIEgf43w+lXqW0NcUsnWhWCLcM7jRQs8rB+e13mVmd9tg7fFuC/rM9E5KYRSQyi/mEpD7pnwGzpJMhFltYQRszI5OFWh77d811clvW/0Db1RKs95CbNuQk2yx1GJ7mJS3q4XKFtqw2DTrysZSP/7ZPkOg+5YdgjDd+k4R4JinzAR55XoaB8BsxCkOR6W7kgYHFtVyA8pW01gFq5yES3syba7q3vSts0PwwQLOzQ6iu0Ldtzi9zwoEMYhqNTyf6X2pbqFk6/qu2/ZTf//V32Oj+54SyBNduRevsIJgSMnP1IYAYI7YCyHaXJneH0K71t1olWLWHBzvQzyQ6HNt8uZf5wnWMMWeyeObeSPa73m6dqyW0DhqyHGjYeaBv9+6ttdU5yU4ZtTeAgixDL0wCRwRyNfwC5ifWnyf/bJT2dtHRA1gHyhk5RhpTpVbYw7dCbEfJgNPRtMiFKLIrOPCu1dijkDGtLLvVx0N+wG5WpLitKbV79yWVz+/j/ryavLfkTkJuxT9MMagpOI1BzQNDyvcClwVAH9flPv7JsBjImQ0DTFwrBNk+DQybHnjCbciWfDewtrQgv+rxkb5LsXlx4uS1iOuL3k5Gbg+IIp7sMx9EvYMDJjUxI/4LDvY1ObL+CASe3IXLTh5nNvJcwpPluUM3cNie078bea/zj5ObkVj/QMB5+ZAI/HXG/Jnh+kTDO1Oa3kNuZDOK6OhE4Bn4aAz/d+M6N5W4jJwnHwAkx4E47odOclIemIBzjP4pxd/yPOt4J0glydgyMkdvOib3Zjejtc6JwDLwQAzt551PkJi1XOHCHQnhSyLYBPbciXdI37FQwdE7Ozu8vs55MfvD0q2KXeudFfqKanrrGbWCKHbSTsgjgbTtIcg3bmrsZ6CE1RO4gHsb1DS/2lF4TlbaKif6Hfvf6JDBiNx9Z/C0TkFsJrmo/ZXC0CWa6fQZgCbLodboXkV7vJXcqt+hZCAB7Rbk8ep9SBvs3laUb1QsCTDvQoOZ66P8fQm4VAUp1bdmB/t7adwwP1A5ULvX7Fh7ofZLf6O9b+mrkBhmSfMmGv3vtnORGezM//aq8NSMQ+ttOv6qDBmRXkWrOJFJAUr9ZJ2XhPkbKDVlJG9wtPCR5rZy6LeUVWPfl/iD7Y9cO5bE8HrwTTPfv0Ve1g0Ru11WfkPnf8FYT2Mo/myH++ckNTgWw2DAC6Xlv8N3uZWi63vPU+7vkoF51QuYl6Jt1vSnnEUhBDTtIn91BzYO8//+s81W6R7dDHMbJwZpl7rGDhIduOxR9R/DwjL6tHTi5IWuUbQWc+2fB3zzkthHwGXhbwbcGQBiKRDD56VcFLFbgdNuXkW8b1KgPwVx8UU8ZhHKFhKozI9Y6hN92kFv/aWjP6dvaIclbs13IdmKzMMh/m4jcAAA6R4JA2XpLKw2E+P2+ZgtWYBXZ3Kjl/yRXnBeLL2IsZZM8ltGppIHMZJUdJtHv8XVA0nClKtvO9chDyZ72lTKqnhrRrMMxLTMNw+v0W8psZfnUb0WXaFMBD912oHI78fCEvvKJYSC3ODQO87ThQKEGL6yz8N8LDpzchOCLvSiGp0KQdAPKIrcIVp5xNEHMgqYCb/O+s0hc7zn9qoAo6NToXdnIsIN0UpYkT7QDJaFan/JiStLZ7SK38m66+CRdxkPTfktfqbNr7IB6gk/jyfc+18Z9bP/v5CaQG56yxowGICNBUgWuZWAt+GY4/apudxPclY00cpOWQAS5sDkdhuEa9YNmXyqDlE/k1v9AIR2RmO7T8QDdOvVtyE2yQ5G51puJmbSnsnHtj6oT/NFyE5GbBfTOzII9zYsAAcj2gMrSSZCL3r4Bf8zI+oaPgtzuoN4fIF3kRu1rnZTVbQfLvsJv3XYQ7s0EIdj3GX1VO6R6iM3qEcV+X/0K8c1DbujZlHmJ4eCzwJx/2wLYWJBAx7IOjs2PKW2rwSoEX3dQb7VH/x26ywSs2EHxGWRt20GRG/wjye62gyE3Z5Wls3taX0lX1EPIrWS0ZHlKNxZ139X4mafc+cnNT78ik8zxfIBICiX4EOjbw7H9wEaAD5EbAvhfHaztk0PoxUmH/x8eRIQh/315pAct1XqwF5HbU/qu5IQOidqhzdxWEspZIvGvExyJAWDFdygkowhBkgED4O0BU5KrDDPXJ2CnPf2qgCgE3T5yI09Fc4Zi+QKT+5jbsu3bkDkyJM0fOTO2dOB4sMoq+ua2EhuCtPJvCrkRW/OtgrNmYHvbdc7MrQLn3r2ElKwsgHIwE0BmAtSu6cF3/tOv6jbvJrc/EEDKWrayq+p3yb578YCn46FdA3io9KltsgZl9bsll9kBWW0mOyobmKSZHv3dvwfbn4zc3Gl7ezG/z7HzaxhwctvMvjwofi0ovL1zYN7JbYjcpGEQe6KJIbM4nPhm0Mzctm+2u+v2qs7Eyc3JrX6oAnK2Pk9H3E4gryKQb5b7FnL7ZgO4bh74jgHHAMGAG4MYQ1xj4787RhwDp8TAKZV2EhoagruPnZx+EgM/2WgnRydHx8D8GBgjt50Tew6k+YHkPnYfvwwDO3nnU+QmLVfYuyJd2KEQnhDmLTixjVh5374FdswG4WyD++OxlM3g4WWV1/r8gxXocX9o3BsZl5mElxTW733TV7pD32qPZ1olX+pOch/35Xa9COAa0EGwWdngTW08YC9F32bPLHYSdOtQVvZzW6z/N0+Be+ww0C4nMgFrr7PfBORW1pmN7SWkgUdJk16nwUCvDzrECNaKhMhWpCb4qsA7htxQx1M6rEtGsNcTdoHddtrMsFfdyVC/9egAvQpmYAOJ3PIrhtY2knsqX6DN/vltc5TnJDcKLuu0I9JTihlN/h1kMXjaUb7fAnYJwEeVqcW3V9zomQ4IavpW1nCa1XraknD0HLVD0kVsZ5Jbkz95YSaVM6xDfEsslx113kluxK5ie/Lv8FuvDiC3Dr267WD53n/7JOGdn9wAdICRDSth3L4guS0jpx1BtvWJeuvgl0GPTIFnUvk8gUxCCOr0pljYgLwxopIhklvQoQ32PTpcb2G4TQmjlWvZyPoN9qvak9tb7NCnQ79e/XaQfWm1yX97j83mITfMv2QCqA3YGyT9px3V8mXAIpj4kEm6F2UpSaAc/60EdT0Xp7x6qJvceD2oP3zy34gO6XU9hcB5WSpn7Hu337p06NXLKmf9NtY2GTMu4yi7TERuNui6gySR5DGnX9k61U5MZUVy5nIIseQsJgaF2E6R3KRh6X4d1kwn68713R+wYntym2s7bOsAvcj8GZlPK9nhiB32t632v8s52h5ObmugCEGSn8AhIKSMaguQtVzbeVZZroNeViQDDNlJINOJ9BLUulwzcws2TJlTlMX13bKT/rvYHoXctnWAXlvkNmIHXXfb337fq+3j5CaQG17L/XygIph6iDGVzdkPBT+XowefSAYKuTUvzMTQc5cOVH+uL23L2HexPRq5VfpLOkjXJH1oW/jvvTL4ff7/q8mMy5+I3PSAD40eCxIKxGfAjHu/dc6NtjN8h74SGfPfBHuvJBraysvyevr/H/abqUOvXlY567f+dvFA9P+Pt9085Ibs5MmnpXyC3g74bYcgOMtku35P/xM6PcBifYxMk22O1UEgN5Dj/ZaWr0gkqbdfCnDYrwyd6f2jOuh243X3+4Lq49+5HT/5//nJzTrtKA9fPpW5BbCnAPwX1qnRnQbGOrewrOKSAkVc51bet09lXq63dOoTI5UBcsOQfF3aYeogEUuxc5zTY3oQf/SCfpzcLB36ya3fDk5ovb58d7lzkpsyMd5kJsjmxPI08ORAjc4YCAgteA096owEdQkT3nweDKclCW3T7NBcF/Xt1UGzWSHzeu3bAAkY9qpljuqAtlHfa3qhbIcvRDtqcv36u0huAnI7cG8pJ5AVtAB5T0AYwD10b2mqR5Ip7RUdydxSm6/3uOofT1X37G+ticiwDSeHp8mNZm/Ub6O+9L2l7yKiV9RzMnIbCBAeMP7/WzctvwKsLtPxP4IBJzcnPSc9x8CUGHByGwI2nU8S5mLo/Jc4xP3FntdtNpJteNnjYsTJzcntxb22k5sT1nGENWLLt5DbiEJe9jNAcLu73R0DKwYcCA4Ex4BjYEoMTNmoFw/P3GZOBo6BE2DAnXQCJzlZD82nOqYd0ysGxoCwc2LPg9OD0zHgGNiNgZ288ylyk568HbhDISzlYBvvsbdx92p7gFPaTVDtNYVNe1bFJzsIy02gb7WtS1nx377yaIcOgs2ee9mA5ON/y7/HY7lLuy9gX3q4jmAXuseX+9jUV/Db434re39D/Yp98+6Om3TCGGztn6/KGCcgt7LerNk7aYKObsuhAUWvY7tOqINeHwSkoUdFQjRA6Zq58L0K2GPIDcH3lA6rnuwtJHg7yC6bUV8U30LXxseZ3Oh9XJ/gL+t3+Jn5+HpPLyJo9agI0vBv0FvXeRBHua1+Xw8hnpPcaKD76VdV2m5lbnWQSa8ZJ1lI9wlcvSdP9QakTNzxbAujk2EEU7eVkNujV99ChvTNKyHLC29fCWfO5gBLdbd19rbZy2VbHkjg5yc3GAPgZsNKGE0MetyLXv3hp1/1v8eskFDfyVO9AVzk8nfrRd2krKxslI9nX/BMl5LbbenRF3jpIiwnt0L0OaZ6/f26cvOQGyEoHhSB4ABWPgSL5EcCagVqGJ7EoUqY59l/BifulQMSxBs/UZYNjVaw8N+IvgxMYjvV4ONy+f8UePw3okPXyVNUlvWdyGVt08mN6ka/03qI3E19IaPHbyXb7SJC1qYaA1Rf//6sbSYiNwBSIocBcksk6adf8eDi9iVkgbnCPF3Ay3JZ1v+1XAA8v4gz10Fk4N12KWsXCZ51fitRZllcX/5/rAtZbZz/IzjDqIHPk6b/5Q6V6O+E95LMz8ltBVYdUBnEa7DIQEfQ2Z+13P1luQ66XDGwu4NPl9s+UWRlE8HEQOb6jgRykisRBZ0HJITQtJmRXbT7iL6sbKor42LVzcnNxvOIz19T1slNIDc82n8+UEeCPJXN2QR1OJcjB18AWxPooX0KubVLQZ7Rgd7L9aVt2fqukZu2FAR10SEkrhECYplbJuvV3rw8/5/qLPymDvvpff793WQ4EbnpAa8Gfe79rXsFMOf7tgCLe2ngafegLA1IlOW/6fpa5LY9J8TrQf3hk/8m6LAGeWgrL0vlbH0X5Ia1Zmu2JNgRWZqU6f37t5QhoSBX1Rf6C/U1diidx7Z9t9ruvx9JgPOQG7KTJ5+Wtg8jAHSJdLbBCLLpAT6GPSUgk3wEcM7qdJ1ifSwoBzKLfh0EskDgP3X6lSS3EEi1voxkqlgH13xmPEhykx0FfXW/CbYfsO+Rweuy7Pg7P7n56VcLCDlPuvPFsyPBh05i8wQuiSzKsLiZdO/OdmW5JXOk2RhOAWNkvtbF5fD/Y2CAxFp9U/l/j+V+u2Qb/607Fth6uxH7dtvBDlwntm37nJPclCFIkx3lQBVWmFcEIAM/AkjoqUcBauhRZ2moS9A3Z23JqcjmBFtodmiui+3o1UGzGUiBEYBYlwRQTe7f8oc2Z1sYZfEE9x+ITytr6GvtUMg6kKxS8MVKmjl7lNrr115F1BOQ24F7SylgczAi2PcNS7PjhD2KYZU7sq5c7q9nbykI7rrcH4+lDMWUSffhzKJHB40saPa2x2a63GCjati81a7qd11uyd4EfXv8ZnReTm6fI++TkdvnDFXIx3VwWzgGzoABJ7ecoTlgzwBY19Fx2osBJ7chcqPzM8K8GJ1zEYe4vwhMt1lvMHq5Y+PDyc3J7SVbX0qgOrkVWxwbvC7XtudbyM2dYDvB7eP2cQx8DQa+RpEXZx3eTg86x8CPYcAd/mMO905kaPrC4+PE8eHOO7HznKicqBwDOgbGyG3nxJ47QHeA28Zt4xjYwMBO3vkUuUlP3g7coRCWcrCtMubq9Q3jxuwOOxyUpSN0yYi50p2unid2YPqWPZi0fPEXVvjXB87g951yn17FL+sa7GfrG/ROOjd2QJue+Lxcl9s9nrmAXSBjr4mCPe/ptKz0P/V5whBwVm/H26F7jy/WOnt2oaT6O+wA/WEn7bNvC+COdguxOAG5FdJoDLeHLKo9p5SY9AC0h6hURtE1O58CfZe+2DsJQKA+SV8EW9CD3xfut35X5Bo6V4FqlNNPFrP0QXtTmaPJDftY6dpF8r20LdmF+nENNOhO7ZyuNWXLlrUiF+0b+DRszOXmToO0acUk163TDk5u//vPk6m0AI6vP/1KIQWhp6EkCbBwUMYysEPvSU4pQBj4m84A5HbACVHX2325XeXAtNtG7tnUN5RNtjiY3BD8jzvb/5uymOIXidzCnl+pA4Hfbs2e4m6bqLhJstejBKnO4ZQz5gvYlb7ZOLRr1bk+irDfDsRv5FVUxU717xTrr/p+zsyN9y7B4XCYAnIbPAV0t3sZmq73CO/6GnPGK8mt7yQn6JttcLvF8zgbOxY7HH5CFAnKrIdCfv36vorcih3aFxvwIOXkBn/TjA336HJ7bQLb8E/c33ZYqLt8grAa4kGWlnGh68vr5/9Dn6YOggN+z9H/z0Nu6MGzY4ozg9FsYxMnriQZhnQRpM+dfhV0ANilYWKtI3Vut74JkAXUWn30Ov1OdSB22JQLGVIQU5ntd7ttKA/5xRfy8DXprHRq1Kb931H3Y7ltnHKf/bvijtx3QTvoJ7EvC/I+m1BZ9PtWvVJZCY+Qg9/wf48daB1b8VaX7ffL2H0TkRscAcfUhrDBQ0EXvx9z+lXQAXoJ823Va7D36psm3TOpoz5mB/TKiQRke1A7bMlV6mFBKwFXrrtuf353m6lvuCfpfCi5kZHAOicVHlrd14OYLw1pJTs87mko+m8JQ1mp3VnX7KvS5i6bqLYd8QX0bYfGBasEOxgRbdqhtCW0/bn21LJkW26XcXJbASMEdXDmCtIR4EgGx/2vIzcQQRwCoD4CUAlsjOwigGo72HJZWTXwWpv0AL8pI+obZL+I3EJ7mieP0YePOyUG2DvOsT0SCdwaEiS6Hk5uI76wyqItNXb67FD7ufHfAD72khm/z8lNIDfM31lkwQ2p/68AZsPZNjg4QFMd1dCIAhQ60CEkrtFyI3Kl+2uAazax2xZkQPaWvoQw1GypTydN13x9fXB1y9lZWTJUdF3xkjMdalfowO2L689mOtBBqrPUEduSygoEW+xuyFHtUNez7eO6fLbzRlyMlJuI3HTgBIPYxrbuHQGO5LB99w/ruwZVIAOhPmQ9a1bRZpBl0lewgyoX9VACktrfXrPbRl4nvqlvkJ10fjW55aBDu0EA6X9CFpiwLwQIGwj2TXI3bZLrhyz6CZ16fIGy0F+SI/1Gy4XvlpyteOOyXvP/POSGHlMBuQ0eHXRbTtzuSWwQaPeP65vqEZ7uQlZeW8dJI9tMssO23PIwow+k0KeQan0fft/WN9z3feRWMFMfZlOut+QR29xDTrWtgB/YrMcXIN/G/ugECVFDfvtp4xr6NHWYJC23ra27r9z5ye3rT7+yQaA5zgaHREKlt4ykUAIoglkKHC6H/x9BBF243EwsPWurCKghTwN+v75Bv1eQW/BZOPXqutQPEOKq/toOyb+cEEAU1aLwsuPiQc7PUE8tIzbTcFKuJzv0+AKJwOYJZyN2qAlny8dF7/q+I6+fk9x45pH+b3qt7MR2KFYvK5CDOhp6HzkVJw3c/7S+BeClfVbbEGwgPq2sJDeB0tC5Ii+jXNGVkBUnixToLfFR3bb83BtI8JkkL14rWEtlBX0R4NXwNJNeK7vI7NWTlTNsXPkiDylbHepteSN2qHVB2+t66zIlRl5zfQJyO3BvqQBQayjR5xwApGRS6n0GOHsJAKDK5ZNMNXCq3zVyo1mh0I7mqWLKemjm0du2Sh8B9M3vryC3MO8XV/Y/0qp9DJHH9pbC92x4Ktlrcz2dYAtqX3yXZJMssWCvc29ptx1q/YBDUMY0/QAADG1JREFUJzc4xj+V9VE1cApA/brbwjGgYeBkmZs7UnOkX3dsOAZqDDi5DWWLW0MgMochDnFr4zsY32WPs/ntbPq+y49j9Ti5Obn9wFD4bGRxNn3HSOddnfpbyO1djfF6vhNk7hf3y4kw4M46kbN+IDNzPDoeD8PAYYI88IaGxW53D2LHwIsx4AZ+sYGd9J30HQOfwcAYue2c2HPnfsa5bne3+xQY2Mk7nyI36SnSgTsUwjauvIk8thErrfOK/z3A7zg9KO+EEJeQoN1vOEWpdycB9nQKNsttqfZVltX6WO1ffTbt7lxBv8cffs8U5LU1epqA3MrasmaL0Z5AVQNS2HbUEyTGXsIQ3GV7Sgr+JshBbNj/GUg3XWvKlm1SRe5YR4R32VXEk/fyUhtAr2B/qluoD0RGy+Na8VdVB2sL3lxRlQl6sHJbAPffB/3fg+mTlDknuVGAf/npVwjS85yiVIIBWatMlCDY3hO4QG6U8EpdFQmhU+o4nam67yRB5zorfj/Yf+cnNxgEAcGGlQBSX6DelmNPvwIB0NdSa47lmRvIgGdF4X5drt1OrW75ui2r6NBzUpaczcn1okNoSBVZMO3c4H///ImhJuK553MecjMCPhiiN1AvK0mG7CKSy3OnXxGC2nzrAyU3ct9b38Vfk023zRLplGkB6E+zNOlaXV8ErFXO+k2S5dd6SGDWMhORmw387kBNJHnY6VfIKNd5q28/Rakmg36bbZ2UFeTCP/KcW8nSUjkxO4MMSpq1zrMGqrdr3M9ObutwpgyxwiG8GBbFJ6cHBFTzjq0Y4N93ilINoBFys0/KGiG32hd1UB/gCx++/szw1clNIDc8MYzZxMEBpZ4ehHoe8QlqzvikLEUnAJuQavKqiaP9zZbFdUj6rxkX2kJ1l661deYMzzO3nyGhLRzu/X0icuPBVgfOWKDSe3uDkt7T853LTf+ToK4zSCpTb6vdTipj+7stS9BhJeTwAIS3LdQlXZN0sMpZv0my/NpeYpjhvnnIDZnOk09Lw7C0duyrAorLTf8TciuEQNfDBf34vUXnSEjSE9ZSpm6ffn2Y3KCXcAKXpTPXB6Re5uGSjv60lGFT9x236S/+f35ywzve04S9fNL3wNPSQ8ktkNDZTlEqATNObsXOcfHtnmHp34JpgXVXCJ4Wh10e6TyD8lS26PqLwetttv1/TnLLK+brJ28N6JHNieVp4AlDrExyepa0DS7cW+tJV90XnVPZKnOLzgPJVFvDkMUIbSsybeeL+j9ts2TLVS9qY9iCXtP0Q1nBboJ9xHZk/2l1+PXZ7TYBuR24t1QMHARaT1AKAYPM8iynKD1NbjR7ozYbtaPvLZ2dfF7dvpORm0Ae3kP7PIxjwDEgYMDJTTDKq3sUl++dlGPg9RhwchsiNzqfJMwH0fkvcYj7eofWQXM2fd9tH6+vxstc9nByc3Jb1gccX0HGcwXXzMRxhra9hdzOYAjX0YnFMeAY+HMQOAgcA46BSTHgjp3Usf7UbWiawuNgwjhwp07oVCc2JzbHwGhg75zYc0N7sDkGHAO7MbCTd8Yyt52VCI2SljYcuEMhLOVgG+/z1qfq4Jix9v91nX5F91TWy0wej/tyq97km+wgPOGEvs2m894gGd2hINhM3iSPHQp12/JWtKYtvkNhNInw8nVc7uSdWsiWUXdW0kluJViaPZV7ArUiMRqQdCvRQPuNPaAhsCsSMvWlZb+M3Pz0KwGrAxjp7Xi83JCdd/LOmON2ViI0RAjqaU6/KplbTdKXJR7AQo+1E+yQgP905kYCyJYFHfz0q63O3X8f44uj7LWTd8aU3VlJH7khGJH1sGElDNUXqJ88/Uojt2BrZJDIHkEs7aladjvH/GbLKjr46VdjdgUm/fO1dtvJO2NK7axkjNxOf/rVecnt4qdfCVgdixEnuuPttZN3xhTZWYkAmJItjL4xtzcLuXzs9CuN3L59WBqzx/XtufmhAM80A15wrcyR5ocJ1dxjKpdlUaxBBjJY+pt/d4KsMbCTd2ohW0bdWcmHyO1Tp18VcqNBT7+Xhw86ydskPuY3WxbTIWVvUUeJhHBti9yYXEw7rJ+Q4eS2FXP++9+yk3fGgmRnJR8jN7zmWg/UsfZXQFNPv9LJ7a1LQQiZDJEbMrM145JISLom2TGV88xNwL9kL79WxRfB707eGTPozkoE51q9uvVbeTtsyX5oG6x7e4OSyuv5LshND0Xqp6WSLF1fm5AkWfo1W5agw6q/n36lBZtf17H2Ctvs5J0xJXdWMkZuBz0tHZ3L2++UZ8hNuDf1WJGQ/PSr/X4Zw7bX87322sk7Yw3aWUkfueGMgvVFkXpQD2chOb3ViWQb2OHe3tOvyrB0O3Mr84KP23UBIV+ut+Wx2uGYOak9NsM9ca6Q6jFgR3RUYUG1n34lxMFY/G3jdE55O3lnzBg7KxGcmoZCawC3E9MNKeQgacuux8ZlAhOGWPm3gaDM98A+uFeqP16rdE76VtcamUm2sfOh635N7tM2oz7aSW6Yv5P8LM7Fwd7++atEJrV7J++MgWhnJZ3kduDeUjFwQFA0UAfaj8xy8/Srscxtdeblutwfj/gm3ZS53qs9qAN6guyeJrcyv1l3IKN29L2lUsD6tX5M7+Sd/gqCM3ZWIpDbWL0OBLeXY+B3MbCTd8YMtrMSJzdkU/7pWHAMDGNgJ+/8KrnR+SR9Hm2dTBeHuGN2ez7rOJu+77aP1/c8xr7Xhk5uQz3i2cjibPp+b6DMTAKztu0t5Dar8bxdTkaOgekwMF2DhsfzDmrHgGNgSgxM2SgnuKEhumPAyW1KDEzZKCc3JzfHgGNgjNx2Tuw50BxojgHHwG4M7OSdT5Gb9PTvwB0KYZU/e0152Su5Z4dC0ldYFgK5zVtKnjwpC+9/K1uwJJuF8xgey9t3Mwj2LS+xpPbFbgZluU1jT9/N4EPklpMmILcSACWgU0NHtxKtW5i0IKPXW0PK4BokN2O/aCCtigjNtv1bii0UclvbSsv1tomUM3Wg9qI68JcbgMhoeVwrvgVpS2sI17cAp/ZY5WQfkfZ4lrQ7S/pG256T3GjP/dWnX42RG4L0cS9v+lhBk7I5idwKiWlBKutwycRESUWTsX1dzURXwoAOflLWN5LArDqdn9zQ2yJY2bASjusLvvedftXqAwJoT7RCG6rP1N695BZkRTLlmdQ2kVV6JPu37aFyStv8pCxqF/8uYemoa/OQ21eeflWCGu9cg+NaMsBQ7MFOl1cC4KTk5idlKf5EJ+2fhw2NJyI3kIM8zGrJhIKMklD8fr+FFz8GWbZckJX8SeXS+sprgaShZpw3Cg9K7ss9vIwSL2ykwEemKs01VfNzsg75xZZ0iE/lD37vt2/KGHO9kn1xTZ5zKzZL5bIsamPIkPEg+4ve79/PbiMntzWIawLA3Fd8cvpMkNRyKVhUMmje0RYD/HFnw9VRcpNI8EHedDtIZrQt4bvaHsG+f35S1mHZCfeD/186JSc3KfgSccQM4c3kRkmm46Ss7jm3htwOWApCdB0iN2TDa8Yl2Ve6VkBbAjiV88zNyZJgEfiYiNz0LCk0diz4aCD1Bhq9B991nWx9cD8+BR2emXML2eFKdsc8TNhl31X/UL/QNpDfOi0AG0if0r0oZ/2GMv4JIpjxcx5ywzDtyaelfOJfXmTaGxR6gEVy6yUXQc4z5BZ6uQ17jYLdJmuJ5FOb7rfltr6Cnc6NCe0VeuagI6YQyjxc8g3WDIpZXa//vNwoDr6p/PnJDWcUbGQi48EHYPcHmuRYBN/2KVWhnleclCURS2gb2sUWByskIrWNXttjX9wTH6DsI7dM0n5Slg9NGXbPSW7N/FGadL9dagcjOxHL02DSCICSAC0P4uv4RAYh6FDPlxWyqVbZk/uq8mbb6DYyo23QbW92Y+pA7aXpkK6vbaTlYQt6TbM1ygpPVve2iwUJJXH/rvnh+65PQG4H7i0VgwHB0xNoioObJ6DKZD6y0IGTsjQiLHtkNWKJuiKzbIZ1PQH+NLmVuVA/KUvBTo8fvEyd1CR7nIzcHACeOTgGHAN9GHBy815P7PU8gPoCyO30vXZychsiNzpHJMzxkPmxf+IQ93uB8Ifta7QN2vfTte2b7e66vaqDcHJzckuZ28zE7QTyKgL5ZrlvIbdvNoDr5oHvGHAMEAy4MYgxfM5qKPt17Dh2vhoDX62ck42TjWPAMbAXA05u3vs6BhwDU2JgykbtZXq/z7MEx8AkGPh/buyN68G66ssAAAAASUVORK5CYII=;" vertex="1" parent="1">
          <mxGeometry x="-3674.5" y="-2618.14" width="217.79" height="250" as="geometry" />
        </mxCell>
        <mxCell id="sy4TEDoWgvyvnTtcRax9-74" value="UserJumpDetailApp" style="rounded=0;whiteSpace=wrap;html=1;fillColor=#fa6800;strokeColor=#C73500;fontColor=#ffffff;" vertex="1" parent="1">
          <mxGeometry x="-4338.5" y="-2137" width="167" height="24" as="geometry" />
        </mxCell>
        <mxCell id="sy4TEDoWgvyvnTtcRax9-75" value="求跳出率dwm层APP" style="text;html=1;strokeColor=none;fillColor=none;align=right;verticalAlign=middle;whiteSpace=wrap;rounded=0;fontSize=10;" vertex="1" parent="1">
          <mxGeometry x="-4444" y="-2136" width="97.5" height="20" as="geometry" />
        </mxCell>
        <mxCell id="sy4TEDoWgvyvnTtcRax9-76" value="跳出率dwm层数据" style="text;html=1;strokeColor=none;fillColor=none;align=right;verticalAlign=middle;whiteSpace=wrap;rounded=0;fontSize=10;" vertex="1" parent="1">
          <mxGeometry x="-4451.5" y="-2038" width="93" height="20" as="geometry" />
        </mxCell>
        <mxCell id="sy4TEDoWgvyvnTtcRax9-77" value="kafka&amp;nbsp; &amp;nbsp;dwm_user_jump_detail" style="rounded=0;whiteSpace=wrap;html=1;fillColor=#dae8fc;strokeColor=#6c8ebf;" vertex="1" parent="1">
          <mxGeometry x="-4338" y="-2040" width="167" height="24" as="geometry" />
        </mxCell>
        <mxCell id="sy4TEDoWgvyvnTtcRax9-78" value="kafka&amp;nbsp; &amp;nbsp; dwd_oder_info" style="rounded=0;whiteSpace=wrap;html=1;fillColor=#dae8fc;strokeColor=#6c8ebf;comic=0;" vertex="1" parent="1">
          <mxGeometry x="-3998.5" y="-2266" width="167" height="24" as="geometry" />
        </mxCell>
        <mxCell id="sy4TEDoWgvyvnTtcRax9-79" value="kafka&amp;nbsp; &amp;nbsp; dwd_oder_detail" style="rounded=0;whiteSpace=wrap;html=1;fillColor=#dae8fc;strokeColor=#6c8ebf;" vertex="1" parent="1">
          <mxGeometry x="-3998.5" y="-2242" width="167" height="24" as="geometry" />
        </mxCell>
        <mxCell id="sy4TEDoWgvyvnTtcRax9-80" value="Phoenix&amp;nbsp; &amp;nbsp; dim_地区表" style="rounded=0;whiteSpace=wrap;html=1;fillColor=#fff2cc;strokeColor=#d6b656;" vertex="1" parent="1">
          <mxGeometry x="-3809.5" y="-2290" width="222" height="24" as="geometry" />
        </mxCell>
        <mxCell id="sy4TEDoWgvyvnTtcRax9-81" value="Phoenix&amp;nbsp; &amp;nbsp; dim_品牌表" style="rounded=0;whiteSpace=wrap;html=1;fillColor=#fff2cc;strokeColor=#d6b656;" vertex="1" parent="1">
          <mxGeometry x="-3810.5" y="-2266" width="222" height="24" as="geometry" />
        </mxCell>
        <mxCell id="sy4TEDoWgvyvnTtcRax9-82" value="Phoenix&amp;nbsp; &amp;nbsp; dim_分类表" style="rounded=0;whiteSpace=wrap;html=1;fillColor=#fff2cc;strokeColor=#d6b656;" vertex="1" parent="1">
          <mxGeometry x="-3810.5" y="-2242" width="222" height="24" as="geometry" />
        </mxCell>
        <mxCell id="sy4TEDoWgvyvnTtcRax9-83" value="Phoenix&amp;nbsp; &amp;nbsp; dim_用户表" style="rounded=0;whiteSpace=wrap;html=1;fillColor=#fff2cc;strokeColor=#d6b656;" vertex="1" parent="1">
          <mxGeometry x="-3810.5" y="-2218" width="222" height="24" as="geometry" />
        </mxCell>
        <mxCell id="sy4TEDoWgvyvnTtcRax9-84" value="kafka&amp;nbsp; &amp;nbsp; dwm_order_wide" style="rounded=0;whiteSpace=wrap;html=1;fillColor=#dae8fc;strokeColor=#6c8ebf;comic=0;" vertex="1" parent="1">
          <mxGeometry x="-3242" y="-2282" width="167" height="24" as="geometry" />
        </mxCell>
        <mxCell id="sy4TEDoWgvyvnTtcRax9-85" value="kafka&amp;nbsp; &amp;nbsp; dwd_payment_info" style="rounded=0;whiteSpace=wrap;html=1;fillColor=#dae8fc;strokeColor=#6c8ebf;" vertex="1" parent="1">
          <mxGeometry x="-3067" y="-2282" width="167" height="24" as="geometry" />
        </mxCell>
        <mxCell id="sy4TEDoWgvyvnTtcRax9-86" value="UserJumpDetailApp" style="rounded=0;whiteSpace=wrap;html=1;fillColor=#fa6800;strokeColor=#C73500;fontColor=#ffffff;" vertex="1" parent="1">
          <mxGeometry x="-3839.5" y="-2135" width="167" height="24" as="geometry" />
        </mxCell>
        <mxCell id="sy4TEDoWgvyvnTtcRax9-87" value="求订单宽表" style="text;html=1;strokeColor=none;fillColor=none;align=right;verticalAlign=middle;whiteSpace=wrap;rounded=0;fontSize=10;" vertex="1" parent="1">
          <mxGeometry x="-3933.5" y="-2133" width="70" height="20" as="geometry" />
        </mxCell>
        <mxCell id="sy4TEDoWgvyvnTtcRax9-88" value="一条订单表对应多条订单明细表&lt;br&gt;一条订单宽表对应一条订单明细表" style="text;html=1;strokeColor=none;fillColor=none;align=left;verticalAlign=middle;whiteSpace=wrap;rounded=0;fontSize=10;" vertex="1" parent="1">
          <mxGeometry x="-4000.5" y="-2216" width="153" height="34" as="geometry" />
        </mxCell>
        <mxCell id="sy4TEDoWgvyvnTtcRax9-89" value="UserJumpDetailApp" style="rounded=0;whiteSpace=wrap;html=1;fillColor=#fa6800;strokeColor=#C73500;fontColor=#ffffff;" vertex="1" parent="1">
          <mxGeometry x="-3236" y="-2099.5" width="167" height="24" as="geometry" />
        </mxCell>
        <mxCell id="sy4TEDoWgvyvnTtcRax9-90" value="求支付宽表" style="text;html=1;strokeColor=none;fillColor=none;align=right;verticalAlign=middle;whiteSpace=wrap;rounded=0;fontSize=10;" vertex="1" parent="1">
          <mxGeometry x="-3248" y="-2116" width="64" height="20" as="geometry" />
        </mxCell>
        <mxCell id="sy4TEDoWgvyvnTtcRax9-91" value="" style="endArrow=classic;html=1;exitX=0.25;exitY=1;exitDx=0;exitDy=0;fillColor=#dae8fc;strokeColor=#6c8ebf;" edge="1" parent="1" source="sy4TEDoWgvyvnTtcRax9-58" target="sy4TEDoWgvyvnTtcRax9-37">
          <mxGeometry width="50" height="50" relative="1" as="geometry">
            <mxPoint x="-4671.5" y="-2319" as="sourcePoint" />
            <mxPoint x="-4621.5" y="-2369" as="targetPoint" />
          </mxGeometry>
        </mxCell>
        <mxCell id="sy4TEDoWgvyvnTtcRax9-92" value="" style="endArrow=classic;html=1;entryX=0.5;entryY=0;entryDx=0;entryDy=0;exitX=0.75;exitY=1;exitDx=0;exitDy=0;fillColor=#dae8fc;strokeColor=#6c8ebf;" edge="1" parent="1" source="sy4TEDoWgvyvnTtcRax9-58" target="sy4TEDoWgvyvnTtcRax9-74">
          <mxGeometry width="50" height="50" relative="1" as="geometry">
            <mxPoint x="-4482.5" y="-2213" as="sourcePoint" />
            <mxPoint x="-4422.5" y="-2268" as="targetPoint" />
          </mxGeometry>
        </mxCell>
        <mxCell id="sy4TEDoWgvyvnTtcRax9-93" value="&lt;font style=&quot;font-size: 30px&quot;&gt;DWM层&lt;/font&gt;" style="text;html=1;" vertex="1" parent="1">
          <mxGeometry x="-2809.5" y="-2299" width="166" height="69" as="geometry" />
        </mxCell>
        <mxCell id="sy4TEDoWgvyvnTtcRax9-94" value="&lt;font style=&quot;font-size: 30px&quot;&gt;DWD层&lt;/font&gt;" style="text;html=1;" vertex="1" parent="1">
          <mxGeometry x="-2812.5" y="-2741.25" width="166" height="69" as="geometry" />
        </mxCell>
        <mxCell id="sy4TEDoWgvyvnTtcRax9-95" value="&lt;font style=&quot;font-size: 30px&quot;&gt;ODS层&lt;/font&gt;" style="text;html=1;" vertex="1" parent="1">
          <mxGeometry x="-2819.5" y="-2909" width="166" height="69" as="geometry" />
        </mxCell>
        <mxCell id="sy4TEDoWgvyvnTtcRax9-96" value="&lt;font style=&quot;font-size: 30px&quot;&gt;数据源&lt;/font&gt;" style="text;html=1;" vertex="1" parent="1">
          <mxGeometry x="-2824.5" y="-3267" width="166" height="69" as="geometry" />
        </mxCell>
        <mxCell id="sy4TEDoWgvyvnTtcRax9-97" value="Redis缓存器" style="ellipse;whiteSpace=wrap;html=1;comic=1;fillColor=#d5e8d4;strokeColor=#82b366;" vertex="1" parent="1">
          <mxGeometry x="-3574" y="-2242" width="93" height="62" as="geometry" />
        </mxCell>
        <mxCell id="sy4TEDoWgvyvnTtcRax9-98" value="Async I/O&lt;br&gt;线程池" style="ellipse;shape=cloud;whiteSpace=wrap;html=1;comic=1;fillColor=#e1d5e7;strokeColor=#9673a6;" vertex="1" parent="1">
          <mxGeometry x="-3645" y="-2176" width="100.5" height="67" as="geometry" />
        </mxCell>
        <mxCell id="sy4TEDoWgvyvnTtcRax9-99" value="&lt;h1&gt;&lt;font style=&quot;font-size: 13px&quot;&gt;优化&lt;/font&gt;&lt;/h1&gt;&lt;p style=&quot;font-size: 11px&quot;&gt;&lt;font style=&quot;font-size: 11px&quot;&gt;1. redis缓存&amp;nbsp; &amp;nbsp; &amp;nbsp; &amp;nbsp;&lt;span&gt;外部数据源的查询常常是流式计算的性能瓶颈。直接查询hbase比较慢，我们使用redis做缓存。&lt;/span&gt;&lt;/font&gt;&lt;/p&gt;&lt;p style=&quot;font-size: 11px&quot;&gt;&lt;font style=&quot;font-size: 11px&quot;&gt;&lt;span&gt;2. 异步查询&amp;nbsp; &amp;nbsp; &amp;nbsp;&amp;nbsp;&lt;/span&gt;&lt;span&gt;为了提高处理效率，Flink 在1.2中引入了Async I/O，异步查询就是把6个维度表的查询同时操作托管给一个线程池，同时查询6个表，先查到哪个处理哪个，从而提高并发效率。&lt;/span&gt;&lt;/font&gt;&lt;/p&gt;&lt;p&gt;&lt;br&gt;&lt;/p&gt;&lt;p&gt;&amp;nbsp; &amp;nbsp;&lt;/p&gt;" style="text;html=1;strokeColor=none;fillColor=none;spacing=5;spacingTop=-20;whiteSpace=wrap;overflow=hidden;rounded=0;comic=1;" vertex="1" parent="1">
          <mxGeometry x="-3534.5" y="-2116.5" width="251" height="158.5" as="geometry" />
        </mxCell>
        <mxCell id="sy4TEDoWgvyvnTtcRax9-100" value="" style="shape=image;verticalLabelPosition=bottom;labelBackgroundColor=#ffffff;verticalAlign=top;aspect=fixed;imageAspect=0;image=data:image/png,iVBORw0KGgoAAAANSUhEUgAAAOUAAAD9CAYAAABDTLDgAAAgAElEQVR4Ae1dbZbkKgitdWVBtZ5eTa9k/vViMgcUBYTEVOXDVPHOmZeYKOCFqyYp6ccc/wUCgcBQCDyGsiaMCQQCgTlIGUEQCAyGQJByMIeEOYFANyn/fqb58fw9BLEjZR9iMBP6lu1/P/NzesyPx2Oefv6Y1Dj9ZgSClJd5/2/+mYKMl8E/sOIgpXDO7/x8POdj1gNC0TzPoGuaY4LUuEQ5SMlj4O9nnoKUHJE4vwABk5R/v895eqRnncdjmp+/fzN/dvp9Gsuu3+f8aAIalmhyNliT3YOBlPGYp+fPXJ/I/ubf54TPafCsBvZPP3Lug77AM9zfT+7n9DP/wjNz6XNq1zOLcVzA9oINe15EDJkwbCN01dn577c+Z6I9U8K/B5eo8xkItKQkcpUohyB/zk8IdHrRA3UmTgQIxmmeFAFnPfP0yF7D1ZTxKPYg4Z6/laRAjsdjJtNBPJJimuaJ14MbJHvNBnZfkzLpB7yqDUA0GOS4DebyFfVP889vAX+mtvEiiIH+4aeKlOnlgwweQCBdL6TE56E6uqcAe86/MMPqGaEI65W9hLgnY6lNJmGxI5ebWX0/UrYrhjSDVvzAXv1MudC3FwaLZUTi7sgISFLqmY1ZrmcEWKaVOIeggQK0ZzOoqLNBNlMrT1GGXA7LCnZJ267LpdULwa9l6TLJbq8rUi72TdUloXH8SAReJiUPMjhPBIXRnkgDgcRm091IyWSaLknPlFP+/leeE8sI0s6cRczlpPT6FqQsPvqCk5dJWWdFIGINJiAoLmFp9iQQdyMlkZ4E82NaAuKz4h97LlM/fOADCm+91zOlXKYmDa1ORbSYKYUrvrkgSZmfHdmkkrFJwS6DLc+K8BKDN4Dgym8z+fMlPZfyqjlc8SO6lO25JNnRyIABAJbNDvE1IXS5aLtypnSxz8+67LGg2BsnH4mAIiV7CVImGuPta4YCX//jK3uOTSJr8yaW3nrCkrZDNpfIz5FQXMYfzDj0iSadwycc+q98PmFMdkm5OFuRRHnUsnSZarfX1UwJFXFQsN++MvNJZBw/FIGGlNDP8v0uf+fDINfLUahIQVQ5gDBhADoje7fsBcAbGeyN7wwzd3menOYnfI9UtrcEqcr4N84eImhZukyS2+sGKaGy+L4Jn3qe4hMJyYvj5yJgkvJzuxs9CwTGR2AsUuIskX6EAMvf5l/P1LUn5qPZs2ffQtawCIxFymFhCsMCgfMQePz792+Of4FBxMA4MRAz5XkDYGgKBLoQCFJ2wRSVAoHzEAhSnod1aAoEuhAIUnbBFJUCgfMQCFKeh3VoCgS6EAhSdsEUlQKB8xDoJmX7M7H9jDxS9n5Wfoakt7BmPwGUmw0+A5tRehGkHMUTw9uRdugEGY93VJDyeIwP1AA/aq97WQ9UZKQvOVbbN0sPUt7Z+87+0WO65OxqOUbZV0s1SVn2ILKtW/xZpKRR5NDhNi49aueN0Gxr15psLtI7lzJ0iskZM8DRnwPw0jRSH4QsyKCAtv7NPyxNpc56905b6JPQmVNgMoheTFO5lJGhIsn9CFepL3LLWNryRq2wTaTEJDgOP7akJHKVKDE2OUMdtV9ylBSTZY+n2OicUjzy5yEItAlTZ1IqSOhnSlX583zWzOXwcqNsok7+eKdtSTlC+P79NpkXWvlpoGnSVJKvNoQJEozttunW1WTfY/tpV7DeYF5UnWf9p/CcdBu3STHp2U8BVGdyDE41sGDeIUVAiBIrkPWg1NfWsU8tQ1Gf8ayIgwYjVCH4hlA2+9KjqyGl0xew5YXBYkMXPr6qnClVcPDea2dCgJT4ACdAAdqzQBd1NsjmesU5ylhYpi3el89Euj9Jj6xDunVdXe5u62IgA9yW3w4OrwS/lq3LXp+bPLUbsCaZcexD4GVScmfCeSIoBBeRRr0ZdAPSCDbP9gUZ2GTxviQct7+qk3XoOtZlg83LbdE++nMQ7ZEGOVu+gdMLM5KWrcuiz2QQXlTYbMCaZMaxD4GXSVlnRSCiXBbisxvNnmTHghO9wKCm5YgyiPTlaj1ZvC+DytYp65BgrLsbKStWJF8fbdtGJKXnCxtH3c8o2whIUrppDtPySqaBzLPiSCkmXfvzc84exDKeMRO0diBKQiccxQRk+OUWpNyAtdHFuLSAgCJlHo15CsfZePuaBcIzI+TRkUGWyHpNikl6ybCeptEO/B5iGTMW4rGhrcA3fyKBXLkZV9s2Q+/iysD2upaty9SqvW70D5fP61iTzDj2IdCQEpo1KRzhlbdejkJFcgq93s860aFsVuKmdMvmjdR5I4OnmIS67Dea6Ttlm6axDTpoaAQezYysP++0RfPEnxqEgY2+j6aO2vINUqIL6p/wk4NjkqX/r2XrMtVvr9vY9GBNMuPYh4BJyr6mUSsQCASOQGAsUkZKx/d8HPi9h98grcci5SCghBmBwJUIRIrJSLEZKUYHi4GYKa8cEkN3IGAgEKQ0QIlLgcCVCAQpr0Q/dAcCBgJBSgOUuBQIXIlAkPJK9EN3IGAgEKQ0QIlLgcCVCHSTsv3Z1X5mHyl7PytDUiBwDgJBynNwDi2BQDcCQcpuqKJiIHAOAkHKc3AOLYFANwImKXUKxOfvn0gehfso9XYp3Mald9XnjdBsa9ea7B7LpYz3UkxqffB8y7Pelb7CZu6JUnjIFIwk4+/3Z+5NbSm3PNnySK4+FpvUDW372hY3iSP0mzL7KcFRPBWBlpRErkIkY5Mz1GH7C8Hiu6WY7A1srCdSUcIGS9hb+BDkLXtLV9ItInGUPCBzkz5yIQy6bM/pV8rYiTaz9B3az0aqywUT4taBCChSeukq0vWaDgSCks+KuQybd0sU6E25vbKXeuvJoDYL9ykIc9WuwMbBJuWCLWMUqRIDU79efNMssEsCwZ6KLymxj122C/u0HMfeTGTKgKBbRfkcBCQpF5yCwcS2tkNglCIEABSgPZtBRZ0Nst2uoww22uuKi/flzvmuwCZSlo5yhUzeBr0aR5LoXaf7/NhnO9gHs/nv/KdHFNcXDlm58jg/HIGXScmDCM5T3IJTiTR59qQuuIGgZ1RqYBwXZGDtxfuMRJlsfFYnbdAXft0jgEgdskEvx410wtG7zuvQuWeTth2W2fDnF2Bp/Hiw51a0l56P26M5BpHyOB6OwMukrLMiELEuZUtg0OxJXVgI3O6ARBlEehLMjov3W1Jay0Ud8FC26rWk9OySer2+etdZ78qpZ5O2vTSAE/4cvOAL0SYKlyAgSemmDUzLGhmceVb8qBSTqZ96ptQvtdBT4pkttTNnGFHPnxG3kNKu29quI6qSecFe3SjKpyOgSJmDRqRANN6+ZjNxZL5pisn0thSei+mBC/o5zU9Y7rGXVdhH9baUZh1BQiDfYz3dok0on6xmRKCuZdtBj/jEkWdKshntEH5uU12auuPi4Qg0pASNzfetD0wx6fVTk4aWhPqbXiUz89HLqS03ktLxkbRd/jk/8UyZTZZ9alNdsp7F6YkImKQ8Uf/wqoiUwxsaBn4MAmORcsAUiaeTckAMPibab9KRsUg5IGink3JADMKkcxGIFJODpRf8F/Z8fcrLmCnPHQRDWyCwikCQchWiqBAInItAkPJcvENbILCKQJByFaKoEAici0CQ8ly8Q1sgsIpAkHIVoqgQCJyLQDcp5U+49jVys2z2czb+O9V9rdpP2ub+cdU36ys3Pc5fQ+CGpFzfDfEaFCO2+qa+joj/NTbdkJRyf+I1sJ2l9Zv6eham4+sJUg7toyDl0O45yDiTlHJLD6T6GCPFJD6bYWoLSmFBGQ/SXshHuZf2EhJm/u9XZdD3pIgEG+A5tmxvYzmJSJ8+6mfKYg97XtRbq/y+wr7H9VSW2oYo3weBlpS4gfY5l72/s7HJWe2mh+6elmJylkQC3UiUJ8tZCsH+UIm9DPIIsixsUuYvk7DNNM0T17fib6Gn2Pucn0yGnWay7WtvKssVk+L2wAgoUnppItL1mg4EgoVmKehdLh+eYpJ0eflwKtKSCEZwi9QnXr9xtJkfrK8ol5WrRv9M2pI3NBsyYAatGFt97bfTtybujI6AJOVCQiUdWBBAlFoCR28oQHs2I4k6G2Qvg2YRrG1h2ctnPLSViIG2eUSX+rTcVnN7RbfRZWrRXpe6k819dpLMON4PgZdJyQMIzhNBYSSnoIGAYrPpoaRMz5T1zwrkZ84yauCacZ6YPWBzIemCbSJrXV56ytls3ekcK6ityyShvW6RkmFKDfGo6op7UbgTAi+Tss6KQMQaKCXY4RltgRQcpDYY+V19roMvLenwGY9lHW5l8qWfkhEzpQY5yhciIEkpnrO4VSmgBcmwLmRv+8GXHqU2BPj0M//ymQhvclKU2jBvzD/wh3M4gfnt5twiVB0UqHpLSjZDNS+qPNvyMyVbkltySad31G10mdq111VfXf+0dpLMON4PAUVK9hKCMi9ab19zP/HV/skpJvVyMpV5usWcKhE+jzREhyCHt57seZh8tvD2lYtpiUMC/KNuo8vUsr2uSUkvntZTWZLMON4PgYaU0IXyDY7S3Q+VYtIK1PbP1MG31paU8OkGnjfbmRVdJ74bwh/2ec4/9dtQrjKZcpdcr8mmy9S2vW70FSp32Eky43g/BExS3q8bYXEg8DkIjEVKnAGmeYKP89Y/vo4cxQd3tHkU7MIOE4GxSGmaGBcDge9CIFJMRkrHr0/pOFpaz5gpv2sQjt7eAIEg5Q2cFCZ+FwJByu/yd/T2BggEKW/gpDDxuxAIUn6Xv6O3N0AgSHkDJ4WJ34VANynbn4DtB9SRsnutvNqGs/Vrfbrci1vU2x+BIGXG9Oqg/Hb9+4f2fSUGKW9NyrTr5XeH+Lt6UNihCx8jIkh5Z1IuZkzYFqNBym14HVnbJOWoKSYJiJ4UixBkXirItf5VPc95UmkryzbTnNbD00EyrOMe+pFExTbYjkZpWEDjcspNrPEjt6AFKS1PXXOtJSVu9h04xeTCZuSScycT5mGlguzpH/hC1/v7bTIkYCBbOpZ8qeV6m8h1PUN/sVHpwwGJpa/E/Zc85Sbhw3bdBCkViBcWFSm9tBg6ZYd+lsnlw1NMevYxEmUwMciazcxee90/p55aLto6lrzpyG1Sojj1lH6PlJYFmnRrZUtGXDsHAUlK7XRmg3aiSB8JozqMutCe5bMRdTbIZmrlKcrgyzR+W+7S1/ZizV4b3HqSLKYObpI+d+XmNCw0c7n1pP4gpQb4M8ovk5IHJJyneIKgIdKo2dQNNBWQS7guyNC5e7h9ReRCe1Ef69GfRmiPlTvyuazo8U521u+Tcj3lpuivsZz1uhDXj0fgZVLWWRGIWHPegLPx2Y5mT+pDb0BSfeuIMoj0usIZM6XUqQNb3jVKvRgs1BNS6blTXEyz6VrKTW27LguRUTgVAUlKN4VhcrRMRJVnxVNTTCY7aKYSSEGAsqWzHWRee90/r57Q6CZVlrV4yZP7mn5zpnQIrfFYK3Or4/xcBBQp81ISXpCUd//GH/jJNl6SYhJnh/UUizroCFa83tG/tl5OXQk5bbMwTwfpso6tXBvftl6rH1cr4lMIaIQVw3rKTW27Llu2x7VzEGhICWrHTjGJBs5PSOBM3+k2poLs7Z/8nviYJ1iml8Fqw7Ow8uVe+kEs/LUzwqGsIGD1UvCZ5if86T71OKFJqMvK5CieiIBJyhP1h6pAIBBQCIxFyruna7y7/So4ongNAmOR8hoMQmsgMBQCkWIyUkxGisnBYiBmyqHGyDAmEJjnIGVEQSAwGAJBysEcEuYEAkHKiIFAYDAEgpSDOSTMCQSClBEDgcBgCHST8sifYR0puxfvq204W7/Wp8u9uO1db6sdW+vvbe8R8oKUGdWrnfvt+o8I7rvKDFLempRqI/kbUXj+oLCf7bLbR8mVWo4sBSkzuucHpXTrS/qdvZNScl/pJf19ou1aO9ouFBwlVyg5tmCSUm5ZglQff2JDL+6j/GF7mMBGdxe8zBSwJrunu5Fikva9su1rYl/l0Skm1+WDH6WvH/P0/JkhanAAoG13eKwxwgcHM84wQGA2TG14fU9uj5yeuDurTktKIlfhnLEJF+qwXf5gLOzrm0p+nmy+HrV6ZK/1HGXYm5wjxWQCD4IT04EQlrB7ZccUkz3yyyAt4uhR44ZigWzMR04ylKHiDKrxOvwcRVhy4dqKHGXGpUVFyt50FXrdnsuRYnLFmb34OvW8QW5FK9zWwbtW7hApqkh5jv28hUWexs46I9amUrbU279ig4TVPxNkaKiSRzmTpNROZ1bqzsOSoHQIAIYCtGcjkqizQTZTK09RRl3qyJvSgdperNtrg1tPOtLUIY2SJVeuIo1bT+ovs5HUYpa0rWtlU8jCRSEP7ff8lIV0kRJWYI+UiI10K2yEXqjTKVfHKokf4fgyKTkYcJ4ICkFDzlCzqQKTd57L4teb8wUZkWKSo5We+WpKkPzsWUZRNQg0MxSXZZ2vyF/0U5a3hTwsqTbESvOYwvrlkTLlM6pZFxuyW9286NrLpKwjDRCxdraARrMndWzBUdtISaQnwXQ8Y6YkXenYbTc168VgoR6JwqMZ2Gk2PS7FZId8tN/zU+6BaXs7WMhlpvQxSGp84MiFunXlpiaMbNIoB0lKd52dHBEpJqXbmoCQt41SwpEP7KmSxterp0RaAegQWtu6VlaaarFLvmM/2EuPN5btFsn4Nd4+W6T74c6UUJ/aw7F1Qu3jxWeKlHnk6UjBmPoIGd5o6Uo9AYcYb2IJ3E7ZJK05ojPtt68c58ZZWRBe77ChrdemePR0NDazC61c4+22iVWrPy3J9IwEs8CRKSY3yOc4/6V2ZenpzKY2pmlme/L3GNyf0vHzJD4PMfBx0rFjk9e6+rwhJRjUmwIxjUo6KDKxaURUPeyWrdqJIiaoYt/oIsUkppkssXl0iskO+WYcqW/bVnpMm5Rp6fkAkotAMJavOCEaaTdzO5TvxKYSfVnRJOVl1oTiQOBQBJxl9aE6twsfi5R3T9F4d/shfj6hDw4P7jBLguljkdIBMy4HAu8ggGSEn/MNvmylPkaKycHSC/4Le74+5WXMlDQ8xTEQGASBIOUgjggzAgFCIEhJSMQxEBgEgSDlII4IMwIBQiBISUjEMRAYBIEg5SCOCDMCAUKgm5Tez59I0DvHI2X32nW1DWfr1/p0uRe3qLc/AkHKjOnVQfnt+vcP7ftKDFLempRp94T+kfYr4Xj1oPCKzZ/aJkh5Z1I6extfCdYg5SuoHdPGJKVMDRgpJh85DeL084spEskVEMiwP7BsR+v8beUavkU+JCIrqRhBV9WPJCr3YBsb30KX0nUku9M9aMv/0yTUZV7XOpd9qOkjqW5PGlAvJQfhSrJKPWPLGNWh4ya9YgvgND/V1jKSefaxJSVuIn7OvyI14HN+Pqe6W5t2cDNrI8UkA2PptAdfaK/r/f1i9jWxY57qKH0Y1M9KYNz5sWOKyca2GQYB9oNvtMveiF42Oef0HLxM3TBJ+YQY5H1Sm6YLZut6Ez5SHpAZBsCyJ5WMueCoSOntN0vXa0DoZ5lcjhSTKy7sxdepp5erDiktIyAQq//azcH6viUjXXNsKw0W7it7ywxY2mYNKjmWIDyvC/LK6qRfL/bV2DCNegZgpSSldjoDQDsNOlDsB3CgAO0LSDxRUdqnNxlAgAotm6mVp2gfX6bx2zAw1HumzN7+ufWk400d3CR97spVGLj1pP4yY2k9RlnbulY2RKRLaFvFuam3eF/6aBMpS7BxjUzeBr267yTRu073zzq+TEreAThPmEHQkMPy7Ek9cQNNBSTVt44LMiLFJAdsJQWkMRByf3JJzfmiD5YHX+2jLaS0lrlC3qJdjLxG36mP3RhQg4OOL5OyzopAxJo7BTqGANLsSYYvgNYNBsog0pNgOnYA32vDQj3SBsduu6nRglwha6EeicKjWg6me2k2PSzFJNrm+YBI6d2XPvKWi5qsXr2WlH16BdYMUO86q3LKqSRlpJjMoKtlouOK7U705Kbr9ZnPq6cMsUjpEFrbulZWmljRsQ1swUcX5z5IKHWSOG1DvoovtPjMiKRkj0XFGCHvXb0vDLLFkH1PFCmzYTw1IL5ZU29fsw04okWKyU0ewUDswLetN0qKSSNGdPpIHCzst6Di0RDr8XSYadkNb/o1KSfn7Wsrb12vPRgMTEqIsPLdLX+fgz+Fh6OcQIBe27dLBuy0NbJtkb0U6uL7EryKf84/9RsOtvSA39K/5lscLNPLp6LXndiL75p+6IuVpnE2vueBrDoTt7Yv4WW5oumD/sbX4SPPF9oWWs5KPNL388a2Dr1aPsnwrtP9s47NTHmW4tATCPQiQKTsrX/3emOREke5lMEaMq83//RMPRr6d7cf8BywD0HK0QI97Pl6BL6OlJHS8N/XpzSMGBgrBsZavn79nBAABAKRIT1iIBAYDoGYKYdzSRj07QgEKb89AqL/wyEQpBzOJWHQtyMQpPz2CIj+D4dANymP/AnSkbJ7ET/Lhrf0sJ+Q8d+G9vbxynpv9ftKwy/QHaTMoI8fNGkXxN3ISDE9Pr5k6fXHIOVtSCn3Il4fOtsseI2U0Oe6V3ebxvvWDlJm370WNGc6/gtJ6ewNPRP1K3SZpLS2yPCgNX+LiHvj9KgGSy65tWtNdg8IPWkEwV5Y6pUtRmwrWa8Nuh5P8Qh2Lunw+sFxhDoFS/a8COkiebpDbCPSSVace7DwbBH6VSXqG10udhrbwqgOHTVusPVP93vGfbrT7KXBbPu8HEfaN2TLHY8tKYlcZd8gbDxVm5yhDgty6HikmOxzvw5ODH61gddOd2jMlOgre1Nv77NnIZsyH+1ieySxnrJz1pubUyDMj85N3JiyhPTCoKRTPFIsUh060nWKUSv9JtW94VGR0kupkK7XTbJ6rZ/LkWJyNQQsUmIQq5ZAgoo33NSk9HyFI2QihpJpFbeQUg/EKE8M0J5NOn4sS9qN13a2PkfHBy11JSkXOqaDCZxZtjeCY6AA7dkMKupskG27LO31m1gaSVlPBq22F+v22uDWkwFh6pBGNSXdRpepQXtd9g+x7sSCZFrHTaQsDueSmF0ubgbhuIh83vSZZkRe19UhfcOb3O38ZVJyAOE8+QuAobU/OKs++6QgYmWGFJfFLrenrkOgKguO/LwnZxoidYcNqAfS/dv/KDa77WY90W10maq212X/lvDUWJBM67iFlPaSmNm14J+2P+tpMM2ZstM3Vl/vcu1lUtZZEYhYAx3AR+fR7ElIbHIYNVJHlEGkV/d2J2Xtk9ZE5TbQ6I5/1G10mVq211nwQ6UNWJBM6wikbAYvXAE/muRVVj0xAHT7OM1qa2kwfVKu+8bq612uSVJGisnst76lUEucdbfrNrpMEtrripSur/IzJXuMIJnWsdUDtTJp1Iue3Z4pHfI2tljL16V+Wx284TVFyrz273h7Bn3FpU+kmNzkdh14ukzC2uualJl88FzJUuzZb25JqnHEwN8vzSPavRo/0BeuM6fPhMcFejYAU53VQKvDSL9pdPUulxpSJizkn2CLFJPp2XLaIcWkJpsuU+C01w1SJmfNz4k9+xrpNkmmdyzfcllKUa2fnj2tb5BariWvSVFqfO8E2YKUOO7Ub5mCr+LPBD5m7Rtt053KJinv1IGw9RwEiJTnaPtuLWORcsD0hpvCYzT7d7QnSLkpEt6qPBYp3+pKND4SgSDlkehK2Y9ILzhWesHwR/gjZko5SEUpELgcgSDl5S4IAwIBiUCQUuIRpUDgcgSClJe7IAwIBCQCQUqJR5QCgcsRCFJe7oIwIBCQCHSTUv/sSop5r3Sk7F7LRrChy1b8QUD+2R/7wXhX2zcqbcFnS93GpIv619hx4YUgZQb/rUA6zYHt7o2zVJ+Dz3X9OwvHHj1ByozSOUHX45KlOs6P0pea7HTvHHyu699OMO0iJkiZYTwn6N712XVBew4+1/XvXc/s2d4kpbU9hzvF/B2kuyFVZgpYk93TuZ60imDvqCkme+3iaRMRf5GeJO2+N32BWxFzBogMaKnHntl0KkvC/l0f8VgBmT26vf5B+x5/k+2fcGxJSeSi9H2YnzNSTEI6xR/Yt8g29WEgTdMsUiWuRIXbRuNu6BOpN7KeEvBKL+jhOXWwrFJEmhuitR2W/5UuXcQ+KpymHt0qpQvKRXvsjdy8f9qGO5cVKb00GOl6DUhYZvA8KbkcKSZXYwEDVmAHTRzcm7QZ7fJuCynXU1k6dmT7qv+Xu2mRcl03yNT98+yhrAs8BpdtutNdScomCGpXNNAQDGUwhNEMCtCe5YYRdTbIrlrVGcqQy+FaQzpU24v1em1w68kgMXVUg8wzs02nvjZo2dJQaQM9fCYx9eZlbiGba0dOE1McrpSpotaly1S9vS596KUDSe1VXRL6AceXSckBhfPkLwhaIg2AxkayPRy+IEMHLLev+GmhvaiP9ViKDfEsVwcj0aYoWT4x23Tq030ETZtmSoNUwp5efJa72PyJAqGDtW2vK6It2GNhwUTf+vRlUtZZEYhYyQdA4whNsyfBswBw6xxqpI4og0iv7qmljymz14aFelyrqYNXMM7NNp36rEAEUpaZjunTZDX1xkzJEBvnVJLSe7YxnynyrAgJkPgIDAE2/cy/RM7SV7n0K5dN2fWuPPNk5GcMtnS2g9Brn67X4PbqKWt+JpMQspYsbbNLtrVIuSRv8/J1k/+1bbWsbdJlqtleVzOla0/rb5L5CUdFykgxSU7FgBGpEts0hm1QUWv/6LXp0WeRMiUs5ukaU+bx5/OFZ0qaOUW/jT/w5HcP7+g+6jI1b69rUtILHfvtK58LSOYnHBtSQqe6UgRCRXpdXT6fJEgQbDZrcaC6ZfNG+lx8a3vMDyOtYuvwKqTXBvm9rk1juKSjapNnS23W9JmkdPyl9egyWWVd78WHZOijlqnLVL+9bpBi01QAAAgRSURBVJASKnf4m2R+wtEk5Sd0LPoQCNwVgbFIiSPiNE/wQd76N/p65e7290TxN/SxB4cD64xFygM7GqIDgbsgECkm/0VKw0hrOVYMxEx5l+Ez7PwaBIKUX+Pq6OhdEAhS3sVTYefXIBCk/BpXR0fvgkCQ8i6eCju/BoEg5de4Ojp6FwS6Sdn+JGq/Lh4pez8r7yXpLUzZz9r4j9rvhcB9rQ1S3td3B1medsgEGQ+Ct0NskLIDpOurwA+1657VY+1xfhR+rNKQzhAIUjIwhj3t3gS9Rw+ClHug+I4Mk5RyCxGk+vgTKR70rnY0ALdx6dEclkIyU8Ca7LXOFN2wuRqyy2Gqjml+Nin8077CdB/qwf7C3yK+yClX6KQGJdURNkOWBdyq9jf/PKes/2FmtBPtsn6+y43ky61Jsi/4bCjSkUg8yWp91M+Ur+mq/vy2NI8azzPLLSmJXCV6jE2uUEftl/yFTbWKgCnxUXVs2n9JQQ3dNGSv9B6DS6UrhPSPz8ejSRQlUj/Cy4tHza+Dtqg+oEUsmwAEtkyNCPbC/s2f+ef5nMs4kGWL5zCNo5EyspWfcpxO3E4wimStYMNva1J261JpVVAm6rc3Gos+cwPi/GUEFCm9NBjpek2XASRgZENHPuffw1NMpkRRekAogWOQjCMjA7WdxXWqR6yvZeJSUg4AoKOVzQYAMkItQ7GNwDFVROLzbWo7kTLSPJIjxj5KUqqg4abLoEvkKHEDQQMFaM+CGIKr1Nkgm+vV503Algp12VkuqRPdB13W9jf3UZ6tR9R1+yoHPdGG2dpc34uUxRlVWaNLz5TYF2/JbGNRpcfZKwi8TEruTDhP/uazj5pN3UDVs8xyN4CU9pJJB0h6pqzPnfn5kwemsknL5n2sVmk96Q7WpQEJ5dLzbnskE2z5Bh6Xk5KviioSXnoSXiPOtyPwMinrrAJErE6DQEPS0OxJNikC0GU4esHJ69B530yZZiR8pvwrD8emHpCXSKIGEdeuXlJWTMh2ffT63Vy/nJQxU2rfHVmWpHRT+qUgr8+UYFKeFU9NMdn5TOkMAE2wQzcg4GGG04PIO6R0cZSuNO2x9F5JyqW+EHayW1F6EwFFyjxrdaYYxOXeREtXsiSRtXkTS8HWKZuk6SPqdN6+0rIwLatgBmSzJLyEgk8LtVIWvWJvU79jpjT72p+isiErDjLebKURSmUtQ5epVXvd6B8OCvbb1wYeEhzHlxFoSAmSulMMkrNq7KMh6Gh6vlKmdctW7aiIpPz5w5kNSUbfKRkBsa7xHdOaDaGuZ28bsFDbCFpHhvxO2Z+i0tILn5zom2sPEbQMXSY82+t2/+Bx5Vm+C9tpPUlmHN9DwCTleyKPbU2k3E9LWpr3BPp+OkNSIOAjMBYpcTR20kvmvwO5NylxpnBmdR+2i+904HSxhaH+DQTGImVHR/YiJZIRlr53I2QHRlHl3ghEislIMTlHislIMXnvYSysDwQORuB2y9eD8QjxgcDlCAQpL3dBGBAISASClBKPKAUClyMQpLzcBWFAICARCFJKPKIUCFyOQDcp259j7Wf7kbIbK9nPxewtYE2LXS6c2sddLA4hVyHwZaRMP6k7k4zk2CAlIRHHNQS+jJTOj63XUNrhfpByDUTwzfoe1DUpn3A/SHmSF4OUK0A7e2BXWn3kbZOUcsvRWCkmIbhh+Vm2gLHfrmq7IaUk7SpDUohUjWlU9n5LS3rI66UeeyaFtJVtasu8b7LoavEjmd6x6DK2n8k2KeUJben6tjSaEovPKbWkpF3uFM1WGkhjx/lZKSaRXHnHSDER/KHtNlI6WnshCwGUTzUpsaw2V0MuVDcdZDEu0mjKNJ37pdFULvuYoiKlt7cwXa+79vX6P5dPSDGJpGyePRy7myVR+0y5hZTrKRodO3JKjYrfcvyATebuFWMw1JIQn7I5FOzRGQukjVifrTZQHuLWJihrZVN+I2aFwtz2V07rUuxkgyoT9a2nkpQKUA6KdEgCtWAKwQIFaM8cDMFV6myQzfXqc20H3ndlywB8d6a0SCXsce3I2Q0KGLpXsoykNOu2g4ps2eoR9kFl5aPmPgq09Yi6bl8l5qINM7a5TisdVudbT18mJQcVzlMM8ZE5z56ErOvENpCoiXXkest9lN2mcqRnrRrfbbBtmimrIKZ6qnl/duqjZ1M7qHx3Gs3ihA87eZmUdcQFItZX2UCaI1NM+qSsNvg+sklpzYCaGKZeys1DZN2RlJZNkpRpRvrmNJq+n+99R5LSTSeYAkAGSp4VT04xaZMj2Ufc8F3SknJJHv+RgV1Pz/KeHRZ+C1b2PFM6A4BpJz2L0mMGU23W70oO5vWVCdeDFrvV6I3la0FHkTIHWWcaSJxNTk4x2TgzdwWvC7vblI5ypskNMRh4Osq0JHzCHywqf8FHk6/g1yR4bu3Y9+1rHXhggOF2s08xtRKhgy983LSfTf128AJB2Df2zqDta4s51mnkG3jiIKNfSlWcv+msIWUCP+dI5ekbjVE2fYZogdTO44CW74trsnkjdu45Ge2m3K75G+FU/mwdCfCCre2v1qPLJNG6/m4faemsv7vyPLao3/iOCW3kiiZZinYyQi3Zbw5eBilBhrTx3DSa1IdPO5qk/LRO3q0/RMr97O5bau6nLyS9g8BYpPyG1IkdfdyblN4s+U7gRNvjEBiLlMf181aS9yIlkhGW8say9VaAfJmxkWIyUkxGisnBYiBmyi8bhaO74yMQpBzfR2HhlyHwH2kxPmqjIJ7eAAAAAElFTkSuQmCC;" vertex="1" parent="1">
          <mxGeometry x="-3924.5" y="-2592.57" width="180" height="198.86" as="geometry" />
        </mxCell>
        <mxCell id="sy4TEDoWgvyvnTtcRax9-101" value="" style="shape=image;verticalLabelPosition=bottom;labelBackgroundColor=#ffffff;verticalAlign=top;aspect=fixed;imageAspect=0;image=data:image/png,iVBORw0KGgoAAAANSUhEUgAAAggAAACICAYAAACC0xOSAAAgAElEQVR4Xuy9B5Bd13nn+Xs559Q55wYajUZOBMCcqcBgWqJkr6zxjL1VuzM7W7XlWk9t1UzNVs3MlseeGZdt2ZJlWRpFUiRFihIJIufQSN3onF6n97pfznnr3kaDLZISQLIRGry3CgWg+9xzz/l/J/zPd74gK5VKJaRHQkBCQEJAQkBCQEJAQmAFAjKJIEjjQUJAQkBCQEJAQkBC4MMISARBGhMSAhICEgISAhICEgIfQUAiCNKgkBCQEJAQkBCQEJAQ+GwEoVgsks1mKRQKyGQyCU4JAQkBCQEJAQkBCYE1hIBgdqhWq1GpVDdt9SfSIOTzeVKpFAqFArlcftPKpQISAhICEgISAhICEgL3DgK5XE484BuNxps26hMRBKFiQYOg0+kkgnBTaKUCEgISAhICEgISAvcWAsIenslkMJlMN22YRBBuCpFUQEJAQkBCQEJAQuD+QEAiCPeHHKVeSAhICEgISAhICKwqAhJBWFU4pcokBNYeAoIhsWArtPwsx0OTjIvXniylFksIrCYCEkFYTTSluiQE7lEESsUi+VwepUbNh32KDr7/Nnv2PoFSIaNULDDh9VKUKWisqb5HeyM1S0JAQuBOICARhDuBsvQNCYG7iUCpyOLMOL29E3Tu3oJVLSMUDKPUm3DaLPx//+nPeOWVPyVfUuB02Dh/6QJ5mYqdXR0sLgaR68247Rbk15lFsZAjk0oRTSTJFxS4nDYopIgncuSRYzaoCAYDoNLhsNlQyQr4fQtkS3IqKsvJJSIsBOMYbXaMKqEtIWQqPTaTlkW/n6LSSHm5/cb37iZ00rclBD7PCEgE4fMsfanvnwsEBK1A/8lf8+2fnualf/FVnMosI8PjhDMy9u97gL/7L/+GbfueJ5Us4vRUkCOO4Kbs0qjwzi6SLMrY8sA+ah1Lrk7p8AyXL19hJqFAnUpR3t6DOXGVo2Ny2hoq0OUX8C5EyZWUNLa0okoHmZryk5dlad+6h+nzJ4lmZOjtNowqNQtzc+itVZQZc/RNzGPUOtj12E7M2g+uPT4XgpI6KSFwjyEgEYR7TCBScyQEVh2BUon5sQF+/uuLvPzNLxKZGGV6bo53D5/myy//Aa/+3Z/zlf/jrzCl/Bx89wj61hbk4SnmJiNYy8oJjJ7FvvMVXtjTIjYt4RviwImzWFv20a6Z5pfnUzSq+znODv74ARfvvPYe2597nvhwL1PBEOMTER556hGqrFkmZmf5zt++w/5HNjI366WgdOAy67DYKtHlZhiNq6jQGFm/fydO082Ds6w6VlKFEgISAjcQkAiCNBgkBO53BASCMD7A67+6yHMv7Wf80mUyMhUnzp3l6S/+Pq/9w3/kT//vv4CQn2PvHoTGJhSBcQKLecpr6zAoMxhru+lucN8gCAdPX8Deup/1Zh+vHVyk0TjKdPnTPFmf5c3XDvHQy78vEoQJv4++oRBPP/sYFboEF8YmePv1Xp794h4KxQJ6gxFFLsPVy4M0rmtBgRz/5fPotj/H3g7P/S4ZqX8SAvc0AhJBuKfFIzVOQmA1ECgRmp/mzdd+iae1mVzERyipwB8O8tTTX+Doz/4rlS1biYTzeKpr0ZsVFDJpiMXwzgdR64xsffhRqqzaDzQIhw8znbRgK6Wp3bgHY/Q8U7YHeKxZx4VjBxj1Jyigob2zk5zfy9TsIrl4ls7HH2bs6K/Jq424KsoxWvVMj42yMJumdV0ZMwsh0uM+Nr30dbprLavReakOCQEJgU+JgEQQPiVw0msSAmsJgWI+TzQSAaUKOUWyuQJFwGKxkIoFKKEgX5ChNxqRy4qUSiAr5Ekk0yCXk4vOcP7qhPiOLB0gUVJRu34vTU4dJqsVWT5JVq7HpFGQTsWJJZLI5GoxRKuskCUeT1IoyrA67WTiYVLZPGqNFqVSTjqVAlTotHISqTSyokIsp1JIOVzW0hiT2nr/ISARhPtPplKPJARWHYFiIU8uXxDrLWaTxFNptGYXJq1y1b8lVSghICFwbyAgEYR7Qw5SKyQEJAQkBCQEJATuKQQkgnBPiUNqjISAhICEgISAhMC9gcBtIwiJRILpmWmK5H8jjOu90e17pxWZVAaVWoVc8flOiV3IFxBC/qo16ntHOKvckmwmh0IhX5oP0vX6Z0a3WCgiZI3VaDWfuS6pgjuLQDaTFeeBQnl/xbooFUukUxl0hiWD3rX+pFNprBY7NdU1N+3KJ8rmOD09zZvvvEo0v4hae/8u+jdF7SYF+i8OUdtYhcGk/6xVrdn3hdj/kWCUBV+A5o6GNduPmzV8fGgKs8WI3WVDthyW8GYvSb//rQgkYkkmR6fp6F6KzyA9aweB0YEJrHYzDrd97TT6FloqEJ/LZ/vZvLv7Fkrf+0WC/iBb2vfx7DPP3rSxn4ggeL1ejl14H3ezAb1Bd9PKlwuE5xYweJyoPmYBTUaiFJRqjHotsvvkBHbgF0fZuH09dqeVdGSRqNyC+7cFiCnmCS0mMdn0JGMxNEYrGvVHgUiEQij0ZtQqGTKZ/LdiVchlScaSaM0WVMq7B6hAEOan/YwNTbLroa03HSvZRJJcEbRGPb/L0D0RjaNUqVCqlTfRYpUI+YKYHDbRqv52PWePX8Rd5qS6vgK5/GbfybMwE8NRYfudIYcLmRSRaA6by/xRpUSphH92AUelm/vrnLYkoeBimN5TV3jo6T03RFYQQkAX5dgMH9UqZBJxUjkwmvQoP+cau9s1xm+13lOHL1BR7aGmofLGK5l0hny+iMH4m/tFKZcmnMxjtRjFMZ5OpCjJ5Wh1mntOEZdMpPjlz97ny197imKhQDqZRqZQo9PJiUaXNAuqT7DGCDlUMuk0ebkKo/ajgcOSkRAZNNgst+eA6R2fQRvz8Owzz91UtJ+aIKjyKa4OLmLXJLg0mcaqKuCbjVDeWElVfRUWbYGp8TmS6Twjlwap7mxBo1Jgdrlp76hCWErT4QAH3jhBwSjEjzcgQ0vH9nYsurVtRb2SIIT7T3FNvY5mfZSr5/soyrVYq6tpa61Gr1GQmBnhzEiJni4nV88NsOGBbRg1yxtNiZB3mNm4FVV0HJm9lvhikMauVswGGXMjUwwOzKAsJkgby9nQ6cY3n0adi1G+vhOT5t4hCMnQAn2XJkllhSyDQv8K5GUmdu3vROAxC8PTxApFDCYl02PzpLMFUKrp6GnHZlIRCy6yuBAjEsvgcWgZGgiycU8XZqMKYUL1nRkgmsmi1upwljkx2UzM9E2wbk83Bt3ti973GwRBJqP3vWPE5Fpx8y7mc6hMNtrW1WM1C+rJGId+PMKWZ5oYOTNIPF9CrtJS11qD26Fnon+IhWCKTDTIlC9HY7MHrdFETWMNDpsOSjB54QxvHZqke1M9CpkCe3k5jS1l9w1ZWEkQBJIp/MksLvDOry6y+4sP49ALY1pGKZ9hemycGW8Ae1Ud2dAc4USRZEHGY49tvW8OGzddwe+hAh9HEKI+P6ODs5Q11VNe8UEMjMVrVxlJG/AYC0TiWcKzi+QLajp3rsPjENxy752OrSQIuVSS2fF5lGYnFeVaBs/3o3JUUlvrQLhlTCxMc+TwBBb7B4RIcPlt7OmmttwkjudSPs/0wBgT/iTdO7swaYUDn1z0JDp79CRyhRlLWTmpwDT+SJG6phoamqv4BBzkd4J3ZwiCrIh31EtocpgxVTP1Kj8XLgd58IlN2N12dMoiASFASqbAifdPsmnPNjRqJQarBY/HQnxhgWuXR0kUlFTVecgtTnL6UooXvvEwphsb5L0zSD5JS5YJQj7k59SvDjBjWse2DhvXTpwhntfQsLGL7TvaMWrh0PdfR7dxF2VZL6/9/DLtm5pRKeTUtrdQVWkjHZjlzMl5NKoFcjIrRoeHzq5aDHoFEf88R9+7hi4+QrrjSbo9Ua6NyfDo09Tu2IT1Lt4CfViDEJqe5HKfH5vLil4vbNgZLp2a5umv7Sfp93HsZycIlqB953rcVsOSFkGmxFnhRKOERDDA+LCPMe8iVlkcuaOerk0NmE160Qe//2wf41MLmCwWHG4nGquB+WvTbH9qBybxe7fn+TBBePs7P6d250aEs242FmUhkqetqxmTMsXFM5c48vYUW1/cRmuFjaLQR7kSq8OKUa8kMO8jEsmQXPByabrI9o21qHQ6nB4HelWJwfPXmPSHcZZX4rDIGTp7BVPLJrZtXiLc98PzAUHYSt/xfrzeIEoNTI3N4WmqRSMvUsjL2Ly3m7nhARJFPc2ttVw+fgJnbRPnT57llW++hPxe2mHuB8HcQh9WEoSF8WEu982TT6VYXAiJGk2r1URFaxMNZVp+9eO3yVnKqKx2kokmxA0yNjVD9c5ttDaXo7mH4mUsE4TnXnqQwZMX6b08haOqCp2+xOKMD6XegslsY+sjG0hPXuZbf3OW8lqLwOcFKkssGmPnF5+jp8PIgX84DGUm0uEo0XgGR4WLfDhM7fZtNHqUvP36+2zdvRONRsHIlauk5XocdjPt3R1oVkkjfAcIgo7hc/3IbXbMyUl6Z2Rc65vEoVdh97jY9OB2XNoMl8/2MTsfpf/KMG0b2tFpNTRuWE9zvZ2oP0A0EmZkaBq1XU84lKRn6xYqy833FHu8hXnxkSLLBMGoVzNz5gAn4/Vkh0+TK8lJF1QUEyoe/9qDqBMz/P0/n+Sr33iSy++cxFFvw9nSQ41DhU6nZX58nNHhGQbO9TE67KO8q5HGhhqqG6pobHDjG7nCe6f8mOOTFCp3s6FNTjBqvDcJgnecM2fG0RgM6MQTfZbBwRgv/dHDyPMZTr9xlOlIivI6B/FATCSWKpUSV3UjrS0mrpy+xvjAJFcvjmGrtNO0rgWr2cCWh/eQmrzM8ZN9zAeKmJRqymrKKGuuYHFo9o4ThF/8zf/E0tGGwM0E9Xcsr6ZnWyduuwZf33n+8jvX+OrXepgcnidXKIokyFNXS3tbJdHpUc5fnCIVXGAiIqezqQJnRQXrtjRjJMWUN0Yu4ePslTAtzUpSeNiyqRn9Gte4rZxAv0EQTgzQ3ztKmjxFSmTSWeo2bqFSk6O8vYaRCxeYmMlQXWkmktax+8F1HPj7f0DVuYsnH1r/aaau9M5nQGAlQcimksQTWfLxEGPTIXTOCqqdWjR6PYXQDG/+6DhFg46mjlrCoRyhiRkWvdM4tm7l6Sc3YzHcxdPNhzBYJghf+uoTRHx+RvqmUOp0xAt53OVuXDYDoMBkN5CYGeDgqTQ1lUoymQyZYh6rzUZDawMmQ453vnWIGFlS2RyFfB61xU2Dx0zlulZcpgI/+NaPqG1Zj9GkpSg3UOmRceXiGK1bN9NU71oV4nsHCIIBlSxH/7VJtMEh+hf0XBwOs77WQEGmont3D8XgLGNjfmaHB5iPy6let5HOag2JvIx13Z3YbRpyqQQX3zvEydEsjz65BY/NiM5sXvML3gcEQU7fO69zeKqcjevUlApKUAiqJDmd21rJRCP0nuuntrEGpUpLZrqffp+eqhonHevrUcT8HH1/AFV5OfrYKItFAzKFlvbudbQ12Znrvch4yYFx5jSZdV9inS3E6LCf+EKSrse3Yb59B+ebLiMfp0HoGwqIp2GjeKJPc+7oOE989SFU2QgHfvgeJ3qnefSVh2kqs3Hywhh7H+hGp9eST0S4cPgygawSWSmBvJggnFZTv2EjOzZWkQz6uHRqEKXLhjyTo7y+llIuxMUjXva9sPuOahB++d03adq7GUHBmIlFmA9kaOpsxOM2cuHXr/Pj7/az9cV97N1UzfzMPDlHM22VehL+WS5dGiMSiXHp5GUs9Y1sWN+ImgKuxgbq690oZSUiM1N877/9hPIHH2dPd6VIuo0WA4r75MT8AUHYTSEvaAsKlEpFhs9dZjySYs9DezCrSuQzcS4cOcfgWITyShPz3gAKtZqoP8i+/+X3aa+8Pfe3Nx34n+MCKwlCsVgkGggRDwYY9QbQuaqoLzdjtZtQykuEx/q57NdQnO5nPFwgF1ggmVSy76UnWNdecU9F3Fx5xZAKhzh74CTzoRzm2mq6NzZT5jQtSb1UJDzVx8/fmCSdCpLP5smXZNg8TnY9tpvGGqv4s2KpRDISYeDyAGp3Oe1tdWhVCpFM/cNf/E8qWxvQaFVMj8yj1CixVtWwY99G3MI14yo8d4QgCGriE0cvoPGNELc3cuRwHza1DGt5Gbue2EOdR8fixBg/f+sSz764k0M/P4nTosTYsYXNbQ5GLg9x/PApEgoLHW31mIxKsnPjRCs28eTu2lWA4e5VsUwQElNDXOq9Cu0PUbx6nEvXZkjk5DR1NrF9/1bamss4eeAgtRt3UG7IMdl3hWLlJho9AnsuMHDiMhG5Do9TydnXT9P00E70wnlKoaW+ycOidxG7x4GCBO8fG+eRJzYT8U6TxEhDg+vuASDMlQ8ZKYa84xw7OijaFWjFlL9Z5mZLvPQvHmFxbJyTb5yhdusGLNYU04tqQpEgnkKCqh27MeRC9F2Zx1NnYfT8GGaPi8pKPXOLOTp72lBlQswHi1RW6Bge8WF0ujDkI8QKBuob3Ld18/zwFcPrf/19lNXVogYhl0ySU5nYumcDTlWc1945g2zRxe4XGuk9cJrKJg8jC2o6ah20dFZTzCQ48+a7jKqq2VWV5epQCIvTxfod3chji5w+cpkjZ/rYu3cHdqeOXDpNLByj86H9VNnuIhtcxZG2TBB27Gin98Qlxr0hShS52jdOZ0cDMpkMndlC19Y2iskwKouLCo+VK8dOYq6v5+Qb53jpX38Z/X1CmFYR2tte1UqCkMtkuHa2l7nZADP+GFqrk+qacjZsakKZCvDmP77GZM5G5+Z2VAk/6WgOSgo2PLidykrbqt23r0anlwnCU1/aw9E3DuKLy9m4uZVMqUBlbTUe51LKdIEg+PvO8N03pikzQ14u6BUUaI1G6je00mjN8d5bvWQEa6RonHAkRkVVGQqZjLLWdraud3LkRB+PP7mbSDDM1NCQeBAymYx0bm5Dr1qdi8Q7QhBSs2P0ekvExiboeKCOSW+avD9Gzfoqyqs8LA6PMDK+SDScY+8Tm4mNXOH4uJwnnt6Ew6IhtBAnND9HRG6gpakCo1ZBYuIqZ0NOHtlWvRpyvWt13DBSdJiZO/0efeoeqmWznD7RTyIrZ+OuLto76jAbtBx79/0bBOHyoYNcmJThMhvp2NaGPBXB7wsTmZund9iPUa+ntbNevGOvb6kWJ1rveS/ZQo6jvzrJA0/sQKFW0bBuHTWVwlXN3bP0+TgNwpVrftE+xXDdBuHCca9og5CLxxg9OYLSomQmEqe5toyro372d7t5/+yCeMc+MTRNxLfAxPQ8wbSGtvYqHFYDdV3rcBuKDJ67Kl5nzcz4URmMOJ1mmjetp6HGeUcJwi+/83Pq92wSbRAysSi+UI7W9U1YNTlCqQRnfzZF+w4V3qCKKnuJQN6IPJ/F5dQzem6AZKGItryWrjoD549fwb2+i872SnLRKMm8ihMnzvHkkzvF6xfhCmPs2iD29k33HUH4wIuhJFqO/+y1I3z5S/uWPEVKJWL+OU68f5r5WJGajjZaymX85C/epvHl53lkc5Vo73QXh/9dW3vu5odXEoR8Lifm/shFAwyML2Ioq6HBI5yAZShVSpLefk5PQH5qgIlAHmVJidEIjVs30dlWhVZ97/jo3LhieOVJYsEQs6IRdRG5TkV1Uy020QB5ySj56rvvEvZ0oQrO4vbouXKsn5KjnF0Pb8RlX/LYEICZmfbj9frYtG39krakVGR+YIAf/+QQNe0NeBqbMMbmOHFqmq3P7GNdi+cTeUr8rnFwBwiClr5jfejtcka8BbTZCBVdDUwN+6lrsFJQGHDZBVdIJed/cYqCSkXTjq2oI1MMeCNs3LMVu15FYGKESyNhnA4LOo2C1MwofnMbD98vBMGi5sgbh5FXNqMqZcU781w6KWoHtA43ddUuzh85SkXXFsp1eSav9UPVRlGDILjCLE5PMze/SHA+Q/P2deR8M0zMRSmvdlNWZiWyGCWdySOTlTh+6AK79m9CCOqh0uhwV7sx3MWY+h8mCFHfLEPDCxisJrSC1SE5Rodi7H2iG4EYz1+dYDEcRFZejknwkBkP8uTjG5kZ8KJzWfBNThEMZfFUV6EtpRjxLmLSa2nq6SDnn2cxkkVRyuKdXkSlM1DmsZDPyahprb6tOHxYg3D05wfwrGtBOM/nBPe8lEwkc6IXAhF++fcD1GwSCIyF2Ukf5uZ2TPkEFNPk1CY08TneOzhKbWMljS3ljA+NY66uoqWxSjxpvPXTX9LY0iQGo8mmUgT9izTu2EmF9f7SINwgCPkMM14/R04N8dJLD16/gy0Rnp3m4oURytuasciyDAxMitebsYUQ5R0dbOxp5B7aY+7mvn3Hvr2SIEyNDJPJKigkYsz5I6htLtxWDch11DR7yHoHePP9MVSyFEprmXhYslk0lNfX4HKY7ymX1RtXDAJBWFhk+NI4oUwBT205zW01aK6f7PPpGAfe7KVrezMXDp3B1dKI26xhfMSLpqxStBcSXP2zyTh9VyZI5kps27Ee5XWCMHn+IkcG/bz45b14+4eYmAmSy4JcpaJtY4dotL4aV4l3gCDoyMTzFBMh0mYneoVMtLwOyi201bsoFUpiJEEZeSYuTaKrcON2msSNrFAsIpcrRCaVDAWYXUig1WpEkLLhADlzOY3V1js2qG/Hhz5wczQSXExjdRqRU0KIuifYpWl16hu+voIhotZThUlZJDjvQ2Ytx2lWUSoWGB8YJFXUUFNfg8mgEk9SYf8i0WQOh9tGNpEmmy+IJ6WCEMVMoxZZu1Kpwuwwi26ld+v5MEEo5HPk8iXUQoRJUf1bJJXIo9WrxfbH/WEyJTC7TMz0j5PWGmlrKhPvn6N+P+PTAcprq3HaTeIkSUXCjA/PUbOhhVI0QiyZF41bBYyECoUolsU8OCoctxWH34yDICMRTaIzG0SvAuEeNp8ripu5QrTKTjPSG6B+QzmxuXmm/Bka19dhWGGdnAoFmJyIUttZg06toFgSci2CXLakXhzqG8RktopBmQq5HKlkCk9Dg+gqdT88H4mDkEty8fwwJYOV7nU14hWDeFrLZQgEIijVKhL+MCW9ifJKB7l4mNHJIG3rGu8pNfX9IJub9WElQVicnydfkEOxJM4DmVy+FEhMrsbpsVCMBhmbjaFRKzAbdcx7F4glIhjKBDJcflvn7M368eHff6BBEIwUF/GO+zA4beL1rtX8gV1AqZAnnS5AKceCL4i9vAzBUD2XThFN5LHZl9w3k+EAV6568dRWU1vlvKHpEuKfDI/N0dxQxsQ1L+aqSmxmNb5ZH0qdCafLslYIwicLlPRJBbLWy6+Mg7DW+/Jp2/9JAyV92u/c7fc+WaCku93ae//7Hxco6d5vtdRCAYGPi4NwPyCz0kjxfujPHdAgSAThdw0UiSB81EjxfphYH9cHiSCsrmQlgrC6eN7J2iSCcCfR/vTfkgjCp8duVd6UCIJEEFZlIH0OK5EIwtoVukQQ1obsJIJwl+UkEQSJINzlIbhmPy8RhDUrOumKYY2ITiIId1lQEkGQCMJdHoJr9vMSQVizopMIwhoR3X1PEIrFAsWiYK2/ZKUvuATmhf8rfnuWwzspO4kg/HaCIHgl5AUvlw/ljBdkWCiVRA+XtRTj5mNtEEpLltvI5R+JRZHLZFGqlzw3buUR8CoWS6IV+HJci2IhRwHlPRVt7lb6citlPp4glMjllkJvr3wEbAoFYczIP3EIWsHbpViS3dZMn7fS3/upzMddMQjGysteDB+Oy5LL5VAqhXgVv3syiGtDsShmb71Z2duB58cZKQr9WvLI+9AcF34ueFLJFavicXCz/gjfWvJcu3WPtTtCEIQQuMLCJbisCUITBoHQ0JVJUoSfC0Au/738b6FgcUVZwXdfdE1bsTOUSgVS8QwyuRKtXrWUBWupGPPDfQwuyNm7o110ncnMjfL+cI5dmxsx65TX6757ZGElQRAGt9g9uUx0fRMSeAh9EQKGiP0VJ9AH/V/Zz+V/C4OwVMgRC6cx2I1iIqPlOoR6l6eX8LOsEL2vqERvFFwpBdkslRWxE2LSibgvYSNuYkJLfkf66JsN0N/2+9/wYnhwixheVGxBJsG4L0lj7VKkx2XZx6aHGJrLUNPWgdukWHKJWiqBsKmmUgUMZp1IHpbH0/K3lzZQmbiBLi1IH4zLT9v+W31vJUEQnTdLiLIKB8MoTXYseuVvyPsnf/9PPPaVr1x3S1ySj/Dks2mSyaLYR0G+y2MiE5ylf2Qee20LtW6DKLuZs+/RK+/mqU2OG/jdL8mJVhIEcXxen/PDw16aW2rE/5eup8HJRvxidNKK+gaqyoRMgR/guXxw+PA6UxI87WQy/Nd6OR9x8sR2ISibMFOEWgVhCON0CX8B0xvz7LqcVs7dOz3WbnVM3q1yHw61LEBZyKYIRVNoTBZxbV6e7wK5e+/V19n65HNY9cLK+IHsljBekoEwr4WAesODY7Ru2fGRsneirysJgrCeC80rFbL4AnHMZhMGveBevrS+FVIxhs+fodSwm47KpfTkK0nN8n7wwXy9PuZKRWKBOBq7CbWQ7fb6vvFBuZIQS0nEY3n9K+ZyjAxPEIjl2bm945ahuP0EoVFLPJQgnkhjsNmxmWB2OkBBJhfDShr1gv82mCxmIosBjFYr85NTKJVaNBYzuUiYVK6AyWZGlssTj6XIK5RU1ZahvR50IhNb4Ni7V1BZq9i8pZzgQpRMJovB4SAfGOfCcIyu1hrUegPG4iLHJors7Kok7A9TKIHWZhZDsN7iQe2Wwb2VgssEwWbWMDXuIy+TodRqsVt0JKMxUllhY5ThrnRSSsXw++PIVAox02EhmSCUAJddQzyWJJ3IoHc40KR9vPXqIPu/sgeTokhoMUZBqaSs0olBu5TYRAjCdOngCfx5Fxs3V2Ew6ERZ+H0JMhRVNakAACAASURBVKkwKrWOdCqPQcisZhGyBwZI5UpY3HZsqxzPfyVB6NnSQcAXoiBT43TqCCQLlBmLzASyKApCJBAtOkJMLGQpq6lDU8hhK7eJWS2F0/L4pSv0Xo6z+cE2LCYtZquJoHceuSJPNKuFQgq1Uo/dbSQeDBONZdBazbjdFrGO2/ncIAg1LiauzSHXKDHZBX/lHLmiDMG3OZMpUCgqqaxz88Z3v8/DL75IKR5DbbFiNAjkt8jM5Ysc7Y2x/6lNmJVZ5vxRMZ6FUZ1neGQamdGNy6DBXukmMXiMXvkG9jco8PliyLUaMS6GybC0IK3lZ5kg7Hlwszhmkqki7mongUCI6koH3okZ1CoV2ZwCo67A6JSfMiGznkyG2W27HoQLhFC/i7MLH6wz+RzxeIpcsYTN5aYwP8DZgIk9HXbkeivaUpJ4Tok8EyGUKFHMpJBp9KjIUyjJsdkNpJJpMpkc6XieiuZqMj4/4VQOo8mCq8KypjRft2OM3CAItS7GB+aQaVRYLAZQlMTERLlsjmw6R17I4Fvv5tDrb7DxwcdQ5jJoLSYxiZuwXscX5wjEFRTzKZRyPUpVlsnRcera16OWgdFqRH0Ho2AtE4QvvPwoC1M+UgWZ2K+8AnTyApFETmD4JONFPFU2Zq6cJV+1lWpDHrVBj96oXaKe+SwzEz6ETPYakw6DTk1JpqCUSYKsyLvfPkjz83vprHawOO0jnQejzYRKXhCDoqVTRVDrxdTSi95ZYsks8/4QBZWWPTvuJYJQW+TEe/3k8lDW0IgxMcJw0oDdKCMWy2Iwa9EZ1LSs7+TSseM09/Tw+t9+l3UP7MNiVDHZJ6TLtKDVKZkZD4mhNwN+H+sefYTOuqWc4UnfNL986yyqsmb29NgZHJglseBnQe5kZ4uSw2emaW+sIBYrUemWMZw20KwIcX4sS5lVRjCR5/EXHsLwm1rJ2zEvPlLnMkHITQ1xfDxPjUdLKBhFpzeQigZQ2yvI+xdwtTcT6rtKUmNBno+hMttRF+PM5xzs2mBjxrtIZN7PXMHCw50a/vmngzz10naSsz58gTTxWIR1e7fR2lAm5IAiG49z9NW3mddU01atR2U0UW6FqyMJpi4fpWXLXhTZNAFfgvoOD6MXJ1BoSihdlWzf3nY9idLqQHSDIAyOU+W20nd5Cr3VQ2uThoNDcZ5uLfGj41E2NZtYnI/hrHWSjMUpyAyY9AY6eurRqpUUc1n6j57gWF+KLZsrKCnVNLVUcPLX5/Fo57mYaGNDrYzYfAyjxykGIMqWSiSKKvY8vBmnXX9bSeINguCR8z/+8zG6t9VhczvJZfzECmoykTB6s52ZES87nt7Pydd+ROvmneQTGeq727FbNOJpYfjIYd65kuSZL+5Cn57jyuCCmAbXXlNOMuAno7RiL8SJGWpo0Y3RSyfVwWvMJIRFNSem0d3QVbeUJnsNP8sEoau9hkvnh8kV9Kzf08577x3j97+8m3/+9i/o2d6FfyaM2WUWN5F8UYlGrqNja8sSSSoVWZia5vzJERyVZnGdmZ+OikmtCtkoi3ErW9pKnJmGJnMaVU03lflJBqImtIFrXAlYaLKn6L8aonVDFbFAFGe5Hb8/gt5iJjUyhG77IxROHyJhr6Da46Z9WwPq28tF73mpLhOEarecb/+Pk7R112G36UgU02SSacLxvBjobOzyKLteEDLYvkZZUxdK5NR1NmI1LxHckcO/4LS/jI5aFaHxIKb6CuLzo2jNFZitFupbq9CLGWHvzLNMEJ54ZgeHXj2OylVObYWR6WSKSkOe8wNROlrdzJ6/inX7XowLF5mX1+JQQ01rLU7XUojlyPgg7xyYwOHUks7mqGmtIbEYIZXNU1vn5BffOcDGlx6h1QbHDg5htGiQ6/Wo5EKAvSJmk5neK7N84xu7efv7J6hoqcC/GELtcPHQns5bBuP2axAaFEyOzJCK5CmotSycOUXnN/+AclmMod5BJhdSeCostG3o5PzBw7Rv28qr3/4pX//ffp/A6DADE/DgI20EJ8c4enwCT5WTQnQRQ0s3Pe3XkwwlAhw9MYa+rJYmR47p2SDpWIQjQ3FeeKCCvrkSj+5t4dLJIUhGmFa7UPWdJ9uxgSptkbAvyIbH9mNfnQRYtwy+UHCZIAy8/jamZ1+k01Zk8togl87P46gx0rChB9ncICP+PMPHrtL5yCYUuSSpWBqDVYfM3SQuXDMzi6SiUd7vD/OnX1rHz94c45GnW+k/cYWixYkqHsTW0UVbo0u8jy5kMwydOMucvoGNFUXGZ4IkQnHcTY2ceectHvv6VzGVspx94z3ylRUEJ6PUNZhJFHT0bGnBZFy9E+gHGoQJ2ttrmBqbF099ZS4FR0dTfKFTwavXVLz8UA1DV68xHYX84jyzaTOPP95DpceypH4v5pm9Nsy5kQyPPFQnEg1FLkFC48IV7eWK4QG+uMXK2KUrXLocQqMu4GkqJ+yPsWFXN27n9fjnn0iCt174BkGoMnL43avYLVaKQmTEYoxoUSdqMFrWtXLtxGHcHVs4/eN/xOhppm7rZja2em6Ql0DfJQ5OKHjm4VbmB4cIJdIs+gJkNEYcRiXO+jYaXQl++sMptjSG6S22IL94EtumLhTJOGaXm9b1DWs+vPAyQdi2o52pkRnikRzOploOHT7JKy/s4Xs/PM4rX3+E8YFRvHMhSsko43MZHnhsJ011LvHet1TMMzM4yOCUjP0PtxKYGOXySJKeba3Y9En++b+dZtejZVyahQZTGnlVF5XZcYbiFgzRcWYNrTy4Tsuvv3uCrS/uYWZwRDytpdHQ2tmExX+B1xfq2aabJ5zVoNfpqe9qwKD5fDOEGwShysix9/sxGczI5VmyCsik8+S1ZjZ2NXLxvbexrt/LwC9+gNzZTOuWDaxrdN24bhs+9AsGtT08ucXD2PkLDM6VyPiuUXQ2s2V7JzXl19eGW5+mn6nkMkF45vl9DF64RrqgxqyX4Y3nqLWW6J2R8+yj60n0HeFAoJL65GUuLNjo6Wmip/sD0j783ruc8WloqzWRiiepbK5h+MRZ0o4m9u1p4u2/fZv9//sXSZ47yYn+DK2NFrIlObFEGk+Vm47OBv75Oz/jay9s4ievL/LSVzcy2DfMQrTIA7vX3XIfbztBcNbI8AfCBL2LXB0IsbGyQNjdTIUR/LMhlHoNiVgUd2UZfRf7eOCph3n9h2/wR//y91iYnODi2RnqG12kUgnGRoWMhFYxBWjd5m6qndd39HSEY4eukdfZcGXnmM4qMJLl+HiWl/eVcbpvkY3ra/HNxLEbC4xmjVTGJ7kaNNJco0Om1LF+Rwe6uzBnlwlCrP8i/XmXmHp2fko42SpEVb+tuomSbwZleRXTJ86gqWvAYpBhMJvIZxMiQbD4BhlaTKKXFzkylODffHUTr/64l62PduIfGCecVWE0KKnf0CZupmKY4VyW4VPnGE5Y2LutkpFL/UwGi+zat5FDP/o+DdsfxaLIM9Y/havBycTVadw1DoxlFbS2VKxqgpRlgjA6OEFndwMz47OMX5mmqtHF1ZCML61T8sa4jhd3VTDcP4g3XERdylNUaNAqDXRva0Yn5GwoFpgbHuXkeR97n+ohODLGpateNj+yg+LA+xwKNbO/04R/YpasQidqmbQOGxqTmc4NjZhvc175ZYJQ7tJyZdhHejbIzEKK5lYzUfRiGtfm9haunTyKs62H8z//IV179hMOhGnu6cZjXyJl4ZEBfnkmwP6HWrn8xvsoa6pIBYMUzXYsijQKazluoozHbLQaJugttWOfvEDMUIbdqqGsrpqaGsd9o0HY/sB6pidm8J4bQt3WxUB/H3/4e3v4/mtn+PrL+xkZXCIIilIRmUIJeTVdOzuxGjUI9ku+saV1pq7RTTqdYD6Qorq+DEU2wuCkjE3t0OtTU6OKMJ8xUoaPgK4WV3Een6mNfZ06Dn7vNJue38HU1UEiiQwFnYnWtgYsCxd5bb6GnZ4oC9NRQv4EPc/uw2O+C+rKW94Wbn/BZYJQ4dZyeWCW6HSYqJCxsLWcjKBX11vp6qzj0vu/xty5i/GDr1PZ3kM+l6dxXTsu29JcGD30JqfCNezutDE7OEHJ7iTlH0drLUNnNNPSUbeq2s6bIXODILywj9GhMeZHF0WtX8pio9lZ4vKCmqf3dZAcOMa7C+W0FkeYllfjUBaobW2grMwsHgT8Vy/wzlEfzW1u0VDZbDUQmPWRzMtpXdfAhZ8fpubJXbjSAY4cnaS22YPBZiEWj2K122hrq+f7//Qar7y8l1e/c5pND3binZqhoLfw4O57SIPgqleyGIgQXkyg1luor9QwNj4vGseZ7Tacdh2+qTmS2RK5UoGWziaG+0fo7ukQjei8g1OkckKebDulXIpoJI5cpcVdaSUZS4nyUqlUxCMJ8R7GaZCzEEuiUWmJFuS0VWqZ8AaQl+Si8YvHrsKflOExyRgf8glZQ7G63FTWOrl1286bDZNb//0yQbDo5QwPesnkZWiNZvTKFOOjXlTmckxaFdXN1eSCPmbnYqh0alwVLgq5NDK9DX06zMRcAKVCQyQvZ1NnGYO9o+jcDvHaxO8LoVBrcTr14uRbMgCVIy8WWAgmqW2qYPJyH2mdnQ3djfz6Bz+gfv02hGQQZo8Tp0XF7Pgs2YIMR1U5brd5Va1uV2oQ1vc0iwl3smk5FZUW/IkizS4ZI2EV7VVCvoog0UxJvFIQjF99Y3OoTHoxP4doQImM4EIIV20l+fkJBhaLbNnWQfjc25zLddBqKaA1m/GUWwnN+ojE0picLiqrHahvcz6KZYJQWWmhr9+LLCfDaLNg0EMGJUq5HJvTTmBmCr29DP/4MLWtLYS8XkJpBSajoCqVibHnp6cWcNZWQMBHKCdbylGi16AppQlHcpRyRTxNdejSPnwyN/ZCiJnZCGqjgbLqMizmpbvOtfwsaxB27u9mZmqeWCCDp7GGBeEKsr2avqE51nfUEAqEiSVSqJQq9CYdocl58mqNGNtfwJOSkNslQlJYZ8rsKEppQsEYuaIcT20NZnmM+ZQaCymmpgLodDJUjnLMsiRJjYMap5LJvlnKWyuJLAbJZPOUlBrsDiuapI+hhBlrwc/CQhaj0UxNayWaFTk11rIMPm3blwlCVaWFq/1TkFdisehQG9QUhCQ0whrvsuCfGEftqiIxO4Gzqorw7DzxnAK9XinO9cW+U3i17TRYQG0w4q6wkopFMBiMRCIZ7GV2McfBnXqWCcKzLz3E5NgU8VgRu81IXqXCqiuxkJTTVOMkF5hmPGnEpYhSMLjIBRZJZApL+WZYypETXQiItkkmm0U0vpcpNRSTEeQGM+m5eQIFOU2NFcyNTolrs3BdibyARiOMPQt9V4ZY39XMxKUh4rkSMo0Gs8NCTaXjluG47RoEd7MBtVq55HqkUYvuhblsBsG7Q0jSJKj5BFaYv24JLNgYFPLX3ZRKpaXf3UjoVBSNVwS3kEIqin8hIdoRq7U6LDYzKpXgiqQQ30GmQK6QoRTqF9yU8kXkKqW4kQjjTyGXi2r2nFD39XbdMmqrWHClF0MhlyWbK4qMMRWcZ24hhq28BqtRJbptySiSSWcF81QRu2VXDbmsJBpECT8XEg+pFApyuSwl5Et455Z+l09GCQSTFASsFUoxFbRKnmd+apZpX4zGzibcDhOnDhykc+sOcRFTX08WJaRkFdzERJmtsjHfSiPFHfs3L8lY6KNKIVonC2NEMCYVZCl6wIj4L3l2ZBMx/L4oeSHJi0yO0WbFbFQT8S8wPDIjJieqq3awcOU4s+ZuOjxKFGq1mA61kMuTy+dRqFQoRbeoVRTsx1S10oshl81SKslQa9TiPfiSVfyS14jgmiv0pVjIo1AqyWcyBHwBUsLJCplIrA06pZi5TSkrkc0VxHJCdmOhlnyuQFEgEqJWpUgBOQqhXEYw8lSgUivvanrv1UJ5mSA8+NRuccwIjgxqjUp0HRNcY3OFovj3ktfUB95AxWwa32yQTH4JT63RhMthEMe3kNBJLiuSzeZEozCNOM8Et1pEzyLhO6IbqVIhJlUryeSiTU8hV0SulIuW98ueE0ueR0XyJTnyUp5sVpjbqlVLxbtaON6Nej7wYqgQ17SluSB48QitWZbV0hyQyRViQjq5sK6lkgQWwqTFuQDJuTHyVRtpLdOI81pY3wV5i/OoIGiMPuo+fDv7uzLd89KaKexzS9oiIQGh6C6rEMZJgUJJ8FYT3dYoZNMEF8Ik0zmxrNZkxeXQignclKrrSetEN7Pra0WpKM57jVYjpo7O54VyS26gQjGh/7lcXtw3inlh7BWQq4REcMJ4vXVV+R0hCHrD6l/uL/t8L20VsqUMYLd5gb8dA+u3xUEQXVzEjXz1Nq6VmC1tsEuYCVbDAmkQBpjg1iVsXkrVrfvff1ZcPlOypuuuisuLsjBBhIVZ8F0XJo1CpRQJhjCJirIlgni3nk+di0F09RXcT69TI4EIrqUAELcJ8M8SKEnYPD48Zm5TM6VqPwaBTx1q+UNzQdhokQsE/+7N65Xd+/TJmpZcru+1Ob5mCcL9MuukQElSJMX7ZSzf6X58FoJwp9sqfe83EfjUBOEeB/LTE4R7s2O3lSAcOv1rLNUq8a5Yej4egcO/OknX5g5sjiWXzc/jI7Bm/9wC4yPTbH+g576FoPf0FZweO5U15aL2Rno+GwKhQIQr5/p54LEdn60i6e07jsC5E5coq3BRVVdxx799Oz+YSqZ4940jPPt7j93Oz9yxumcm57AVa3nu2S/c9Juy0rL+46ZFwev18tqbPyWeDaMR7lml52MRuHT+Kg3NdZjMxs8tQoLmPBQMMT/np2Nd632Lw/DAKBabBZfLsSL6433b3dvesVg0ztjwBBs23brb1m1vlPSBW0JgsH8Ym8OG2+O8pfJrpZAQoO/cqV527d22Vpr8O9u54A+wtWsXX/ril2/an09MEAYHB9myZQsmk+mmlX9eC/z4xz9m7969eDyezysE4r3b5OQkfX19PPXUU/ctDgcOHKCyspKWlhZJg7AKUvb5fBw5coQXXnhhFWqTqriTCPzqV7+ivr5enAv30xOLxfje977Hn/zJn9wX3RoeHmZkZOSW1uVPTBCGhobYunWrRBB+x1CRCMKSDcLExIRIEJ5++un7YmJ9XCfee+89qqqqJIKwShIWCMLhw4d58cUXV6lGqZo7hYBAEOrq6mhtvb80hvcjQRD28Vs5uEkE4TbMHokgSAThNgyrz0WVEkFYu2KWCMLakJ2gQZAIwl2UlUQQJIJwF4ffmv60RBDWrvgkgrA2ZCcRhLssJ4kgSAThLg/BNft5iSCsWdEhEYS1ITuJINxlOUkEQSIId3kIrtnPSwRhzYpOIghrRHQSQbjLgpIIgkQQ7vIQXLOflwjCmhWdRBDWiOgkgnCXBSURBIkg3OUhuGY/LxGENSs6iSCsEdHdEYKQL+Qw6IWkTUspOu/UEwsvINPZMWo+W55GIflHMLiI0+le9aYvEwSX3UyioMKk/fylgV3p5vjYIw+JSYm0ej3q60mhFv2zWBzlqO6ReOufdhB8nJtjJpMmkUpj0OmEDCtoVELGxt/9pOJB8nIDRp3mjuYfyaViRHIKnGb9zZr4O39fLOZJxiIo9DZ0qk8fUXKZILzw/JfIiAmrVKiuj5lUdJG00oJNf3M8P1NnpJc/FQIrbRBi8Rgm4/VYOaUi4VgcrUYj/llrj+TmeIsSEyIpLsdBOHTkXbo3bKK6qvYW3/74YulomEhWhrCZ3kqymiNvfxd1+3Nsr7d+pu8mkwl+9uoP+MpX/mjVs+AtEwS7tsB42kSL59MElSqyMDWPvsyFQcg+t8aelQRhS1cj/TNhWts3UmFdCtH9T9/6f3n85X+LW0x3vHafjxCEUpGpqXHO9o+wd+smZEo1Dov5ph0cPPkaflMP29trPhtpKqaZmgxTWedBcQuZzvyDR3l3zsZX9n22yIXpRIiLJ9/Bsv6LtHs+fRj2ZYLw/BeeYiGSQme0YNYtjZHBI9/nmvlhvtDtIZ9JE40l0BjNGLRrewzddHCskQIrCcLQ6AjNDY1iJsJiLsWvjp2ioa6B1vrPtl/cDSgkgnCLqK8kCO+89SOsVg8moxOdrZKORgeD/VeJpku4POXoKDE3P49S56SjxUXv+augUqLzlLGhcWmQlAo5Lrz/C46PZXjmucfJLg4QTelweFxkI3P4Q0kqaxqodBm5dnWILHIGr7xPza6v0aQKMzW7iM7hpMqhZW4xSjoRI5ZVUu3WE1gM4axswaHLMz45RaaoorWtjdD8MIFQEaPbw/H3f8rLz39dDAlsr6jGeH0hukU4fmuxZYJgVcS5GrdSyzRjYTnFVAK7qxKDrMCsz4dMYWF9VzV9vVfIIBPb5DKpmJ6YFHOfH3zt11Tu2c0ju7ehX2O55lcShE0d1Ry/PITJWo5JbWR9dwc/+O//J03bv4JRJcfhqcJlhonJSaKJPC0dnaRmp5mJxjDp3dTWWRgZGCEtV1JdX0uV28W9kvhwJUGYHrzCTDBFKBZlPpHksZ1bxTEej0VJxOJEMwUqPS6CAT86Sw1d7bU3tAV9h77H+bCbJpcFpdxAZ3czC94hvL4odmcZLqOO6bk5UnHo2rmB+cHLLMRy6KxWWlqaMaiXNGrByXP81beO89zXvkyjMcbZySxVDiMaRY6Z2UVM9jKa68uZGh4mlMiSDQ1xTdHGCxvKGBqZoqDV09JYg392jFyqQCgZx+2pJhYOYDS7qSozM+2dIhCM09i5AUfJx9GRFHZNkbj/IqbWZ/DIE+isDuw20/WE17c+o5YJwpeffYzpQByjXs/c2ATxbJ7AyEFiba/we5s9zIz08d7BU9Ru3EO1rUA8kiQaD2F2N5FNBilmCrRv2oJZs6TNyKciDIxNUMrnCPjTtG/uQZMLMDDiRa7SU1dXSzgwRTKWIpxM4i6rQdBWarQ2GurKmJucZDEcw1HbSGOV54ZW49Z7dv+XXEkQzl++SEdjE5PDg0QSGc6PTbFn+1bWNzesOSAkgnCLIltJEN782XexuKpwWl1cODPEi998kbnBq8z4F8kV86RjQm5sBQ1N7ZiTQ5wLGai1yJnxzfHIl34Pu3qJIJx84wccmJbz1Ree4eiP/xJTxxNsaKkiG55jdnKUmLYcRylBMK/B4zRx8eQvqNnxEkxcQeN0E4nFqTBm6fXLaK100vvuW7Q9+RKK0CSBvInHtrUyOTXN4PAwTRt2MXj8NbQ12+hoqefdN7/N9k27UerctHa2YFylk8gyQdD6TvB30608qTnNwUAtbYYoiZKKdDiJTK2lproJj9rH8ZEU1U4twXAQpdVBwDvG5k2befWffkLnE0/yxAPb1zZBaKvi0Pk+LK4a5keuseWRL3Don/6cxr1/iD6bJBLLsmnXBgKzU3iH+1HX9TBz/CCWjk3U2Ryoij5GfDk0JNC5Ktm8eROmz3jFdItD/qbFbhCEehff+uufsGHbRhZCfqaDMTobayjlUyKRLXd7mOk7g6JuJ1XGDINTYb7xyvMorzOdK+9/lxN+G+tr3MwNDFC36zEcLDA55SWUUVCKRUnKVFTYK+jq9vD6q0doba8jFA1S17mDdQ1LYb2Dg0f4s785wR//q6/iDBzmby87eOXBFtTyLDOT04wGUmxptHNlKEBdbTnR2V6u5hvYZc+wUDSTCU5T0d7B2dNH6encgG/iHL58M61VKhYjKbZu20I8MM/86FVCjh726C7zH0+Y+PoD1YQmTxAxdOMxaGjraMNhM35qgvCFh7Zw8KoXWTxGGg0Ou4XZi29S2PyvRIIw2d/Lm786QsueJ8jNXqCgsmHVhHjnSILnnupkbqiP8j0vsa12SXuTCU7wrZ8eYEtPJ4vXLpGs3c3DbSaGRmYYmZ6lqaGO4YGLVFbUEvNdYzxey8ZWI17vLI3NbQSnZzHatHiDJZ54eDd2i+GmY+PzVmCZIAihlv/LX/9XXn7ycU4cvUJtQzmnBsfYu2sX3W1Naw4WiSDcoshWEoS33nqVTVt30VRfy/f/w3+i6w//gOkTB5iORCmoTXS1dRCf8RLJGpFPnWTQWk+DUUE2neXRl/6Q8uvza/Dw25xOOXnhwR6+/63/zO4v/6+UK6OcPXYYn2+KBV0T+sUI2154mnVVLt754V+ScW1m6MC7lHe1kc8Uaa/Q0Jct4wsPbObkf/8PlP3R/0N5Yoy3Dp9m/5Z2BvsHuTI6TveeZ5i7epidz/4B1YYS//7P/piWjU+y46kv0Vn2aa4BPh64ZYKgmT/K33jb+YL5Mr2q3TxUEePCiBetzkbOP0MgpsaSGeJUWEdrmYFSSYbCXYtFmeHRvbv57l/+I9tfeZ52t/MTL7S3KNLbVuw3NQg1XBhbYF33DoZOvYqhcS+9b/4Vz37zP2BMLXL2yBGMre2ERq/gnRpB2fooG6055qYXiKdUKHNexpIaPPoS9voOdu/cgU1/b9h13CAI5QX+3V/08e//3fOMjvZz9NwV6msqIZ9hKpRl/47t+I//nEnPQ+xrM/GjH/+IV775LzEql064Vw99nyn9Zh7uaWbw8E8ZzjdQziSTczPMZk10trajSweYHg/TucnN3/z9Yfbt6yBXKNKxZT89rZVLslzs58+/c5X/619/mfC5H/JabBvf2G6lr/c0oxOzXPLn2FdnJmbp5EsPdzN98Zf84GKOqsg1ItZq1IkgjT07OXvlEt98+QViI4d5/5qNJ/dVc+LUcdzVzcRnR/B5B5lyPMDXa718Z2EL/3a/i7d/+Jecj9bw6IN7eGBj26fS8ixrEL7w4GYOXJnCe374/2/vvePbus77/zcxCJAgCYAEwL33FodIStSitmVJtoadZTurdkaTtEnbpPk1Tdvk2/ab5ps2dZqk2U5sx3bseGtZWyLFvffeCwQ3AZKYvxepYTlxLFKiDCG+9z++eM55zvk8z714f+LQtQAAIABJREFU33PPeQ7pB3aSERdB/Zv/Q3vAUT68PpCxng6KqxqJzt1Kf+1ZtJHppMeI+cbfnOBb33mM+uJj9Pls5FB26LIslsle/vfNCh47sg9bz2WeapZxKF5CVUMPtX2j5GVlMDI6zO7tOxCN1/FqiYSPHU7l7MnfY3SoGOnuJyTKn+lFOUcf2ItGvXbPi7t2E77PDd8MCN/57+/w8K4tVLZJOLwvkVdOXyQhLpGUuOj3uVd3bk4AhBVqeDMgvP7cj9Em5ZEVFcYvfvYa+w+lU1w+TEigjO6hcVJzNqAWWTl9/BKpwTYKJ+M4vDUcw8QUWZs34X1tHVNX8Wkujkg5vDuPl579HwoefALxVBuXLrcSprXSOKMgRGzC6pfGlnVafvuLHxC55SNMVp4naF0+HjI3fEWTlIwrOJCfSdmPvkvQE9/Ab7KVl988RUpCJIsWGb3dTYRnbGOo7QoF9z+2/GPz8598j/wN2xmftbBh6w6UcrcVKvHexf4QEA6pGqjz2EqBboqK1h7c1YEEecD5198iNsGfkk4p+3ckM2c0MuPmhsSywO5NG3juh78i5v77yYgM5drvyJr07/1o5B2AkBxOXd8ESWm5tJW8ikfkJip+83VSPvxPREgWqSivQB2swzhlxTbTxpQmi5RwL/zc5Zz83e8JSoxj3KQgNU6L3FdDXEw0nveIIDcAIUrHP//tf/H5f/wK7bVFVA5Msy42dBkQ+qetFGzIxXDlGENBBeRFefD8b5/lo5/7S1SSq58G6s/8ksJxHUd25lH84nN4pucxWlNDeHwADb3jBEbFkxSopPXkq5jX7abq1Tc48thRzItGAqJSiNBeOzl0uoNv/aiIz3/hYRYbX+GYOZ+DQUYqKirxCtJxubqXXenB1LQt8vCHtlN38mnKrdGsk+oxyGMIUdrRhAZz8uJlPv3QUWa6rlDYpmb7Rn8KL59hUazGRypFauqkyi2VR8IG+O3sJr64UUnR6eeZVCTjjZmk9FzCAlZ/3PkfAoLNMMCcLJqtuVGcf+a7OPK/yBbtLItWGc0N9YSs28hw6xWCoteRGivhX796mq//nw9RW/gm3Yo8HtoQcQMQfnq6lo8f2I2t7wr/W2EhRzKAOTieloYmoiOj0U8ZuK+gALeJJk6USTlyIJ7TJ17BqgjEYpggNjUOo92T9ekJeHsIp9n+4XPkHYDw5Pd4eO9urlxuYtv2TF67UEzehnyyEoUZhPfj+fteNt6XXQwjw31MDXbSNrBI1o7thCvsXLp0ERO+RMWFIrIYaWlsQxOSSG56BA3FZ2kdNZKetYmoEBUWqx2W3ovN8xQVFaFLyMV9YYDwhGyk5knKiq6wKPJAE5lAuNabnooS2iatJCYG4xcUi2iim4rKRrSRCaREaembcyM2NIChimK8MjfhOT9Oe1c/ah8J9fXdyFS+xCUmMK3vISImDYUUGhqrSYmLp39oDJkqkJDrD9k79OB1QFAySeWML/FyA3pJGBGKBUYmZpgzztLa2IpKF8emnDiayy/SMjBFSsZGlEopNquFqPAwBprrKWzsZPueg+i872zXxh0OadXVbwaEbZtyGJ2eR6sLZnyoFakylImeSoyzi/QbLKzfnI+HeYzy8gYUvlp8w2ORTHdRWt1JYkoeydEqasuLMcxLyVqfQ2iw5rbeTlc9iBVUeHsNQiyGjibOFdegikwk2N8HH0852K3MLDqICAnCONDOnFckwWoJ9bU1xCQl4mZzLFuZG+vGMGehub6DkJRsshOCaCq/wsC0Gf+IONQKaGuoZ9Hmx577NjLeXU1JRTuhscmkJMfisFuX25FKJNQUXWJM4sf2BC867aGkatyor6mg12DGWxdEZmI4k22NFNV3kbAuEYkyiDD5AuVlZdg9AshZn073QB/piQksTg3QPy4nMkRBX38fEnd32hub8PBRIw2IIc17gnpzKDkhcoZ6W5H6RbMwPorYS0VIoIbV7me4sQbhwC669TN4eSkZa6imtn+CtLQwHD4RuI1WIgvKY2GwgTGLFJXSg5DgUHS+IorOdbNxaxKjfa2MOTSE+8pZVtg6T9vIDBkJMdhnBqjVuxEimuRKYw9yZSBpiSFMTk0REx4BCwY6BkUkxvnR1dGGjy4YfUcD7d0jJOdsJj4qGImL775ZQWivusgNQIiP50pZCdnJybRUVdA5NodPYAjrEqLQqFcPjavuyBpXEGYQVijozTMIt3vc88LcFC11lQxMzINISmx8ClHhgUjvkTfCFUrxnsWEPAhCHoRbxdGicYbWhir6xubATUxETApx0cG4r/I+sC4a6W5ror13lCXk1gTFkZEShcz93vgEcysd/vD/t8qD4LDbME4bQOGP13u8xDtsZoZ62qhv7mEJnbzUwWRnJOHl6Xrb7FarobPKC6mWnaX86uy+LzMItwsIqxuKa5YWAEEABNeMXOf3+laA4PweCj34UwoIgOAasSEAgpP9JACCAAhODkGXNS8Agsu6Tsik6CKuEwDByY4SAEEABCeHoMuaFwDBZV0nAIKLuE4ABCc7SgAEARCcHIIua14ABJd1nQAILuI6ARCc7CgBEARAcHIIuqx5ARBc1nUCILiI6wRAcLKjBEAQAMHJIeiy5gVAcFnXCYDgIq67q4Bw/Phxlva4y+W3fyCLi+h4290sKysjISEBH59bH9Jz20ZcoKLBYGBwcJD09HQX6O3tdbGpqQm1Wk1AQMDywTTCdWcKzMzM0NLSQk5Ozp01JNR+3xVoaGhAo9Es3wt/Ttfi4iKFhYXs2LHjz2JYSxC+lA770KFDtxyPm2Pp136F11IehMbGRtLS0vDyupa5bYV1P0jFXnnlFfLz89Hp1v4oaVfRcSms+vr6aG5uZu/eva7S7VX388KFCwQFBRETE4NItNq0QKs292dfQa/XLydOW8nD689eDBcb4NmzZwkLCyM2NtbFev7e3Z2bm+O5557j8ccf/7MYV2dn5/KL2/79+285nlUDwvXjnoU8CH9aW+ETg/CJ4ZZ3nlDgXRUQPjG4bmAIeRBcw3d39RODAAi3DgIBEARAuHWUCCXeTQEBEFw3LgRAcA3fCYDgZD8JgCAAgpND0GXNC4Dgsq4TFim6iOsEQHCyowRAEADBySHosuYFQHBZ1wmA4CKuEwDByY4SAEEABCeHoMuaFwDBZV0nAIKLuE4ABCc7SgAEARCcHIIua/46IBw9dICJuQXkHl54yaXL45kcamXSPZQojeeajG9+YZ6Z2Vl0Gu3yFlWHzUJTVw8JUVGIxe88Xn1sdAjEUvz8tLc8atxgGEHmqcb72smRRpOJwZFh4qKi16Tff6oRs3mRsYlJgle5zXByuAOTLIAgtRd3slNXWINwV927Zo0LgLBmUt5eQwIgCIBwe5Ej1LoOCA8deRDjggWJuxy59OqPdeulZ2lR7uSBdP81EcpssbAECT5ePss/jLbFOX75ygkePXQQueydx0JXlV/Czd2LlJQMpOL3zncxOzuNVOaJ3P0q2AyNjnCp+AoffvDwKvrtoLu6EWVyPL7X2rlVZavVyqzRiFqpvFXRd/y/9cqLjKo2sikx+Jbw814NC4CwKtmdVlgABKdJf9WwAAgCIDg5BF3W/HVAOLxvOy2DE6hVarqqyuk1zCJd7MSR/kk+vD6QKcMww2N6QqNSGe1rxkvpS/OlMnqnZ0nO3Ea47zznLpQg1gSSlR7HcH8v+qFp1m3eTITu6g+oYWKcnr4+InS+VJdXMbXgoHJwhG9+/tN4yKQMtzVxobAOXVgMdgwo1b74u8uYkWro6y5n/32HmJky0DM6QVpC/A3N6+vKUQXG4mbo4FJpC/NSL+btc3zh0UfAYaO3uY6KmiYs7u5s276F2osXGTM5iEvNQuvtoK2uDneFilMvvUZA3mY+8bGHUF1lDcZHe2luqEU/ZUEk1bBl63pqKs9inbDglZiJbW6U5LAgKsrKGDeZWZeTw2xfF23do3hERLN/Sy4ysZ3e5mZKr9TiG5mEwlTJXNgeMnxMNPYa8VbMEJG8BcvMCPNmKyEhYUhEV6FopPE0VXo5cyP9aINTyM9Pw/3aZIsACK5x2wmA4GQ/CYAgAIKTQ9BlzV8HhAd3rOd8Qz/m0UHE/glkJoVQ+tL3mc/+wjIgDPY009rZQVrefbRVnUPr68Fv3+jkiY/vY37axGDTZaQJBdiHmjDjoK5rmNyN+axLiEImufqL1tPXS3nVFfy9/UGsIDbCmydfPMs3vvA4Hu4Syt56mUFRFJtSw2lqrWTKMIjUM4L1eev55c//g69/9dvoh3sob+3j/oKtNzQ/cewFgmLTuPLaWe5/5CMYhts5W9bA3332L1icGebE6Qrik5Px9rAi99Ewb1zANDdBfVM7SoUnU/MLbN6ylZe+/2PynvgEGcGBXJ+06Ggqp7y2kXV5u+ktL0STlsfJX3+f/Z//e/zEFk6cPkFWbAyT83KSEwKZGu6kutfBzk2pXHn9BSLve5R0fzeKikoZmVawISue4frX6CQc6+Qs+dvyqS18iczdj2MabWHaaCYtLROZ5Cog9Jz/Ob8bSebhHBXV1dWkbDlErM5j+X8CILjGbScAgpP9JACCAAhODkGXNX8DELZnc7a+j67SDnIf2kl6dAStp39Gg2r/MiD0dzXQ0NpGZv4BWspP4B+ZgnmgmQtn61CEr8PYdIxR3yDkdjvr1q1jcB72b91AiM7vhjbdvT2Ulb6Fr3cMPtposlPUPPnbV/jsRz+Mh8ydyaEO3nr9LRYkgbhJ9NSVlZN2+AkOb83i3/7P1/i3f/kuw/0dlDR3c2jPnhvtHnv9OYIiQjjx6jB/+82HGR0a5K0L5/n0Rx9hdqiZU1cG2bBpPcEBSozjHbz0zAu0TSwgUQWRm5GMQiZhU04Ov/z3/2bTFx8nUfl2yvbOlmpae/rI3byP0SsnGFEncf7ci3zzb77GxPgoL77yIhnRCdh9YticE0V74Zv85JUrqHwV2M1G7vv4V1kf5YO+r41Lx88xIw4mSNbCG5VjBOfex1cO5fHGSz9j/b7PYhppYtq4QGbmhhuA0H3pF1yU7OFIopSy8mL8k3eQEuwtAIIL3XECIDjZWQIgCIDg5BB0WfM3zyBcaBzAbWqQCbcItuREcP7Z/0S86Qts8J3CaJXS1lpHSHQiTVVXSEpKR6wJJkoh4l+/81Me2BzDQkgBMRoH2Oe52NjNjtwcgrS+N7Tp6e+loqYcjbs3DpEn0aEKfvRGMX//ycN0DE8QqBRjWnSjp7GJ5vFZclPDGe7oIiJ7D8ef/Q8efuLrTHZcoXHSk088+DYgnDz+IoHxWRQ99xy7H/sskwN1nK3r4eMP7MJsHKeyvIP41FQGa0sZMs3hEZJGcrCM4upmwqKilgFhQ1Y2v//Bj4g68jAZIf43ZhA6G0spLK8hY+NeeitLicjJ5/U3n+erX/gykxN6Xj91goyISAwz4CuzMDI9Qf+EjKMPbmNipB+v4DBmBlpRanQsWqDwfDFKezeeGR9C0nMWk2oj9tHLeEVvwj7egUWqpmDL1huA0Fv4ay5Ld/JAnJTKqjJ0idtICrqadl+YQXCN204ABCf7SQAEARCcHIIua/46IBw5sIc+wwxe3mr09RXU9o2TlhEN3iE4hqvwCMnDPtJCY9cIXlpfUpJiaK2rpKt3hq279uEnm6O08DI2RQCZ65KYmDMSFqgDi5kFiw1ww7SwiGnBSJifmqrSMibsHqgDNGRHqjhe2kFeYgCXr9QTHJ5ESJACuYccP5mdqj4rMYpZ3rpUhV90IgFabyICdFhsdnAToR8dxC8wEg+TgbfOFSELjiM6VInIbsXucCPAw52ikio8/RPZlBnI2QtnWBQHExUbgLenHHexiOCAQAzdLZwur2fDll14S6/2ebC3mdbmehxSHQERcWSvS6C+oYacjGwWFkx09vYR5a+hpqyCKZsXObnpzI00c6WyheDodJKTw2mqKyM4KJjKikZCo9MI9bVgV0YQ4mWnrLqHsCBPykvrkPj5ExcZiJ9KvXxA39JlnR5k3COKWF8xI6NDePqFofFyFwDBhe44ARCc7CwBEARAcHIIuqz5W+VBcNjtGGfHwUPLtd+llY/VtkBLXR3DU0ZwE6P0CyQ9KQbxH+5KsM4zPLVAoEa9grYdGKfHaW9tZdJoBrGc+PgEAnQqRO/YM+jAaDTiwA0vhWIF7V4r4rDR3VBJj+Fqn62WBZRqFUmp2XjJVn84mNVqYenETJXab0U7FowTI7R1djE9t4jDzY3ohGzCAt79oD5hBmHlbnVmSQEQnKm+sIthWf2lN46enp7l0z9XcmqYk1122+bPnDlDSEjI8vGpwmmOty3jjYq3AoQ7t+D6LSy9zN9JvoK7pYAACHdL2bVtVwCEtdVz1a0JMwgCIKw6aIQKywoIgOC6gSAAgmv4TgAEJ/tJAAQBEJwcgi5r/k4AYWnffpfRk/jAt1f9r4UQS6v/hwzTyL3UaHyubum7ejkwzk4xOjFDVHj4WphaVRs20yR9Mw7CdGrE1/IUvFcDTc11REQn43k9ccF7FJ6dmWR6Zhr/wPD3TAy1lAdidsGKn5+Oi+dOExERQXz82zkhVjWge7Tw7OwsTz/9NJ///Ofv0R6urlsCIKxOrzUvLQCCAAhrHlQfkAbvBBDslnnmrBJ8PK5lFVojzZbAo6ihE7/gWFLDdTfxgZ2h/nbKm7t5YM/eNbK28mYcNjNGswOFXLaiTw5P/frH3HfoU/j7vDNL5LtZ7O9to6Ork/Ub97znWoeejnp6x02kpmRSXnhOAISVu89pJQVAcJr0Vw0LgCAAgpND0GXNXweEg7s30aOfxi8gCs+5DtqtwfhOlFI95GB8ZIjAqDhMo714aiPZmJeN0tOd+aF6Loz5ki5q4kqvjblxAwGhIcyO9uMdlER+ZjxNF05T1TNGQlosYr9oNqeEsZQCyG6zUFlTRXxcIgqRleKWAZKDFFwobcFbbGHaXUFkbCqZUQGMtdTz6plCvH0TWZ+ro7y+he0ZmQwPDmKSe5EQG4PnwhCV415sTAi8OtfgsNPT1UpPex1DI4tEJG8gOzWQktPHaByYJSl7I/Eh3stbNgfHZgiMTsE4PsjY2CKHH/0wDn0Xp05dROIfTv7mPELU3pgneigZtBHNNG9eKEETmM6BQ/k3MhsuzBgoPHeR7lE9mdv3UXTiKSLDE5iYEpG3pQCdfI6iS8WMmN3ZsXcnWqZ549UTWBReBIeHYpmdIDkujakZM54SE1euVDLvoeGBQ/tw6Ds5d6GMaYsZXVQsWzfkU1l0XgAEF7jzBEBwspMEQBAAwckh6LLmrwPCfZuSKGsfITwhDz/DZS4upBFreJ0z89ncH2vhzeOV7L6/gLauPmKTM0mODGCm8U2e7Azno6pqXh+PZ2vALJX1fWzakktxTRvpAXCly41Pf3QX5ceeotV7C4/vTl3Wamn24YVXXmL7tt2oJQs8daaO3Ylqnr/cw6ePbqaqqRNtWNIyIDz3/f8k6sgnCZszMCNe5Nz5cyRExOHrp6RnYoas9GzUc438rlfDJ7cnXQUEu42i82cZNVrITY3hxbMVPPbADqZNNtReIt58/TiRSWkM9nWxITuGZ54tZO/hQ1ibXqE95EH8Wo6jyz+M22gj+kVPCgrysA6U85s6C+K6s6Q/+leEL4zjFRmJQrJk0Erl2ePMeEaSEe/H8JSV0898n3UP/Q1eC8M0tDQR4uuPlzoQrWSUwl4JXkMlBOz+HEl+c9Q2dzLS24DcO5K4+AiKzpay9/AD2HrP8WqTgkT5CNrcg8z3ldI3CzsKdgqA4CJ3nQAITnaUAAgCIDg5BF3W/HVA2LcpmcKmfiKSNqAaPssVRw6xEydoVO9jZ9ACJefrydmbS1FJNeGxSaTFhmFsPsaTHRE8qq3jsmgrW73G6eg1kLIhlTdPXCDAbY75gPUcLkimp/IEF2cj+ERB8g1A+M3vnmP3jvtQiWb51el6DmaHcrbLzMc2RnKuuhVtSALrogKY6qnjxOliZuYUpOdH8fQvf0L2jg+zKy+GsoZ2sjNz8Jms5uXBYP5iV8oNQCgsL8PmELEpJZqfvXGBBzenUnrmNJ0TRgZnbOzfdx+maT07t63j1WdK2bRjA6au4xybicf81tNYIqOR4SAhLYftW/NhuILf1Fs5EC3h7LlyLGg48Nhh/L2lYJvn9MunUCemkZYQis3q4Fe/+gGHPvoFpsf6qK+5iGV8kfpOPRqtDEVgDOamTg7/49cIlNpoaajghad/gSb9fh7cHsfP/+s5PDVK3CUWJL7R+C+a2fGZjzHZWkWXwURWZp4ACC5y1wmA4GRHCYAgAIKTQ9BlzV8HhEO7N3DqSjUKv1Ak/RcYDXmQpPnLtKh2sTVgkYrLjWTtzKa4tAadTo1aF4Zmpopf9kXwsF8TxaKN5Csm6e43kJiTzImTl0gM86Sua5EdBZl0Fr5Kt6aAT++49gNus/Dii88QHrcOr8V+jjWb+diWKC71mDmaE87lug68vLzw0wRjmx9DplBS99JTzKfuxTreSnxwEMZ5O32GCaKjYxANlVDrns8Te9JuAEJJVRV23MhNjOTpk0Xk6KCwB7bnxHK2sIjkjBxM0wa2bUrl2O8qyNuaw3z3W5w0JpMwVYE8fivBavFy3gabmwgPUz/HuiXkRcjw8FTTcuL3KHc/zsYIr+VDoeoKz6A3KwnxtlE3IWNmuJQDR/6CmfEBmlrq0Mh8sLl5EBauxeGppv3Uc4jj96JzjFI9MIm/zyJydx9Eci866trJ3ZyPt9yCSaRkuOIc0qg8zOPNTNo92bppMxWFwicGV7jxBEBwspcEQBAAwckh6LLmbyxSPHqE3pYGGlp68A3wRh6URghDjMujCPeyMtRnIDAykMHBEaRWA91GFZmB0GzyJcnTwIBbCCHSBaZmTGiCtHR29hHor6b89GlaDBPoPMEjYTu5YT7YlvIKiNxhboz6li48fDW4K31JC1XRO20jKUhFn34CN9Mw/Qt+aGWz1Dd1ofQOJyMrkvHJCYJUPoxOzLE4N0VP7yBqrRKRXzjhXmIs9qUshCJmTPMofbwI1iqp6xggNkBJSWkRC27++Pn7EOTvj3XRSFiYjo6mYYLDgrFOddFp9Sfa00h5aTViHz/iIv0ZnZ7HX+nJuM0TlX2Ustou/JThJKcEY7ZYlzM6uuOgt62dkWkrWfkbMAy3EpuYweL8DIbxcQKUCupq6piet5Oam4+fyEjxpVLsCh2xCeFgN6FTK+kZMeIpnqelsQ27REb25gJE00NUVzcjUioJjYwgLCiQS+fOCGsQXODOEwDByU4SAEEABCeHoMuav61dDOY5xuZF+Hp7vOd2P8v8DCUllZjtdmwWG1GJCczqR1i02RG5exEXE4nK5z2yHJpnGF+QolTIkfxh9sV3U9w6R11NMyarDTexjMCgEMKCtXfuG+sCUyYLcrkn8pu2LFrNC/R3ti7DAyIJAYGhBAdqkUpWn3Hxdjop5EG4HdXe/zoCILz/mr/DogAIAiA4OQRd1vxtAcIqRmtdXGDBbEEqkyNzX9vtkKvoxp9lUQEQXMOtAiA42U8CIAiA4OQQdFnzdxsQXFYYF+i4AAgu4CTgngcE8/ws49NzeCo1KP8gqYlpapCq2iYi0zYRrL45a5lriL/Uy+uAoJYu0G5SkxyytpndXEGJm89iKNicy8y8BZVfAB7SP57uNM2M0tjSgsnuSVpCDGrVSg7JuTdU+OOzGBzMzs6gn5whOiz0PTs5PjHB/MI8IUHBazIY2/w03ePzhPprkEmX9rpdvxxMjHTT3q8nPCqJAL97Nx6dBQiLs2MMG0XLBzTJ3qcp+Tt1utU4TtekneggzYoyKV63NzM7w+T0NOEh7x2f79U/y+I8YwY9Huog1J5XZ2JuBoSG5iaSEhKXD6xy2K30DY+g9Fai8vG+02G/7/WFTIorlLy/v5+2tjZycnLw9l6Zo0fbO7DrAglUvv1tb+lENqvdhkgkeUdgL+0Vrjn1AuO6PLaui0Aqfn++na1w+Csudh0QdBo1i3Yxcql4xXXffqbb6WvsxDs6DLXHrTOfrd7A3a1xMyBkJATRpZ8jIW0jWq+bf7iW+mChubGW9lYDEoWVqIhoEuIT727n1rD1PwIEh53e3i7Kmrt46L7d72mptrEe/ZiBXdsKVt0j4+QQwwYJMbFvZ/Zbun/MNgfuEjFuN53mYzPPUlFWgQUVeRvSkIhvIx5X3cPbq7BWgDA/M8vYsAFdfCTyP9kVK+N6A/MLUoJDlFjsbkjFS9rdXt/vtJZpcorJ6Vl8Q4Lx+JOQYkU/MIZDIkOj88FqA3epZDnZ00ov29IaDJsNd+ntf2KZm9JTWV2BLmELiYFXT3e8GRAWFheQy64qbzebOHm5mKjIaBKiIlbazXumnAAIK3TFzYDAwjjHXjvFuEPKwx/7CH1XTnC+cYTsjQUkhXnTXleLftqynClsThXJ3339b4lQXT03fH7GQJ9+nMUFE2bjBLU1rWjC89iRqeTbX/8mXqkH+ND+NKouX0AvVrFv506iAnUrOp50hUO5q8WuA4KPdYSiSR0Jbi3UjVgZ7h4kI7eAAOksp88VoQzLZN/uNMpPvUxFj4ncvbsJ9nTQWl6yvHDqzVdP45eWy1994dNoPe7dh/q7iXkzIKTH6egYmSUyIhHDwBgBWjsvv3EWqW80B3dn88YzP6LD4EdUkj9b1qfjZbFiUmiZ6yrhUuMoWVt2sjUr4Z70/82AMN5TzfMvXUQSEI7DPsWujXn4aoNpb24nPDEe0VgPUz5heE61c+ytCmblShIiNRzY9TZILMyM8PKzLzAjU7Jz5w4MHTVcaRhmc8F2kjQWSlrH6ewYwTF2gdJBf/76y58hLfoqJFhnRqnomyFCNknbtBvdlZeRa3LJS/fm6Z//AnnwBvZuiqWmqoQxsTdHDx4m1Pfdj+69qzfIezQP2RDNAAAcR0lEQVT+R4Bgs1B29hhFDe1k7jxIuEhPfec8CrUvauksJdWdJG3czPqEQC6/8SrVHRNse+ABpINV/PDXp3jwiSdID1FQdK4Qs18kD+zZjNrzKnBP6Xt4+qc/pNcSyWMPrsfmHYDC2EPf+AIN1Q2kbd7OTG8DFnctO3ZsxtBayfmiOvzXb+JAbgpikQjz/Bw1JRcobuokLiOf9VFaunuH6OioZWImgEce24ebycDJ117HpAyjYOt6pof76G5oJzwnD2NLMcXtE6zfshX3sRae/v05dj/yKXJjVJw9dppZr1A+8tB9qK4tRpwe7eLpnz/FgFXLx4/kY0BNvKSfqjER3ZVVhGbkIJrqYQ5fCrbmM9dfz6mzFajScjm8NRt3sRujhjGGR4bwnDdxqaiOhA0F5GTG4H5tdm9+doLi86eoHZoma8NWMgLdqWvX09g8zEcf2cnp3z5Lv0mMNlBJat4+UoKvvixeB4Slk03PXrrIpvVZ1JVcpKZ1lAmRhP3bN5MSG+Ws0LptuwIgrFC6G4CQncqp18+RnLMBf69pBs1axMZxFJ4iqsoqkPsFMWyYZPP2PTT//lmUuw+wNSbkhpWpkQ4qWnpYnJtl1OjOrm15vPLUk+x89O+YuvwS5sgsHCNNyKM3E2xp43SzhYN789GqPVfYU+cWuw4IspHL/G9/AvvllZydiOe+BGho72Z8RkZKaiw+SJAuNPNWl5r9uf4UXijCIySE6alJDh44yOs/e4a8R4+SqNOs6g3BuaO/av0dgBCrpbalgxmTB+lZWXi5zSHxDWbsyvM0qbewzmeWng4rbh56rLPjII9k85Z19PePovGVc+bEaQqOfpKQa4B5L4zveh9uAEKUln/5+o/5m2//Hc0VZzlf18uW9BRsVmhvbSA+fzdD5adJ3HU/RS+8zuFPPUZl6Xn08yIeO7z/mmhmjv38f1Bu+jRp2gk6RxZQK6TYJ/uoGrYTr5zlp8WLfPtLRxgveomTc0n85cH0G3IsjDbxbNkoOwJn+e6Jaf79Kw9S/PufYE0/it9UD5YFGJkwkJ67AZ/FXn7wYgff+MfH8FjN6+ddFv8PAaG/9A2KJ4LZszmalsZmjL0l1MvyeSBRRn1tFzEJ4VRUtZOzPgmrTEW4r4N/f/J5PvORBzh/oZS9H95N+elSAiKimWorZiF8E/s3JlwdxcIkxUUlDLlFsC10krODMoKM9ZQZ4/h0gZL//O7zHP70x5nsbmTSZMOBgqSUeM4++2vu+5u/J9JbQl9LJZcqBtm/N5cLZ0vw8LRR0zvB0SNH8Bko4qkGTzap+jDotqKebWHO5kZ7Xy+pGwrYEBdAW48erUrC8TdPk5y8nqGhfvL3b+Pss6+SkrcRhou5PJXAXz6ce7XPi9OcOV0MviHkhph4ps7Kg7o+/qNMzVcPR/PCz3/DhiOPYuhpQSayM2KwszE/i9LXniZ8/xNsjNXS0tFOfdV5FF6RKLx0BGp9CY8KRCaTYLeaaS49TfO0L9vTNZy51EiQ0sIbrYt86RMPMHj8p4zGPUqWdoxTZy+zfu/H3hUQvvPk93j4vj2Ul3aya1cmL5w4T07uRrKSYu9yBK198wIgrFDTG4CQHsYbJ5vJzc8hPMCLKdMclWdP0WUYZ2pRTHJ6Bp7uIrIycyn89c/x3nWAbe8CCPOLi0h9gtiwLpXTr/yE6PyPMl/yGlPaNNzGOkjc+wABomFefa2FHbs3otXdu99Ob5bwnYCQyCFVA3UeWynQTVHVOYBMImeiu5s5mxKNpYNz/VZig7wQSSTIQpPxl1vYnZ/Hr/77KXIeOUqSv2sDQmqkkpdePYY5cD0f2bcFY1ct9d1dDHW2Isv9CAWBtmVAMM3XUFbdxe6PfJL1Ub6UnDlDz8Q0vWNzPPHZvyZCc++tSbkBCAFW/vH7TXz7m0fo6mihsKaRlIggOjq70Wp8mbWJGR+c4eHD6Tz1m2Y+88WD1NRUMTpm4MD1g36sM/zk33/OfV/5a4IkC4yOjtBaW0ZnZwt6jzjui3enZDFuObnPwOXfcXImgb98YN27AsKz/UF8fX8KbWVvUCtKJdw8wuzYDLNiD3I3rifAd5Ef/uvLPPYPn0N1+zPNK3xyrLzYdUB46KGj2O0Oil98AVvienKTozDNzNJS+jLG0H2EGFt55fVzqMKDWDQ72JKTxuhAJ8MTJk43DvIfn3tkGRC2H9jAyRfeZNLihqfYSEDm/Rzddg2qbgBCONtCp5YBIWChmSH1Zo5kKHjpR2+w/RMP0lZbTn1dJ4sLs4i9lJj1XWz+1LfI0NnoqSuiZkTN0X3JlJ0twmg00LIo50P37UQtH+W7376AVtKOXhuFt3WWkOgEhkxW7t+Ug9bDzsXTp+mdnKNrzMjBLdsZGxlgw64Mfvvk8zg8PfBS2EGTxmce3vFHgJATYuLZa4Dwm/FMPp+jouiNkyQeOkJzaSGz+l7auyfx8VVinR0iZd9n2ZakpaOnh/qmGlJCg6gta0UeGM+undkoPGUsbZUsP/kai2F5bElRceGtcuTmEZrk8RzdnMob//f/sfEbX0czN0px6RVC0ve8OyD893d4eOdmKtqkHN6XyKtnL5EQlyjMIKz8VrhrJe/+IsXsVK6cK8bLzx/5wgR6dxnt1T3kb0qlu78HL20ocqmIdWmZNLz5IiO6KPZsyMFbdnVNwfRoNzUdfcwvmpF6+7M+JYkLx39NRM4RFipPYAnPRDzeyrwiFB+7gaEFX7bkpqL0uvqJ4l6/rgOCfKyMpwZjuV/ZTKNHPps009R2DiBXB+IrsVJ06tzyG9CgyZvMpBCk7nKGpgxYF+YpyFvPa7/6Ld7rMtmQloqH9B56zVuBA96xBiE+kPbhcaxWN8QSOd0VVSRs24FEX0OzPJU8nZX+Lht2j3H8vKQMD8/ip5JT1jBGweZ1VNdXU7DvYcJ872FAiNLxo+89w/aDuxkZ7aN3ykxBrIbC2j7Wb8ik8dIZjOE5fGxTFM//8mVS8jfS1de5/C350J6d12YQLJx74TfYgnPRYKBNP4VjzkRslC8t01JS1UYqFqN5ZEsio9Vv8WqzG48c2oLa+6oui/o2XqzWs9V/jpcGA/irPYl0Vp6kUZREiFmP1Sxidn4Cn6X7llmquh187EPbcb+HQutGJsX7dzIyZWS6p4nOKU8iA31o6tQTrtazGLqHBNkEdXWtaMMj8fT2wdRaRotNSU5CJL/8/Zt88UMHOX/mEqnbNzLa3otcoUStUuAXFoX/9SObzXOUl5TSPuHOphgHVVM++C+2M6LK40Cqgtd+eZItH9lHe10Vg/ppfBTe+OoCkIvFRCVH01JfQ6BSzpWKThISwuntn0CjMFPUNkx+dhYes300TAcQJ+3B4J1AuJ8cH28PCusa2JiZiXishVdKh9mck0xpVQVZKZn0drQSvzGXzrIqtEEhqJQyFAExhPpdmz21GCm8cIVxm5zcKAnHu8Xcrx3ghYl0PpWppPTUWeLvP0Br2RVs9gXm58WEhoUgE4sIiI5B39uCw92LtpYaMtMzmBjVU1Ldw0NH9+Gn9lk+tKqrtpDGEQfRgZ70ji4Q5r1A7aI/B/OS6XjrGYaU2QR5zdHe3UPa5oN/tAZh6RPDkz/9IYd376SksIHktGiKGtrIy8khNTZyBU+Pe6uIMIOwQn/cvAbBMj1BU2snCxY5WRuTaKooZtFNiUqjRKlSIhG54a8LZGG0l+KGNqJi4sBmXrbk5rDikHgglbghclcQqNPQ21GPKige63AnIl0E7gtjNLW2YbJ7kJSSSpBWdU9+g3436a4Dgko0Q92sL9EyAwZJCKGei4xOTjNrnEM/NIpM5k9mRiTNVRVMzFsJDI3CW+XJ0rx0eEgwg62NNA1Nkp2Xj9rDtRZs3gwIW/OzmTKaUXop6OkbQ2Q20D++iL+vNxJdBMEKOzNTdtykC8uLXx0z4wwvSJkcbMEq9kOh9CQxIQkfjz9c4LjCwL2LxW5egzDYWEPLgAG5Wouvzo9wpYQe/SxBIWFMdDcjDogiUqukr7GO9sFxRN4qdGoZ3nIZ82YbuInxkrjR1twBch8io4MZ6+9kwS5CrgkhXGln2KoiJUzD4rSeouJqdGHhyztDlnL1SbAx5fAgVm2nZdaL9VF+TA53YRBp8LaZcBN5IrZP0NrRzZzVnbSMLIL87s01CA/uzqO5fwq1NoSpzlZGpuYIiknBTzaO2TuaIIWDnvZW+gb1+IZEEeHrTk1bC2JpAGaRlU2psbQ01OPw0eHnIaK3uwebSE50TBjzRtNVvSRSrGYzI/oJwkPUmN19UdgmmJMFE6uT0l7bRWhyNBP6EcxLeQlnx+kZGEbmpSMrO4Hjx49xcO8eOlvq6NMb0QRFECSb5mRVO0E+KhApyNmUh8hkoLq6AYfMi5jYaGZMc4QEBODBPEWlpTgkWjx85MSFhdDX0QI+AWg8HHR1dGNFRExyEosz09gBscQdq8mIYXqOiBBfDDYvYhWzNM3rSA+QMdTVg29MLBPDA4jd5VhnDHT1DiP1VJGSmUZ18RkS0jcyNzm8fKBTd7cerTYAH4U79mVQdEMukzEx2o1+xkZIRCzhviJ6ZqXEhmhxm5+k+HIlNk9PtAEaAkOi0Fx7cbt5kWJ5dSUpsfF0NtQxZrIi9laRFBuBRuUas8A3PzIEQFjhA/R2djFcb3pquJt+w9zynx4KH4KCgvGU33sP/BVK8Z7FhDwIQh6ElcbR/MwEQyOjmBaty9nvQsIiUXv/6XX3N7e7tH1syjDC0Ojk8o+Hh5cvIUH+yGWue1/dWINw+CCz81YkMk883NcOjk1To3T365f1WpqxCwgKQ+V9G7uEHPblz0P+urd3kSz5ZmFykMahWZJiovCQrc2Mp8U4TnvXELYlqHH3ICAgCLVy9euxlqB9ctKAUqXl5g1itsVZursHmLdYcXMTodYGE+yvWmkI3ygn5EFYtWROqXD3PzGsYpujUxRwslEBEARAcHIIuqz5tdrm6CwBlraaWmx2pBLJO7aaOqs/76ddARDeT7Vv35YACLev3ZrUFABBAIQ1CaQPYCOuDggfQJcJMwgu5nQBEJzsMAEQBEBwcgi6rPk7BYSquhrWpaYvZ/BbyWVfnGVkcg6Zlx9+q1gEvZTsrbalhXVJSSsx84EoI8wguIabBUBwsp8EQBAAwckh6LLm7xQQ/r9//Rbf/vo/rjj1sHm8i4sNPfhGZJEVrrylbqOtXYhDAvHzlLOwuIiHfGXrRW7Z8JoVcDA9No5pwYYm1J/3cwerAAhr5sS72pAACHdV3ls3LgCCAAi3jhKhxLspcCMPwtEj9DZXc+FyNZr0HArWxVJRVop5dAxdRi4zHVW0jdnYsG0zYT52zh07xZgkiPrGy3zvn7+1DAhLC0ArSi5S16cnM6+A1GBvqht7GOzoZ8OeLbQWnWHIMIUkKILYpPVIByopXsoGu3cv6RoRhWVNOMx2MrZuRuMlwzIzwvf+6d8ZVQTx13/7JVpqy8hNiaO09ApTk0b8wqMxGQaZF2nYs2MjzPbx0gsn8IzJ4sCuPLzdJUwN9nDuzEXsPjHctzuTodZSThVWoU3OYmdaHDMz03howlFZhuiaV+Fr7qG+c47ZRRFZiWounbuMX0wy2anRVF+6ROeMO/sf2EPYtYyYZuMkx194ljPVw+zcl09ySgYRQf4MN1UyOmtcbqenp52ouI1syIqkrbqIKzU9JG0tYGNiJCKHg5GOZk6fKSE0NYfM5CCqis9S2zdK3vaDZEXqKKmsYFPuBgxjoxitYiKCA5ZdKQCCa9zTAiA42U8CIAiA4OQQdFnz1wFhT14yZ4tb8Q+PpurMmxR87BF+8h/f5jP/9D2k/VUU1k0QFyJDP7eIadJIUs5mojU2PvmtH/LSj/4TN/sideUl9Btsyz+Er75WTE52MP/7Sinf+PpfMVn2Bu2iNHICJ3mrogNvuTvzdhXrYpS8+LszfOIzB/nxM2/xla98iQDF2+/hLz75YyIOHSQzUMO/fP9Jnjh8P6+fu8KW9cmUlNSRnLuVnsoLxOdv49yvnqbg0U9hbL9Ar3smj96XSvG5i5jEHijFclQ+M7x4fpAvPv4AjUWnqe+fJzpGhTZmI6Gmai7NhBNmOMtP2kP4v49mcemN40Rs3IuXyEDxuRJ8guII8xjm5Xo53/ziA1ezrdotVBaW0j+zSGZqIPUdU+RlRPPa718iMcSDM/1qvvBAFtWl1RhmF7FLFMRFaXnr+AU+8XdfRiOxU3LqDaZkEcT5y2lpb0WpCyUzNZr//vYPeOyfvsRLz/6aLz/xedramjAsSsnPSBEAwYXuOAEQnOwsARAEQHByCLqs+euAkBsXzqmLRbj5BmAf7yVtzyO89sbv+Ncv/yXlb/2ek5V6osO8kXkrmBhxY+f+AqJCffnKN/+Z733r21jnp6ivrGLKEcD2TZG89cJJ/KP8ONE2x98/ch/nf/Nr/HYdJk6i50JtJ11NfdilVnz9fJkaGWTbnn2cqe3irz98LQ32NUVfevLHhD14kKyga4Dw0IOcrmzhaH4qFTXdhCWk0lJ2DFV0JL/7wctk784DhwUfTRQHduYy1ttGTXUzk3MidIo5uiWJfOrgOga6Grh4ogJtQiC6mFyCpkspWYgjwlhMlbyAIzF23vz9RXZ94qN4LOh59YXXmVi0o/X3ZnRWypf+4sNX88RcB4TpRXbuzuHiiXP4+IgZMutY79POW5NxPLE3gcqSKoreLEYS4IG3TodxbIhdH/0iEUoY6aylpLQVb5US/dQiSalpZKyL4cQP/ovgD32KUy/8gr/93OdpbqplwuLJ1vVXM1MKMwiucdsJgOBkPwmAIACCk0PQZc3fmEHIz6aqvg281Ph4eBIdF8r3f/kM3/zCZ+ltrqKyRU9kRBC+Wl96G5uwSRSo/Xz4+Suv8f/+4Wu0t9Xh4eZGa9cwugBf+geNZCT48lrDJF9+eBctl0/SPKUgxMdI15QZT4nn8kmOS214ePoS5mfh+Su9fO7InndoeeG3z2LQBVOQm8tPnvoZH3/wfi7UtHEwN5ma+l5CYpNpKz+GIj6DvsJiItIz8PKUoPTTIbabmLWKWJgep6GwlMDEeAaGJ0lJCGd6cgIkPmAdZ2JBjtbajl6zlURHPbXyLRxJlHPp+AnEfpG4S+yMG8ZQePvg5+uNV2AscaG+V2cQHDaayyuoWfqMsmsn1oEaXrvcwr4jH0LW8ybPNcnYmxLI+NQCIrsbNjc7Xr5qFAoV0eE+tPdPovNy0NnRz/joBPNu7uhUnvho/Giubmb/x47w3M+eJCtnC+Pjw3hoo9mZlyEAggvdcQIgONlZAiAIgODkEHRZ8zfWIBx+kP6eHgZHxpDIfUhIiqaxrZ28dWmYZqdpb2nBZHEjIDQML7GN/t5BLGI5Jjcb6xPjuFJayKb1OfR0dTButKDxDyNCK6dl1ERGXDjz0wYaatpw8xAjU2nQqNVMDvQyZTSiUAcRF6GmfWia2AAfenv6mbfaQSRHJbHSPzVLUno23R1NJEZHMjA2SVSgH2OGGbxVfkyO9iD1DcJtapDugXFknh7odL7MTo9hFPvhmNNjt3iQlBaLvqeR0RkzUg8l8XExGPX9dPeP4KkQ466LxV80iUESTJxWzmhPN129erw1OrRqOfqRYUyLZrSh4SxMGLAs5UEUSZCJpSwszOGjDWB+pJWKAQsPHdjJWMXzHOv3JStYhY9fABHh/gx0dmGYnsZTGUBskJgzNUNkxfjS1TeBr8off50X+uE+JoxWlH7BpMaH0llTwvCcAw9vBZqAECICNAIguNAdJwCCk50lAIIACE4OQZc1f6e7GJYGbrPZmJmZQa1W36EODhZNc+j1Bsy2JUCQEuCvQ+G5+p0LDpuZ+QUzbu6KtT9XxTZPb88Q1mVAEOOj8kOj9mZucoTG1m40YTFEBmqY6q2izx7Kuqh3Zn+8IZJ1gbFZC1r11eObV3sJnxhWq5hzyguA4Bzdb1gVAEEABCeHoMuaXwtAcNnBr3HHbZZFTIs2PD3liEUi7JZFLEiQScVrbOlqcwIg3BVZ17xRARDWXNLVNSgAggAIq4sYofR1BQRAcN1YEADBNXwnAIKT/SQAggAITg5BlzV/p4DQ0NJMcnzC8jkIS+ciGCYnEYml+KlunQTJZUW7RzouAMI94ohbdEMABCf7SQAEARCcHIIua/4GIDz0EHaHHZvNgVgsZunkSuvSIUhSd9xwYLUunX4pRiIRX129f+0aHdOj02iX4cCyYKKwqhq5l5r8jDSX1cRVOi4Agmt4SgAEJ/tJAAQBEJwcgi5r/jogHN6/k/bOXjoHjKSnhjLY1kKvYYqUnHx8HXNU1bYi04SQnpaI1ufto4/funCObRs30lFXQUefgeF5M0kJ8WzOurpXX7jungICINw9bdeyZQEQ1lLN22hLAAQBEG4jbIQqwHVAeHB7Ns+dKkUXvY6wuToabInszFLT1NTOSHMdNm0ClqkhAmIz2LYpA+m1aYSvfeuf+NpnPs4rL11hz/58LhSX4B+RwK5re/UFke+eAgIg3D1t17JlARDWUs3baEsABAEQbiNshCp/AAhn6noJjVmH/vRvUez4MLlhSrrbm3jzty+hzc5Fap4nLDqJdalJuF9bmL8ECF/9xH5ePT/HJz6Sy7krxci9/NicvU7Q9y4rIADCXRZ4jZoXAGGNhLzdZgRAEADhdmPng17vxgzCjmzON/QTHJ2G52ApxV0QqBIxbZagMI+w4OmPxk9FZEwsARqfG+sQ/uHfvsVXH/84r75wlvCECDpG9cQmJLM1K/WDLu1dH78ACHdd4jUxIADCmsh4+40IgCAAwu1Hzwe75nVAOPrAPoYnjSi81XiJFmhp7MGKDW+/IJTuCwwMT+DuKcPNYWd2dhbLUiIjqQ/uMhvrEpPob21lzg4OqTsBAQH4+wq7GO52ZAmAcLcVXpv2BUBYGx1vuxUBEARAuO3g+YBXXNU2R4cd09wss0YTNrsDRDIC/X2XtzgK1/uvgAAI77/mt2NRAITbUW0N6wiAIADCGobTB6qpVQHCB0qZe3+wAiDc+z5a6qEACE72kwAIAiA4OQRd1rwACC7rOiHVsou4TgAEJztKAAQBEJwcgi5rXgAEl3WdAAgu4rq7CgiNjY2kpaXh7X17J365iIZ31M2XX36ZTZs2odP9iVPT7qh116hst9vp7++nubmZvXv3ukanb6OX58+fJzg4mOjo6OWMf8J1Zwro9XoKCws5fPjwnTUk1H7fFThz5gxhYWHExcW977bvpsGlRbDPP/88jz/++N0087613dHRwdDQEPfff/8tbbo5HA7HLUtdK7BE92VlZYhEItzd3Vda7QNXbgmiIiIiUCgUH7ix3zzgqakplh74f24PjJvH2NXVhY+PD35+fsLiuDWIdqPRSG9vL0lJSWvQmtDE+6lAZ2cnKpVq+V74c7rMZjO1tbWsX7/+z2JYExMTBAYGsmXLlluOZ1WAcP2cdZPJdMuGhQKCAoICggKCAoICggL3ngJqtRpPz7dTlP+pHq4KEO69YQo9EhQQFBAUEBQQFBAUuBsKCIBwN1QV2hQUEBQQFBAUEBRwcQUEQHBxBwrdFxQQFBAUEBQQFLgbCgiAcDdUFdoUFBAUEBQQFBAUcHEFBEBwcQcK3RcUEBQQFBAUEBS4Gwr8/0NcA0ftb5XyAAAAAElFTkSuQmCC;" vertex="1" parent="1">
          <mxGeometry x="-3247.5" y="-2707.83" width="406.57" height="106.33" as="geometry" />
        </mxCell>
        <mxCell id="sy4TEDoWgvyvnTtcRax9-102" value="&lt;font color=&quot;#ffffff&quot;&gt;状态编程&lt;/font&gt;" style="shape=internalStorage;whiteSpace=wrap;html=1;backgroundOutline=1;fillColor=#6d8764;strokeColor=#3A5431;fontColor=#ffffff;" vertex="1" parent="1">
          <mxGeometry x="-3434.5" y="-2681.5" width="80" height="80" as="geometry" />
        </mxCell>
        <mxCell id="sy4TEDoWgvyvnTtcRax9-103" value="" style="shape=link;html=1;width=35.88235294117647;" edge="1" parent="1">
          <mxGeometry width="50" height="50" relative="1" as="geometry">
            <mxPoint x="-3253.5" y="-2651" as="sourcePoint" />
            <mxPoint x="-3342.5" y="-2650.75" as="targetPoint" />
          </mxGeometry>
        </mxCell>
        <mxCell id="sy4TEDoWgvyvnTtcRax9-104" value="FlinkCDC" style="text;align=center;verticalAlign=middle;resizable=0;points=[];labelBackgroundColor=none;html=1;fontSize=16;" vertex="1" connectable="0" parent="sy4TEDoWgvyvnTtcRax9-103">
          <mxGeometry x="0.1126" y="-3" relative="1" as="geometry">
            <mxPoint x="5.42" y="2.8600000000000003" as="offset" />
          </mxGeometry>
        </mxCell>
        <mxCell id="sy4TEDoWgvyvnTtcRax9-105" value="&lt;div style=&quot;font-size: 12px;&quot;&gt;&lt;span style=&quot;font-size: 12px;&quot;&gt;过来一条数据，这条数据的 来来源，去往，字段，主键 这些信息放在MySQL的table_process表中。&lt;/span&gt;&lt;/div&gt;&lt;br style=&quot;font-size: 12px;&quot;&gt;再用Flink-CDC做一个广播流监控这张表。&amp;nbsp; &amp;nbsp;&lt;br style=&quot;font-size: 12px;&quot;&gt;&amp;nbsp; &amp;nbsp;&lt;br style=&quot;font-size: 12px;&quot;&gt;将这张表的数据就映射在广播状态中。&lt;br style=&quot;font-size: 12px;&quot;&gt;&lt;br style=&quot;font-size: 12px;&quot;&gt;一旦MySQL中的规则表有了改变，广播状态就会立即改变，而且平时没什么数据，不会对MySQL产生负载压力。" style="text;html=1;strokeColor=none;fillColor=none;align=left;verticalAlign=middle;whiteSpace=wrap;rounded=0;labelBackgroundColor=none;fontSize=12;" vertex="1" parent="1">
          <mxGeometry x="-3348" y="-2545" width="503" height="123" as="geometry" />
        </mxCell>
        <mxCell id="sy4TEDoWgvyvnTtcRax9-106" value="穿透：key不存在，&lt;br style=&quot;font-size: 12px;&quot;&gt;&amp;nbsp; &amp;nbsp; &amp;nbsp;解决：赋特殊值&lt;br style=&quot;font-size: 12px;&quot;&gt;击穿：key本来存在，但是失效&lt;br style=&quot;font-size: 12px;&quot;&gt;&amp;nbsp; &amp;nbsp; &amp;nbsp;解决：不设置失效时间&lt;br style=&quot;font-size: 12px;&quot;&gt;雪崩：大量key同时失效&lt;br style=&quot;font-size: 12px;&quot;&gt;&amp;nbsp; &amp;nbsp; &amp;nbsp;解决：设置不同的失效时间" style="text;html=1;strokeColor=none;fillColor=none;align=left;verticalAlign=middle;whiteSpace=wrap;rounded=0;labelBackgroundColor=none;fontFamily=Helvetica;fontSize=12;" vertex="1" parent="1">
          <mxGeometry x="-3464.5" y="-2288" width="184" height="108" as="geometry" />
        </mxCell>
        <mxCell id="sy4TEDoWgvyvnTtcRax9-107" value="一条订单信息对应一条支付信息，&lt;br style=&quot;font-size: 10px;&quot;&gt;一条支付信息对应多条订单宽表信息，所以join后支付信息数据量和宽表信息数据一样多" style="text;html=1;strokeColor=none;fillColor=none;align=left;verticalAlign=middle;whiteSpace=wrap;rounded=0;labelBackgroundColor=none;fontFamily=Helvetica;fontSize=10;" vertex="1" parent="1">
          <mxGeometry x="-3242" y="-2254" width="245" height="49" as="geometry" />
        </mxCell>
        <mxCell id="sy4TEDoWgvyvnTtcRax9-108" value="在这里只需将两个流join就可以了，&lt;br style=&quot;font-size: 12px;&quot;&gt;&lt;br style=&quot;font-size: 12px;&quot;&gt;但是订单流和订单明细流之间的流join只需要考虑网络延迟，两个流的数据就一定会到来，&lt;br style=&quot;font-size: 12px;&quot;&gt;&lt;br style=&quot;font-size: 12px;&quot;&gt;而订单流和支付流之间时差很长，淘宝下订单后等待支付时长为15分钟，所以必须用intervalJoin来管理流的状态时间，保证支付流到达时，订单流的信息还保存在状态中。" style="text;html=1;strokeColor=none;fillColor=none;align=left;verticalAlign=middle;whiteSpace=wrap;rounded=0;labelBackgroundColor=none;fontFamily=Helvetica;fontSize=12;" vertex="1" parent="1">
          <mxGeometry x="-3051" y="-2197" width="226.5" height="219" as="geometry" />
        </mxCell>
      </root>
    </mxGraphModel>
  </diagram>
</mxfile>
